<svg width="20" height="20" viewBox="0 0 20 20" xmlns="http://www.w3.org/2000/svg">
	<path fill-rule="evenodd" d="M18.771,6.795C18.768,6.107,18.34,5.67,17.65,5.664c-0.146-0.001-0.186-0.024-0.18-0.187
		c0.058-1.524-1.477-2.944-2.993-2.782c-0.292,0.032-0.291,0.024-0.295-0.26c-0.01-0.74-0.211-1.398-0.921-1.756
		c-0.721-0.363-1.375-0.136-1.97,0.326c-0.443,0.343-0.741,0.798-0.929,1.325c-0.039,0.108-0.071,0.152-0.206,0.123
		c-0.55-0.117-1.033,0.039-1.406,0.449C8.579,3.09,8.43,3.172,8.179,3.111C8.057,3.081,7.985,3.054,7.94,2.926
		C7.805,2.55,7.595,2.217,7.301,1.942C6.532,1.227,5.482,1.324,4.858,2.168c-0.169,0.228-0.296,0.48-0.364,0.753
		C4.458,3.07,4.406,3.108,4.251,3.098C3.14,3.03,2.375,3.885,2.54,4.989c0.034,0.225,0.118,0.436,0.165,0.672
		c-0.136,0-0.256-0.001-0.377,0C1.686,5.667,1.236,6.111,1.23,6.75c-0.004,0.555-0.004,1.111,0,1.667
		C1.235,9.006,1.634,9.446,2.216,9.5C2.328,9.51,2.37,9.522,2.356,9.654c-0.213,2.134-0.125,4.252,0.332,6.352
		c0.037,0.169,0.019,0.331-0.081,0.48c-0.439,0.658-0.575,1.394-0.55,2.171c0.016,0.495,0.289,0.803,0.783,0.83
		c0.832,0.045,1.64-0.059,2.382-0.469c0.203-0.112,0.41-0.149,0.636-0.109c0.831,0.151,1.669,0.243,2.512,0.292
		c1.896,0.11,3.786,0.046,5.661-0.273c0.291-0.048,0.546-0.022,0.811,0.119c0.739,0.395,1.542,0.498,2.364,0.435
		c0.444-0.035,0.717-0.334,0.735-0.759c0.035-0.791-0.091-1.546-0.538-2.219c-0.103-0.156-0.129-0.322-0.09-0.5
		c0.455-2.099,0.544-4.218,0.331-6.352c-0.01-0.104,0.002-0.14,0.12-0.153c0.635-0.068,1.003-0.486,1.007-1.129
		C18.774,7.845,18.774,7.32,18.771,6.795z M14.768,3.221c0.494,0.011,0.898,0.201,1.256,0.493c0.535,0.435,0.869,0.983,0.907,1.688
		c0.01,0.174-0.02,0.271-0.246,0.265c-0.697-0.019-1.396-0.007-2.121-0.007C14.996,4.874,15.167,4.078,14.768,3.221z M14.462,4.173
		c-0.001,0.518-0.192,0.976-0.495,1.391c-0.063,0.086-0.14,0.099-0.235,0.099c-0.305-0.004-0.608-0.001-0.913-0.001
		c-0.311,0-0.622-0.003-0.934,0.001c-0.096,0.001-0.135-0.015-0.113-0.125c0.088-0.445,0.088-0.89-0.033-1.331
		c-0.015-0.051-0.012-0.102,0.021-0.152c0.363-0.548,0.835-0.953,1.507-1.032C13.982,2.938,14.467,3.414,14.462,4.173z
		 M10.838,2.658c0.221-0.731,0.645-1.293,1.386-1.543c0.691-0.233,1.284,0.212,1.38,0.999c0.003,0.03,0.001,0.061,0.007,0.09
		c0.04,0.194-0.007,0.264-0.234,0.267c-0.721,0.007-1.279,0.371-1.759,0.878c-0.047,0.048-0.091,0.1-0.146,0.162
		c-0.171-0.269-0.349-0.525-0.599-0.714C10.816,2.756,10.821,2.712,10.838,2.658z M8.897,3.568c0.418-0.719,1.2-0.819,1.772-0.215
		c0.584,0.617,0.716,1.366,0.554,2.182c-0.02,0.098-0.07,0.131-0.173,0.128c-0.356-0.006-0.715-0.002-1.072-0.002
		c-0.349,0-0.699-0.003-1.048,0.001c-0.094,0-0.152-0.017-0.187-0.117C8.519,4.865,8.53,4.197,8.897,3.568z M7.874,3.641
		C7.988,3.625,8.101,3.633,8.24,3.67C7.999,4.331,7.995,4.987,8.2,5.661c-0.77,0-1.515-0.001-2.258,0.001
		c-0.097,0-0.121-0.039-0.1-0.122C5.871,5.423,5.89,5.301,5.936,5.19C6.296,4.319,6.921,3.773,7.874,3.641z M5.865,2.059
		C5.967,2.026,6.071,2.006,6.18,2.011c0.482,0.039,0.805,0.32,1.053,0.708c0.249,0.39,0.248,0.393-0.164,0.563
		C6.735,3.42,6.438,3.615,6.179,3.865c-0.085,0.082-0.133,0.083-0.219,0C5.709,3.618,5.413,3.433,5.088,3.295
		C5.034,3.271,4.979,3.262,4.983,3.174C5.004,2.777,5.463,2.191,5.865,2.059z M3.086,4.555c0.076-0.599,0.512-0.962,1.118-0.927
		C4.77,3.661,5.231,3.923,5.636,4.304c0.079,0.075,0.065,0.129,0.014,0.213c-0.19,0.306-0.318,0.639-0.354,1
		c-0.012,0.121-0.061,0.15-0.173,0.146C4.849,5.657,4.575,5.661,4.301,5.661c-0.251,0-0.502-0.014-0.753,0.005
		c-0.169,0.012-0.244-0.06-0.299-0.203C3.134,5.17,3.046,4.873,3.086,4.555z M17.399,18.649c-0.006,0.193-0.096,0.285-0.272,0.293
		c-0.709,0.034-1.402-0.036-2.035-0.382c-0.365-0.198-0.729-0.244-1.14-0.173c-1.868,0.317-3.75,0.378-5.64,0.26
		c-0.805-0.051-1.604-0.14-2.398-0.284c-0.327-0.058-0.633-0.003-0.923,0.158c-0.645,0.361-1.347,0.446-2.071,0.425
		c-0.208-0.008-0.315-0.092-0.319-0.321c-0.011-0.668,0.097-1.3,0.479-1.866c0.174-0.259,0.211-0.548,0.145-0.852
		c-0.443-2.031-0.521-4.082-0.338-6.148c0.017-0.19,0.066-0.261,0.279-0.26c2.282,0.01,4.565,0.006,6.847,0.006
		c2.283,0,4.565,0.002,6.848-0.003c0.167,0,0.232,0.037,0.25,0.213c0.144,1.52,0.131,3.038-0.055,4.555
		c-0.069,0.558-0.162,1.112-0.284,1.662c-0.065,0.293-0.02,0.576,0.15,0.829C17.308,17.333,17.416,17.973,17.399,18.649z
		 M18.225,8.307c-0.001,0.467-0.182,0.65-0.646,0.65c-2.526,0.001-5.052,0-7.578,0c-2.519,0-5.037,0.001-7.556,0
		c-0.496,0-0.667-0.172-0.668-0.672c0-0.494-0.001-0.989,0.001-1.484C1.78,6.405,1.973,6.21,2.365,6.21
		c5.089-0.001,10.18-0.001,15.27,0c0.391,0,0.586,0.197,0.589,0.59C18.227,7.302,18.226,7.805,18.225,8.307z"/>
	<path fill-rule="evenodd" fill="none" d="M3.888,12.24c0.023,0.406,0.041,0.74,0.063,1.073c0.012,0.179-0.03,0.32-0.23,0.355
		c-0.177,0.029-0.292-0.074-0.313-0.299c-0.056-0.643-0.081-1.287-0.067-1.933c0.003-0.188,0.106-0.309,0.296-0.301
		c0.186,0.006,0.253,0.136,0.251,0.313C3.886,11.736,3.888,12.024,3.888,12.24z"/>
	<path fill-rule="evenodd" fill="none" d="M4.125,14.782c0.01,0.188-0.043,0.314-0.219,0.343
		c-0.169,0.026-0.279-0.053-0.314-0.222c-0.025-0.125-0.054-0.252-0.059-0.38c-0.006-0.154,0.071-0.265,0.233-0.285
		c0.157-0.02,0.265,0.053,0.301,0.21C4.094,14.567,4.109,14.688,4.125,14.782z"/>
	<path fill-rule="evenodd" d="M10.761,11.326c-0.845,0.005-1.565,0.343-2.188,0.886c-0.813,0.708-1.308,1.585-1.336,2.568
		c0.034,1.428,1.036,2.277,2.322,2.091c1.649-0.238,3.003-1.618,3.211-3.271C12.928,12.333,12.036,11.32,10.761,11.326z
		 M7.961,15.617c-0.219-0.449-0.235-0.919-0.085-1.377c0.413-1.26,1.26-2.067,2.574-2.343c0.305-0.064,0.612-0.033,0.935,0.098
		c-0.146,0.1-0.271,0.181-0.393,0.268c-0.671,0.48-1.148,1.099-1.342,1.915c-0.186,0.775-0.688,1.258-1.408,1.551
		C8.09,15.791,8.024,15.746,7.961,15.617z M12.178,13.835c-0.266,1.234-1.417,2.312-2.666,2.495
		c-0.32,0.047-0.633,0.011-0.938-0.132c0.198-0.119,0.393-0.221,0.572-0.347c0.517-0.361,0.872-0.847,1.013-1.463
		c0.209-0.915,0.799-1.508,1.579-1.956c0.115-0.067,0.181-0.057,0.253,0.062C12.247,12.917,12.278,13.367,12.178,13.835z"/>
</svg>
