<svg width="20" height="20" viewBox="0 0 20 20" xmlns="http://www.w3.org/2000/svg">
	<path fill-rule="evenodd" d="M8.604,5.157C8.377,4.123,7.967,3.187,7.189,2.471C6.409,1.753,5.512,1.505,4.511,1.879
		c-0.755,0.283-1.304,0.842-1.69,1.556c-1.008,1.863-1.064,3.797-0.306,5.76c0.325,0.842,0.85,1.533,1.622,1.996
		c0.288,0.172,0.604,0.289,0.917,0.359c0.261,0.058,0.555-0.01,0.829-0.07c0.787-0.173,1.377-0.654,1.84-1.312
		C8.463,9.116,8.74,7.913,8.756,6.63C8.761,6.133,8.71,5.641,8.604,5.157z M5.149,6.688C4.903,7.41,4.662,8.132,4.598,8.904
		c-0.045,0.552-0.025,1.101,0.042,1.675c-0.439-0.215-0.756-0.534-1.019-0.914C3.136,8.963,2.891,8.167,2.801,7.318
		C2.684,6.212,2.817,5.142,3.299,4.137c0.309-0.643,0.729-1.182,1.377-1.49c0.211-0.1,0.213-0.098,0.294,0.125
		c0.255,0.701,0.465,1.412,0.489,2.17C5.479,5.549,5.342,6.124,5.149,6.688z M7.386,9.274C7.05,9.91,6.6,10.434,5.907,10.667
		c-0.465,0.156-0.472,0.151-0.538-0.333C5.228,9.294,5.382,8.292,5.731,7.314c0.214-0.599,0.408-1.205,0.461-1.85
		C6.269,4.528,6.068,3.641,5.768,2.77C5.742,2.693,5.715,2.617,5.68,2.517C6.289,2.648,6.72,3.002,7.072,3.475
		C7.602,4.186,7.865,5.008,7.964,5.89C8.096,7.076,7.945,8.217,7.386,9.274z"/>
	<path fill-rule="evenodd" d="M14.325,15.682c-0.474-1.393-1.423-2.334-2.676-2.963c-0.768-0.385-1.582-0.565-2.429-0.375
		c-0.577,0.13-1.109,0.359-1.456,0.921c-0.397,0.646-0.481,1.329-0.311,2.056c0.469,1.998,2.547,3.666,4.58,3.676
		c0.085,0,0.171,0.006,0.256-0.001c0.907-0.079,1.627-0.468,2.013-1.367C14.576,16.99,14.545,16.329,14.325,15.682z M12.139,18.226
		c-1.659,0.08-3.575-1.415-3.958-3.091c-0.095-0.416-0.092-0.828,0.09-1.226c0.052-0.115,0.095-0.143,0.214-0.075
		c0.671,0.379,1.227,0.887,1.66,1.543c0.296,0.449,0.58,0.909,0.964,1.287c0.577,0.567,1.281,0.886,2.029,1.116
		c0.034,0.01,0.068,0.022,0.128,0.042C12.922,18.118,12.54,18.207,12.139,18.226z M13.721,16.951
		c-0.013,0.116-0.035,0.191-0.188,0.141c-0.406-0.133-0.811-0.265-1.191-0.467c-0.547-0.291-0.955-0.732-1.291-1.258
		c-0.437-0.684-0.91-1.333-1.573-1.803c-0.155-0.11-0.313-0.217-0.493-0.341c0.574-0.233,1.135-0.219,1.688-0.047
		c1.361,0.426,2.368,1.284,2.917,2.674C13.728,16.202,13.763,16.573,13.721,16.951z"/>
	<path fill-rule="evenodd" d="M15.986,3.106c-0.136-0.828-0.508-1.51-1.267-1.883c-0.686-0.337-1.388-0.274-2.048,0.063
		c-1.769,0.904-2.559,2.471-2.714,4.446c0.02,0.395,0.045,0.784,0.186,1.146c0.206,0.532,0.446,1.031,0.988,1.307
		c0.678,0.344,1.351,0.334,2.034,0.061C14.983,7.521,16.313,5.104,15.986,3.106z M11.009,6.878
		c-0.004,0.009-0.019,0.014-0.048,0.034c-0.309-0.688-0.294-1.387-0.124-2.091c0.26-1.08,0.813-1.958,1.707-2.583
		c0.406-0.285,0.852-0.458,1.353-0.445c0.135,0.003,0.188,0.03,0.164,0.197c-0.146,1.08-0.532,2.016-1.384,2.711
		C11.959,5.287,11.375,5.995,11.009,6.878z M12.984,7.482c-0.414,0.183-0.838,0.253-1.28,0.111
		c-0.121-0.039-0.145-0.084-0.095-0.21c0.307-0.771,0.773-1.413,1.389-1.946c0.483-0.418,0.942-0.861,1.243-1.451
		c0.262-0.514,0.418-1.063,0.515-1.631c0.007-0.037,0.02-0.072,0.035-0.127c0.285,0.307,0.411,0.67,0.466,1.061
		C15.479,4.883,14.41,6.852,12.984,7.482z"/>
	<path fill-rule="evenodd" d="M6.417,16.479c0.011-0.999-0.392-2.111-1.016-2.889c-0.466-0.58-1.011-1.042-1.716-1.269
		c-1.058-0.34-2.042,0.113-2.468,1.135c-0.135,0.323-0.205,0.664-0.215,1.014c-0.028,1.002,0.287,1.892,0.848,2.691
		c0.488,0.697,1.095,1.241,1.896,1.511c1.113,0.375,2.115-0.113,2.506-1.212C6.372,17.124,6.427,16.775,6.417,16.479z
		 M3.462,17.683c-1.117-0.792-1.745-1.863-1.7-3.303c0.009-0.302,0.105-0.582,0.257-0.841c0.054-0.093,0.091-0.096,0.177-0.027
		c0.722,0.582,1.2,1.307,1.331,2.271c0.107,0.785,0.361,1.521,0.824,2.165c0.01,0.013,0.01,0.034,0.019,0.064
		C4.034,17.983,3.73,17.873,3.462,17.683z M5.603,17.012c-0.054,0.23-0.156,0.436-0.299,0.623
		c-0.095,0.124-0.152,0.135-0.253-0.004c-0.407-0.557-0.654-1.179-0.766-1.866c-0.116-0.719-0.309-1.406-0.764-1.985
		c-0.212-0.27-0.45-0.513-0.734-0.774c0.316-0.047,0.576,0.006,0.824,0.113c0.827,0.357,1.363,1.022,1.731,1.843
		C5.634,15.613,5.771,16.294,5.603,17.012z"/>
	<path fill-rule="evenodd" d="M18.994,10.103C18.93,9.35,18.728,8.645,18.25,8.059c-0.476-0.584-1.072-0.892-1.826-0.744
		c-0.563,0.11-1.01,0.435-1.367,0.888c-0.757,0.959-1.005,2.079-0.91,3.291c0.054,0.686,0.245,1.333,0.655,1.885
		c0.479,0.645,1.092,1.012,1.902,0.855c0.673-0.13,1.166-0.554,1.551-1.12c0.522-0.77,0.746-1.639,0.741-2.574
		C18.996,10.395,19.007,10.248,18.994,10.103z M15.756,12.151c-0.071,0.326-0.102,0.657-0.129,1.02
		c-0.342-0.334-0.528-0.725-0.63-1.16c-0.259-1.104-0.125-2.149,0.485-3.106c0.236-0.371,0.547-0.659,0.978-0.799
		c0.214,0.831,0.289,1.646-0.083,2.451C16.138,11.073,15.881,11.583,15.756,12.151z M17.63,12.684
		c-0.255,0.375-0.579,0.666-1.022,0.778c-0.213,0.054-0.223,0.042-0.224-0.186c-0.001-0.638,0.138-1.239,0.406-1.812
		c0.219-0.465,0.449-0.926,0.54-1.443c0.105-0.6,0.062-1.192-0.081-1.823c0.202,0.101,0.34,0.24,0.459,0.399
		c0.341,0.454,0.495,0.984,0.539,1.547C18.319,11.061,18.148,11.921,17.63,12.684z"/>
</svg>
