<svg width="20" height="20" viewBox="0 0 20 20" xmlns="http://www.w3.org/2000/svg">
	<path fill-rule="evenodd" d="M13.013,6.945c-0.494-0.74-0.984-1.482-1.48-2.22c-0.063-0.092-0.089-0.182-0.089-0.292
		c0.004-0.842,0.004-1.684,0.002-2.525c-0.001-0.475-0.271-0.749-0.739-0.75c-2.765,0-5.529,0-8.293,0
		c-0.462,0-0.736,0.272-0.737,0.729c-0.002,0.547,0,1.095,0,1.642c0,0.587,0.238,0.826,0.828,0.83
		c0.183,0.001,0.238,0.083,0.166,0.254c-0.022,0.05-0.061,0.094-0.091,0.141C2.09,5.488,1.602,6.224,1.112,6.958
		C1.044,7.06,1,7.161,1,7.288c0.002,3.55,0.001,7.101,0.002,10.651c0,0.274,0.125,0.399,0.398,0.399
		c3.326,0.001,6.652,0.001,9.979,0c0.249,0,0.399-0.126,0.403-0.33c0.003-0.212-0.15-0.342-0.413-0.342
		c-0.477-0.002-0.955-0.008-1.431,0.003c-0.152,0.003-0.18-0.043-0.18-0.187c0.004-3.333,0.004-6.666,0.004-9.998
		c0-0.069-0.017-0.139,0.028-0.203c0.435-0.651,0.868-1.303,1.318-1.979c0.197,0.294,0.373,0.556,0.548,0.818
		c0.275,0.414,0.552,0.827,0.827,1.241c0.08,0.122,0.188,0.19,0.334,0.175c0.127-0.014,0.22-0.082,0.272-0.203
		C13.156,7.186,13.095,7.067,13.013,6.945z M2.539,3.688C2.381,3.689,2.342,3.652,2.345,3.494c0.011-0.505,0.008-1.01,0.001-1.516
		c-0.001-0.12,0.033-0.15,0.151-0.149c2.26,0.003,4.52,0.003,6.78,0c0.118,0,0.151,0.031,0.151,0.15
		c-0.008,0.512-0.009,1.024,0,1.537c0.001,0.138-0.035,0.172-0.174,0.171C8.125,3.682,6.996,3.684,5.866,3.684
		C4.757,3.684,3.648,3.681,2.539,3.688z M10.685,4.727c-0.481,0.715-0.954,1.436-1.438,2.147C9.129,7.045,9.083,7.217,9.084,7.422
		c0.005,3.34,0.002,6.679,0.008,10.019c0,0.178-0.032,0.23-0.224,0.229c-2.322-0.008-4.645-0.007-6.967-0.001
		c-0.173,0-0.233-0.025-0.232-0.221c0.01-1.655,0.006-3.312,0.006-4.967S1.677,9.17,1.673,7.513c0-0.132,0.032-0.239,0.107-0.349
		C2.262,6.45,2.735,5.729,3.217,5.016c0.099-0.146,0.17-0.292,0.142-0.468C3.333,4.388,3.395,4.354,3.55,4.354
		C5.164,4.36,6.778,4.358,8.392,4.358c0.323,0,0.646,0.001,0.967,0c0.461-0.002,0.737-0.273,0.738-0.73
		c0.002-0.541,0.008-1.081-0.002-1.621c-0.004-0.152,0.043-0.181,0.186-0.179c0.491,0.006,0.491,0,0.491,0.481
		c0,0.708-0.002,1.418,0.002,2.126C10.775,4.545,10.747,4.635,10.685,4.727z"/>
	<path fill-rule="evenodd" d="M14.264,7.784c-1.691,0.281-2.845,1.288-3.303,2.941c-0.467,1.688,0.029,3.138,1.36,4.286
		c0.103,0.088,0.139,0.17,0.137,0.299c-0.006,0.519-0.002,1.038-0.002,1.557c0,0.512,0.002,1.024-0.002,1.537
		c-0.001,0.162,0.021,0.309,0.177,0.397c0.159,0.088,0.294,0.025,0.431-0.063c0.558-0.363,1.12-0.718,1.674-1.087
		c0.125-0.083,0.209-0.08,0.332,0.001c0.559,0.372,1.125,0.735,1.689,1.098c0.205,0.132,0.371,0.121,0.489-0.025
		c0.082-0.1,0.084-0.219,0.084-0.339c-0.001-1.025,0.002-2.048-0.004-3.073c-0.001-0.141,0.045-0.225,0.153-0.314
		c0.864-0.707,1.372-1.622,1.494-2.729C19.271,9.588,16.93,7.341,14.264,7.784z M16.661,17.886
		c-0.479-0.31-0.951-0.595-1.399-0.911c-0.258-0.18-0.461-0.184-0.72-0.002c-0.45,0.316-0.921,0.601-1.402,0.911
		c0-0.79,0-1.555,0-2.344c1.175,0.522,2.341,0.523,3.521,0C16.661,16.336,16.661,17.097,16.661,17.886z M14.847,15.26
		c-1.863-0.023-3.388-1.575-3.372-3.434c0.016-1.923,1.555-3.443,3.464-3.424c1.887,0.019,3.394,1.561,3.383,3.462
		C18.312,13.755,16.749,15.283,14.847,15.26z"/>
	<path fill-rule="evenodd" d="M6.044,8.227c-1.424,0.004-2.863,1.342-2.978,2.766c-0.098,1.226,0.822,2.092,2.017,1.899
		c1.331-0.214,2.447-1.344,2.64-2.673C7.885,9.113,7.136,8.224,6.044,8.227z M4.359,9.735c0.477-0.496,1.033-0.836,1.749-0.832
		c0.089,0.001,0.181,0.02,0.269,0.041c0.19,0.046,0.403,0.137,0.446,0.31c0.032,0.13-0.188,0.231-0.308,0.332
		c-0.264,0.222-0.553,0.413-0.876,0.531c-0.672,0.246-1.333,0.506-1.903,1.03C3.797,10.574,3.995,10.115,4.359,9.735z
		 M4.705,12.236c-0.247-0.007-0.462-0.091-0.651-0.251c-0.092-0.078-0.107-0.129-0.006-0.224c0.356-0.335,0.756-0.6,1.209-0.78
		c0.318-0.127,0.646-0.226,0.949-0.389c0.296-0.16,0.571-0.348,0.853-0.587C6.935,11.228,5.818,12.268,4.705,12.236z"/>
	<path fill-rule="evenodd" d="M17.417,11.395c0.117-0.112,0.175-0.239,0.124-0.396c-0.049-0.151-0.172-0.213-0.321-0.234
		c-0.408-0.059-0.816-0.122-1.228-0.172c-0.111-0.014-0.172-0.056-0.22-0.156c-0.178-0.373-0.365-0.741-0.546-1.111
		c-0.069-0.142-0.168-0.247-0.335-0.245c-0.167,0.002-0.263,0.105-0.332,0.25c-0.179,0.371-0.366,0.739-0.546,1.11
		c-0.043,0.091-0.097,0.138-0.202,0.151c-0.41,0.051-0.818,0.114-1.228,0.171c-0.154,0.022-0.288,0.076-0.339,0.24
		c-0.048,0.159,0.012,0.284,0.128,0.395c0.274,0.261,0.535,0.538,0.819,0.788c0.15,0.13,0.17,0.261,0.136,0.44
		c-0.078,0.399-0.138,0.801-0.199,1.168c-0.004,0.317,0.246,0.47,0.514,0.337c0.355-0.178,0.71-0.36,1.059-0.554
		c0.143-0.08,0.255-0.091,0.402-0.005c0.327,0.189,0.669,0.353,1.001,0.531c0.146,0.078,0.288,0.119,0.433,0.011
		c0.145-0.107,0.146-0.259,0.117-0.419c-0.07-0.393-0.128-0.789-0.209-1.179c-0.024-0.125,0.013-0.193,0.096-0.271
		C16.835,11.964,17.124,11.676,17.417,11.395z M15.913,11.93c-0.147,0.14-0.195,0.288-0.148,0.489
		c0.061,0.257,0.095,0.52,0.146,0.808c-0.234-0.121-0.451-0.217-0.65-0.342c-0.234-0.145-0.446-0.155-0.683-0.002
		c-0.197,0.127-0.417,0.22-0.658,0.345c0.052-0.299,0.088-0.568,0.147-0.831c0.042-0.188-0.017-0.322-0.147-0.45
		c-0.194-0.19-0.379-0.392-0.586-0.606c0.263-0.04,0.521-0.087,0.779-0.115c0.201-0.021,0.336-0.105,0.42-0.293
		c0.112-0.247,0.241-0.484,0.377-0.75c0.135,0.271,0.26,0.511,0.373,0.756c0.082,0.176,0.209,0.265,0.403,0.286
		c0.263,0.029,0.524,0.075,0.799,0.114C16.287,11.545,16.107,11.745,15.913,11.93z"/>
</svg>
