<svg width="20" height="20" viewBox="0 0 20 20" xmlns="http://www.w3.org/2000/svg">
	<path fill-rule="evenodd" fill="none" d="M5.555,11.692c-0.207,0.001-0.378-0.17-0.374-0.374
		c0.004-0.196,0.169-0.359,0.37-0.363c0.196-0.004,0.364,0.16,0.37,0.357C5.926,11.523,5.765,11.691,5.555,11.692z"/>
	<path fill-rule="evenodd" d="M19.28,15.938c-0.192-0.631-0.787-1.097-1.449-1.104c-1.058-0.011-2.115-0.005-3.173-0.006
		c-0.084,0-0.161,0.023-0.186-0.108c-0.067-0.345-0.26-0.619-0.509-0.863c-0.92-0.899-1.839-1.8-2.75-2.707
		c-0.144-0.143-0.296-0.2-0.494-0.2c-1.076,0.005-2.152,0.002-3.228,0.003c-0.08,0-0.162,0.002-0.239,0.02
		c-0.171,0.04-0.286,0.197-0.278,0.368c0.008,0.175,0.131,0.316,0.306,0.343c0.073,0.011,0.148,0.01,0.222,0.01
		c1.014,0,2.029,0.002,3.043-0.002c0.114,0,0.194,0.033,0.275,0.113c0.618,0.614,1.241,1.225,1.862,1.836
		c0.089,0.087,0.225,0.164,0.248,0.266c0.025,0.11-0.144,0.172-0.214,0.267c-0.002,0.005-0.006,0.01-0.01,0.015
		c-0.115,0.154-0.106,0.363,0.02,0.492c0.138,0.141,0.344,0.152,0.503,0.022c0.062-0.051,0.123-0.106,0.172-0.169
		c0.077-0.102,0.13-0.068,0.195,0.015c0.358,0.453,0.119,1.154-0.441,1.287c-0.327,0.077-0.592-0.028-0.823-0.26
		c-0.803-0.806-1.609-1.608-2.412-2.415c-0.11-0.11-0.227-0.182-0.389-0.182c-0.668,0.004-1.335,0-2.003,0.002
		c-0.269,0.001-0.436,0.149-0.434,0.376c0.002,0.229,0.162,0.363,0.438,0.364c0.57,0.001,1.138,0.006,1.707-0.002
		c0.144-0.002,0.238,0.045,0.336,0.144c0.753,0.76,1.507,1.519,2.27,2.269c0.797,0.784,2.05,0.563,2.522-0.444
		c0.051-0.108,0.111-0.122,0.21-0.121c1.039,0.002,2.078,0,3.117,0.002c0.091,0,0.187,0.002,0.274,0.023
		c0.413,0.1,0.685,0.484,0.632,0.88c-0.06,0.438-0.401,0.72-0.887,0.72c-2.913,0.001-5.825,0.005-8.738-0.002
		c-1.728-0.002-3.164-1.032-3.738-2.664c-0.373-1.064-0.736-2.132-1.104-3.198c-0.111-0.319-0.192-0.378-0.526-0.378
		c-0.859,0-1.719,0.006-2.579-0.003c-0.226-0.003-0.405,0.051-0.53,0.247c0,1.831,0,3.662,0,5.492
		c0.097,0.202,0.256,0.271,0.479,0.268c0.705-0.01,1.41,0.004,2.115-0.006c0.807-0.011,1.413-0.38,1.826-1.072
		c0.022-0.04,0.025-0.099,0.089-0.107c0.061,0.085,0.118,0.174,0.181,0.258c0.066,0.088,0.133,0.178,0.207,0.262
		c0.964,1.102,2.182,1.644,3.642,1.646c2.264,0.003,4.526,0.001,6.79,0.001c0.636,0,1.273,0.004,1.911-0.002
		C18.838,17.925,19.586,16.95,19.28,15.938z M3.016,16.21c-0.538,0.002-1.075-0.003-1.613,0.004
		c-0.128,0.002-0.164-0.028-0.163-0.16c0.007-0.699,0.002-1.397,0.002-2.095c0-0.699,0.006-1.397-0.003-2.096
		c-0.002-0.144,0.039-0.172,0.174-0.171c0.636,0.007,1.274,0.005,1.91,0c0.106,0,0.16,0.024,0.198,0.136
		c0.281,0.835,0.581,1.663,0.857,2.5C4.701,15.297,4.038,16.207,3.016,16.21z"/>
	<path fill-rule="evenodd" d="M19.468,6.82c-0.033-0.325-0.128-0.442-0.453-0.473C18.44,6.292,17.868,6.3,17.297,6.395
		c-0.271,0.045-0.532,0.122-0.815,0.197c0.239-0.658,0.254-1.299,0.039-1.934c-0.35-1.044-1.042-1.836-1.888-2.509
		c-0.161-0.13-0.313-0.111-0.489,0.027c-0.477,0.372-0.891,0.803-1.241,1.294c-0.432,0.609-0.736,1.267-0.755,2.033
		c-0.015,0.597,0.162,1.143,0.455,1.688c-0.061-0.007-0.098-0.008-0.133-0.016c-0.496-0.092-0.996-0.1-1.496-0.054
		c-0.292,0.026-0.396,0.127-0.429,0.413c-0.061,0.525-0.044,1.049,0.054,1.569c0.224,1.179,0.873,1.98,2.055,2.303
		c0.45,0.123,0.91,0.164,1.376,0.165c0.254,0,0.505-0.061,0.759-0.034c0.625,0.067,1.248,0.039,1.861-0.086
		c1.409-0.287,2.332-1.095,2.68-2.514C19.5,8.24,19.536,7.534,19.468,6.82z M12.997,9.058c-0.039-0.039-0.076-0.081-0.118-0.117
		c-0.162-0.138-0.378-0.133-0.518,0.01c-0.141,0.143-0.146,0.361,0.002,0.516c0.229,0.241,0.469,0.475,0.706,0.71
		c0.204,0.204,0.412,0.405,0.631,0.619c-0.99,0.135-1.994-0.524-2.287-1.481c-0.136-0.442-0.166-0.896-0.156-1.355
		c0.002-0.088,0.028-0.115,0.115-0.116c0.522-0.013,1.035,0.03,1.53,0.214c0.74,0.277,1.105,0.85,1.254,1.592
		c0.039,0.198,0.075,0.398,0.073,0.644C13.799,9.861,13.398,9.459,12.997,9.058z M14.781,7.852c0-0.255,0-0.468,0-0.682
		c0-0.588,0.002-1.174-0.003-1.762c-0.001-0.267-0.154-0.427-0.389-0.419c-0.215,0.008-0.35,0.162-0.351,0.415
		c-0.003,0.742,0,1.484,0,2.226c0,0.061,0,0.122,0,0.242c-0.617-0.681-1.119-1.356-1.147-2.271
		c-0.018-0.558,0.195-1.048,0.486-1.508c0.26-0.41,0.584-0.766,0.94-1.093c0.043-0.039,0.075-0.097,0.148-0.028
		c0.632,0.587,1.179,1.232,1.397,2.095c0.143,0.561,0.032,1.089-0.217,1.598C15.436,7.098,15.146,7.475,14.781,7.852z
		 M18.301,9.542c-0.378,0.685-1.01,1.004-1.741,1.168c-0.329,0.074-0.667,0.108-1.052,0.116c0.594-0.592,1.153-1.151,1.713-1.709
		c0.07-0.07,0.141-0.142,0.16-0.244c0.028-0.159-0.018-0.294-0.156-0.387c-0.138-0.093-0.28-0.09-0.414,0.005
		c-0.066,0.046-0.121,0.107-0.178,0.164c-0.497,0.497-0.995,0.996-1.494,1.493c-0.041,0.041-0.069,0.104-0.15,0.111
		c0.018-0.651,0.112-1.277,0.418-1.858c0.386-0.734,1.042-1.072,1.815-1.237c0.461-0.1,0.93-0.127,1.399-0.099
		c0.073,0.005,0.128,0.006,0.131,0.107C18.777,7.996,18.71,8.803,18.301,9.542z"/>
</svg>
