<svg width="20" height="20" viewBox="0 0 20 20" xmlns="http://www.w3.org/2000/svg">
	<path fill-rule="evenodd" d="M18.631,8.913c-0.362,0.009-0.727,0-1.09,0.005c-0.094,0.001-0.134-0.012-0.117-0.122
		c0.096-0.619,0.086-1.238-0.007-1.855c-0.132-0.892-0.432-1.72-0.944-2.466c-0.053-0.078-0.106-0.154-0.21-0.17
		c-0.117-0.018-0.21,0.018-0.274,0.116c-0.084,0.131-0.025,0.242,0.05,0.355c0.82,1.234,1.053,2.592,0.855,4.041
		c-0.011,0.072-0.029,0.101-0.105,0.101c-0.574-0.003-1.148-0.002-1.722,0c-0.069,0-0.103-0.014-0.111-0.093
		c-0.048-0.544-0.237-1.039-0.568-1.469c-0.506-0.662-0.78-1.402-0.844-2.23c-0.018-0.228-0.152-0.388-0.372-0.466
		c-0.222-0.077-0.417-0.027-0.581,0.134c-0.173,0.169-0.313,0.365-0.411,0.586c-0.476,1.082-0.342,2.108,0.297,3.083
		c0.097,0.147,0.2,0.291,0.313,0.453c-0.914,0-1.793-0.002-2.671,0.003c-0.099,0-0.13-0.034-0.143-0.124
		C9.938,8.521,9.917,8.247,9.916,7.971c-0.004-1.284,0.315-2.468,1.135-3.48c0.596-0.736,1.351-1.205,2.325-1.234
		c0.669-0.021,1.26,0.209,1.796,0.601c0.152,0.112,0.311,0.094,0.402-0.033c0.095-0.127,0.06-0.277-0.094-0.392
		c-0.588-0.438-1.244-0.692-1.982-0.704c-0.942-0.015-1.743,0.341-2.427,0.974C10.976,3.792,10.94,3.785,10.87,3.68
		c-0.293-0.449-0.646-0.85-1.071-1.177C8.486,1.49,7.068,1.253,5.546,1.986C4.49,2.495,3.774,3.351,3.263,4.379
		C2.568,5.773,2.383,7.252,2.594,8.787c0.017,0.122-0.017,0.132-0.118,0.13C2.107,8.913,1.738,8.921,1.369,8.913
		C1.208,8.909,1.086,8.954,1,9.09c0,0.059,0,0.118,0,0.176c0.082,0.143,0.205,0.181,0.366,0.181c5.755-0.004,11.511-0.004,17.268,0
		c0.162,0,0.285-0.038,0.366-0.181c0-0.058,0-0.117,0-0.176C18.914,8.955,18.792,8.909,18.631,8.913z M9.184,8.92
		c-0.12,0.003-0.146-0.043-0.155-0.146C8.983,8.285,8.842,7.823,8.592,7.399c-0.115-0.197-0.239-0.39-0.375-0.571
		c-0.53-0.706-0.778-1.511-0.854-2.377c-0.041-0.46-0.425-0.737-0.83-0.594C6.418,3.896,6.328,3.968,6.25,4.059
		c-0.665,0.765-0.837,1.663-0.711,2.64C5.557,6.846,5.687,6.932,5.83,6.915c0.151-0.018,0.249-0.146,0.226-0.32
		C6.004,6.22,6.015,5.848,6.1,5.479c0.089-0.388,0.25-0.741,0.518-1.041c0.038-0.042,0.071-0.105,0.141-0.084
		c0.078,0.022,0.073,0.094,0.079,0.159c0.091,0.968,0.377,1.862,0.97,2.648C8.176,7.647,8.446,8.18,8.507,8.802
		c0.01,0.101-0.015,0.117-0.104,0.116c-0.369-0.004-0.738-0.004-1.107,0c-0.074,0-0.116-0.02-0.15-0.087
		C6.941,8.433,6.654,8.09,6.418,7.713c-0.093-0.149-0.243-0.189-0.374-0.11c-0.133,0.081-0.17,0.23-0.073,0.382
		c0.194,0.304,0.4,0.601,0.62,0.93c-1.137,0-2.238-0.002-3.339,0.003C3.08,8.919,3.127,8.79,3.116,8.712
		c-0.129-0.883-0.1-1.763,0.1-2.634c0.246-1.069,0.7-2.033,1.477-2.822c0.747-0.759,1.639-1.2,2.726-1.155
		c0.934,0.039,1.706,0.448,2.367,1.089c0.287,0.278,0.532,0.59,0.748,0.928c0.041,0.066,0.051,0.11-0.001,0.181
		c-0.957,1.3-1.26,2.768-1.104,4.35C9.457,8.92,9.461,8.912,9.184,8.92z M14.262,8.919c-0.115-0.016-0.234-0.003-0.351-0.003
		c-0.387,0.113-0.584-0.082-0.768-0.402c-0.222-0.389-0.52-0.733-0.627-1.185c-0.17-0.71-0.114-1.381,0.306-1.999
		c0.026-0.039,0.057-0.075,0.087-0.11c0.023-0.025,0.042-0.065,0.082-0.058c0.046,0.009,0.032,0.056,0.035,0.086
		c0.077,0.884,0.375,1.683,0.918,2.389c0.245,0.32,0.4,0.684,0.472,1.083C14.439,8.859,14.445,8.945,14.262,8.919z"/>
	<path fill-rule="evenodd" d="M12.326,14.012c-0.166-0.354-0.346-0.701-0.522-1.049c-0.103-0.204-0.271-0.301-0.499-0.284
		c-0.217,0.016-0.377,0.155-0.44,0.391c-0.095,0.35-0.181,0.701-0.271,1.051c-0.03,0.118-0.073,0.234-0.074,0.359
		c-0.011,0.441,0.391,0.746,0.825,0.615c0.216-0.066,0.429-0.147,0.64-0.233C12.338,14.719,12.487,14.358,12.326,14.012z
		 M11.743,14.394c-0.17,0.062-0.339,0.124-0.509,0.181c-0.155,0.052-0.214,0.003-0.175-0.155c0.092-0.375,0.193-0.75,0.302-1.167
		c0.175,0.349,0.334,0.662,0.486,0.978C11.895,14.329,11.818,14.366,11.743,14.394z"/>
	<path fill-rule="evenodd" d="M14.462,14.578c-0.131-0.179-0.272-0.35-0.413-0.522c-0.126-0.153-0.291-0.231-0.49-0.229
		c-0.271,0.002-0.496,0.153-0.586,0.419c-0.143,0.426-0.274,0.855-0.405,1.284c-0.067,0.219-0.008,0.406,0.168,0.549
		c0.174,0.142,0.378,0.149,0.589,0.021c0.323-0.195,0.649-0.392,0.969-0.597C14.63,15.289,14.7,14.899,14.462,14.578z
		 M14.006,15.063c-0.295,0.183-0.591,0.364-0.917,0.565c0.13-0.415,0.246-0.798,0.369-1.179c0.036-0.114,0.119-0.132,0.195-0.042
		c0.135,0.155,0.257,0.319,0.383,0.479C14.092,14.957,14.079,15.018,14.006,15.063z"/>
	<path fill-rule="evenodd" d="M10.319,16.316c-0.085-0.294-0.809-0.849-1.115-0.855C8.881,15.456,8.6,15.7,8.571,16.045
		c-0.039,0.449-0.059,0.9-0.078,1.351c-0.009,0.219,0.096,0.385,0.297,0.476s0.396,0.057,0.55-0.098
		c0.288-0.284,0.57-0.575,0.844-0.871C10.34,16.739,10.384,16.538,10.319,16.316z M9.788,16.558
		c-0.259,0.24-0.523,0.475-0.757,0.685c0.018-0.334,0.035-0.729,0.062-1.125c0.008-0.13,0.085-0.162,0.191-0.086
		c0.162,0.116,0.317,0.24,0.475,0.362C9.815,16.439,9.851,16.5,9.788,16.558z"/>
	<path fill-rule="evenodd" d="M6.375,11.271c-0.193-0.398-0.404-0.788-0.614-1.179C5.646,9.878,5.465,9.787,5.24,9.82
		c-0.228,0.034-0.364,0.171-0.418,0.392c-0.09,0.368-0.186,0.735-0.266,1.105c-0.083,0.387,0.13,0.71,0.513,0.778
		c0.235,0.042,0.475,0.06,0.697,0.086C6.269,12.197,6.589,11.714,6.375,11.271z M5.775,11.651
		c-0.198-0.017-0.395-0.044-0.592-0.067c-0.083-0.01-0.13-0.056-0.11-0.143c0.077-0.339,0.158-0.675,0.247-1.059
		c0.208,0.399,0.395,0.753,0.574,1.11C5.954,11.61,5.884,11.66,5.775,11.651z"/>
	<path fill-rule="evenodd" d="M9.99,13.223c-0.195-0.374-0.698-0.461-0.995-0.154c-0.321,0.332-0.624,0.681-0.929,1.027
		c-0.147,0.167-0.158,0.36-0.063,0.555c0.091,0.186,0.296,0.291,0.51,0.267c0.377-0.044,0.754-0.088,1.129-0.139
		c0.344-0.046,0.57-0.299,0.572-0.624C10.215,14.031,10.045,13.333,9.99,13.223z M9.583,14.254
		c-0.34,0.043-0.679,0.082-1.071,0.129c0.248-0.274,0.457-0.514,0.676-0.744c0.08-0.084,0.128-0.25,0.27-0.213
		c0.13,0.034,0.095,0.196,0.13,0.302c0.035,0.117,0.063,0.237,0.091,0.355C9.699,14.169,9.683,14.241,9.583,14.254z"/>
	<path fill-rule="evenodd" d="M7.833,15.039c-0.174-0.367-0.68-0.458-0.967-0.168c-0.338,0.34-0.654,0.703-0.967,1.066
		c-0.14,0.161-0.142,0.357-0.04,0.542c0.1,0.18,0.263,0.275,0.466,0.254c0.413-0.042,0.826-0.091,1.236-0.155
		c0.3-0.047,0.504-0.309,0.505-0.657C8.007,15.655,7.97,15.331,7.833,15.039z M7.412,16.076c-0.335,0.042-0.672,0.08-1.05,0.125
		c0.294-0.325,0.553-0.617,0.818-0.903c0.097-0.104,0.176-0.085,0.213,0.048c0.05,0.186,0.091,0.374,0.139,0.561
		C7.558,16.012,7.51,16.064,7.412,16.076z"/>
	<path fill-rule="evenodd" d="M13.977,11.475c-0.037-0.302-0.072-0.705-0.137-1.103c-0.06-0.36-0.386-0.572-0.74-0.501
		c-0.225,0.044-0.445,0.099-0.665,0.162c-0.492,0.142-0.637,0.709-0.266,1.067c0.316,0.305,0.643,0.598,0.969,0.892
		c0.168,0.151,0.363,0.188,0.568,0.086C13.912,11.978,13.999,11.803,13.977,11.475z M12.565,10.751
		c-0.12-0.112-0.1-0.182,0.061-0.223c0.175-0.045,0.351-0.087,0.526-0.13c0.091-0.022,0.168-0.008,0.181,0.102
		c0.04,0.341,0.077,0.683,0.12,1.065C13.133,11.272,12.848,11.013,12.565,10.751z"/>
	<path fill-rule="evenodd" d="M11.261,10.84c-0.166-0.378-0.682-0.477-0.975-0.18C9.948,11,9.633,11.364,9.319,11.728
		c-0.134,0.155-0.136,0.347-0.044,0.528c0.094,0.183,0.257,0.288,0.457,0.269c0.419-0.039,0.839-0.089,1.254-0.158
		c0.308-0.051,0.499-0.306,0.499-0.66C11.435,11.444,11.39,11.128,11.261,10.84z M10.83,11.865
		c-0.33,0.039-0.662,0.079-1.045,0.125c0.3-0.333,0.562-0.629,0.831-0.919c0.079-0.086,0.16-0.068,0.192,0.05
		c0.051,0.191,0.097,0.384,0.142,0.577C10.976,11.799,10.935,11.854,10.83,11.865z"/>
	<path fill-rule="evenodd" d="M12.387,17.733c-0.139-0.482-0.269-0.966-0.423-1.444c-0.063-0.195-0.235-0.286-0.44-0.292
		c-0.203-0.004-0.366,0.086-0.455,0.271c-0.177,0.368-0.351,0.737-0.51,1.114c-0.135,0.322,0.022,0.684,0.348,0.808
		c0.234,0.089,0.474,0.166,0.718,0.229c0.387,0.101,0.763-0.201,0.764-0.6C12.388,17.791,12.395,17.76,12.387,17.733z
		 M11.712,17.902c-0.191-0.057-0.378-0.124-0.566-0.184c-0.104-0.033-0.122-0.1-0.082-0.19c0.142-0.307,0.285-0.613,0.443-0.955
		c0.124,0.422,0.242,0.811,0.349,1.204C11.886,17.884,11.815,17.934,11.712,17.902z"/>
	<path fill-rule="evenodd" d="M7.454,13.48c-0.267-0.271-0.538-0.539-0.807-0.808c-0.122-0.122-0.268-0.185-0.441-0.184
		c-0.201-0.003-0.365,0.074-0.491,0.229c-0.137,0.167-0.27,0.339-0.403,0.509c-0.159,0.202-0.192,0.426-0.088,0.659
		c0.107,0.24,0.307,0.356,0.569,0.374c0.415,0.027,0.829,0.058,1.243,0.089c0.235,0.018,0.431-0.083,0.526-0.272
		C7.662,13.878,7.625,13.655,7.454,13.48z M5.824,13.73c-0.131-0.01-0.164-0.081-0.087-0.187c0.117-0.16,0.243-0.314,0.366-0.47
		c0.047-0.059,0.112-0.083,0.167-0.03c0.252,0.245,0.499,0.496,0.776,0.773C6.604,13.786,6.215,13.761,5.824,13.73z"/>
	<path fill-rule="evenodd" d="M8.878,11.926c-0.04-0.31-0.084-0.7-0.139-1.088c-0.055-0.394-0.361-0.622-0.749-0.55
		c-0.236,0.043-0.469,0.102-0.697,0.173c-0.454,0.142-0.597,0.699-0.258,1.03c0.331,0.323,0.68,0.627,1.027,0.933
		c0.16,0.141,0.351,0.161,0.542,0.067C8.803,12.395,8.895,12.227,8.878,11.926z M7.441,11.154
		c-0.096-0.089-0.076-0.167,0.048-0.201c0.179-0.05,0.362-0.09,0.542-0.138c0.127-0.034,0.185,0.017,0.198,0.143
		c0.036,0.325,0.078,0.649,0.122,1.019C8.028,11.686,7.732,11.423,7.441,11.154z"/>
</svg>
