<svg width="20" height="20" viewBox="0 0 20 20" xmlns="http://www.w3.org/2000/svg">
	<path fill-rule="evenodd" fill="none" d="M1.002,17.907c0.227,0.534,0.601,0.911,1.16,1.09c-0.357,0-0.714-0.003-1.072,0.002
		C1.014,19,0.999,18.985,1,18.909C1.005,18.575,1.002,18.241,1.002,17.907z"/>
	<path fill-rule="evenodd" fill="none" d="M12.251,18.997c0.105-0.055,0.211-0.056,0.316,0
		C12.462,18.997,12.356,18.997,12.251,18.997z"/>
	<path fill-rule="evenodd" fill="none" d="M1.002,2.792c0.058,0.094,0.056,0.188,0,0.281C1.002,2.98,1.002,2.886,1.002,2.792z"
		/>
	<path fill-rule="evenodd" fill="none" d="M19,3.988l-0.018-0.004l-0.016,0.007c-0.073-0.096-0.073-0.191,0-0.287
		C18.978,3.705,18.988,3.706,19,3.707C19,3.8,19,3.895,19,3.988z"/>
	<path fill-rule="evenodd" fill="none" d="M11.899,18.997c0.094-0.057,0.187-0.056,0.281,0
		C12.086,18.997,11.993,18.997,11.899,18.997z"/>
	<path fill-rule="evenodd" fill="none" d="M18.969,8.412c0.011,0,0.021,0.001,0.031,0.005c0,0.082,0,0.164,0,0.246L18.985,8.67
		l-0.017-0.001C18.896,8.583,18.897,8.498,18.969,8.412z"/>
	<path fill-rule="evenodd" fill="none" d="M19,13.619c-0.011,0.004-0.021,0.006-0.031,0.005
		C18.96,13.56,18.946,13.496,19,13.443C19,13.502,19,13.561,19,13.619z"/>
	<path fill-rule="evenodd" fill="none" d="M14.535,1c0.001,0.01,0.002,0.02,0.003,0.03c-0.061,0.057-0.119,0.056-0.181,0.001
		c0.004-0.01,0.004-0.02,0.002-0.031C14.419,1,14.477,1,14.535,1z"/>
	<path fill-rule="evenodd" fill="none" d="M3.469,10.875c-0.141,0-0.254-0.114-0.258-0.256
		c-0.003-0.151,0.113-0.271,0.262-0.269c0.14,0.001,0.258,0.116,0.262,0.255C3.739,10.747,3.613,10.876,3.469,10.875z"/>
	<path fill-rule="evenodd" fill="none" d="M10.325,15.655c0.149-0.004,0.272,0.115,0.271,0.261
		c-0.002,0.136-0.12,0.258-0.256,0.263c-0.144,0.004-0.27-0.12-0.269-0.266C10.071,15.771,10.185,15.658,10.325,15.655z"/>
	<path fill-rule="evenodd" fill="none" d="M11.746,10.74c0.138-0.004,0.258,0.108,0.266,0.248
		c0.007,0.152-0.104,0.273-0.253,0.276c-0.141,0.003-0.259-0.104-0.27-0.246C11.481,10.877,11.603,10.745,11.746,10.74z"/>
	<path fill-rule="evenodd" fill="none" d="M9.549,17.24c0.001,0.15-0.118,0.269-0.265,0.265
		c-0.137-0.003-0.256-0.124-0.258-0.26c-0.001-0.145,0.122-0.264,0.27-0.261C9.441,16.988,9.548,17.095,9.549,17.24z"/>
	<path fill-rule="evenodd" d="M8.979,7.014C8.854,5.958,8.581,4.948,8.013,4.037C7.364,2.996,6.421,2.285,5.338,1.754
		C4.44,1.313,3.496,1.045,2.478,1.138c-0.772,0.07-1.229,0.457-1.394,1.186C1.056,2.445,1.069,2.575,1.002,2.687
		c0,0.035,0,0.07,0,0.105c0.03,0.094,0.03,0.188,0,0.281c0,0.059,0,0.118,0,0.176C1.051,3.262,1.037,3.304,1.04,3.334
		C1.149,4.316,1.485,5.22,2.001,6.056C2.627,7.071,3.415,7.917,4.523,8.42c1.35,0.612,2.769,0.785,4.233,0.7
		c0.163-0.01,0.255-0.098,0.27-0.265C9.082,8.239,9.051,7.626,8.979,7.014z M2.947,1.649c1.106,0.05,2.091,0.456,3,1.062
		c0.219,0.146,0.42,0.316,0.63,0.475c0.06,0.045,0.087,0.097,0.087,0.177C6.662,4.341,6.663,5.319,6.663,6.297
		c0,0.016-0.006,0.031-0.016,0.082C6.569,6.296,6.508,6.229,6.444,6.165c-0.447-0.448-0.894-0.896-1.343-1.34
		c-0.069-0.068-0.095-0.135-0.094-0.23C5.012,4.103,5.01,3.611,5.009,3.119c0-0.218-0.099-0.335-0.272-0.331
		C4.571,2.793,4.483,2.906,4.482,3.119c-0.001,0.348,0,0.697,0,1.036C3.686,3.358,2.894,2.566,2.101,1.773
		C2.363,1.663,2.655,1.636,2.947,1.649z M1.84,4.494C1.623,3.838,1.483,3.174,1.598,2.479c0.01-0.058,0.023-0.114,0.04-0.171
		C1.65,2.266,1.669,2.225,1.682,2.193c0.79,0.793,1.58,1.586,2.374,2.383c-0.243,0-0.497,0-0.75,0c-0.433,0-0.866,0-1.299,0
		C1.938,4.576,1.873,4.593,1.84,4.494z M3.082,6.657C2.689,6.19,2.359,5.686,2.087,5.104c0.842,0,1.661,0,2.479-0.001
		c0.05,0,0.088,0.016,0.123,0.051c0.526,0.524,1.052,1.047,1.579,1.57c-0.048,0.058-0.098,0.034-0.14,0.034
		c-0.936,0.002-1.872,0-2.808,0.003C3.22,6.763,3.15,6.737,3.082,6.657z M3.754,7.288c0.044,0,0.088,0,0.133,0
		c0.931,0,1.861,0.001,2.792-0.002c0.101,0,0.172,0.028,0.244,0.102c0.36,0.368,0.727,0.729,1.09,1.095
		C8.049,8.517,8.1,8.542,8.112,8.619C6.534,8.58,5.032,8.318,3.754,7.288z M7.249,6.972c-0.046-0.046-0.06-0.094-0.06-0.156
		C7.191,5.838,7.19,4.86,7.191,3.881c0-0.015,0.006-0.03,0.017-0.078c1.021,1.313,1.274,2.823,1.281,4.412
		C8.076,7.8,7.664,7.385,7.249,6.972z"/>
	<path fill-rule="evenodd" d="M19,12.81c-0.056-0.02-0.031-0.069-0.037-0.105c-0.099-0.57-0.378-0.987-0.964-1.147
		c-0.175-0.048-0.354-0.078-0.536-0.086c-0.813-0.036-1.578,0.165-2.308,0.497c-1.073,0.487-2.018,1.153-2.653,2.165
		c-0.882,1.397-1.073,2.955-0.987,4.568c0.006,0.123,0.076,0.199,0.197,0.24c0.05,0.018,0.121-0.016,0.152,0.055
		c0.011,0,0.023,0,0.035,0c0.094-0.029,0.187-0.029,0.281,0c0.023,0,0.046,0,0.07,0c0.105-0.029,0.211-0.029,0.316,0
		c0.046,0,0.094,0,0.141,0c0.042-0.033,0.09-0.018,0.134-0.018c0.931-0.001,1.825-0.181,2.684-0.54
		c0.627-0.263,1.2-0.613,1.669-1.11c0.599-0.636,1.088-1.348,1.415-2.162c0.2-0.496,0.37-0.999,0.372-1.542
		c0.009-0.06-0.019-0.124,0.019-0.182C19,13.232,19,13.021,19,12.81z M15.842,12.257c0.675-0.214,1.355-0.367,2.064-0.176
		c0.016,0.004,0.03,0.018,0.026,0.016c-0.717,0.716-1.437,1.434-2.155,2.153c0-0.616,0.001-1.241,0-1.866
		C15.777,12.328,15.776,12.277,15.842,12.257z M13.749,13.637c0-0.102,0.024-0.172,0.105-0.24c0.419-0.35,0.868-0.648,1.396-0.897
		c0,0.781,0,1.53,0.001,2.279c0,0.052-0.023,0.087-0.058,0.122c-0.47,0.467-0.938,0.934-1.407,1.401
		c-0.001,0.002-0.011-0.002-0.02-0.004c-0.033-0.045-0.015-0.098-0.015-0.148C13.751,15.312,13.752,14.475,13.749,13.637z
		 M12.064,18.024c-0.006,0.006-0.021,0.005-0.048,0.012c0.037-1.432,0.282-2.794,1.163-3.968c0.015,0.005,0.028,0.008,0.044,0.013
		c0,0.899,0,1.799,0,2.699c0,0.055-0.011,0.101-0.052,0.142C12.803,17.289,12.434,17.657,12.064,18.024z M12.388,18.449
		c0.416-0.416,0.796-0.794,1.173-1.173c0.039-0.039,0.085-0.034,0.131-0.034c0.885,0,1.768,0,2.652,0.001
		c0.015,0,0.038-0.01,0.048,0.043C15.224,18.164,13.864,18.409,12.388,18.449z M17.906,15.337c-0.24,0.47-0.528,0.907-0.87,1.311
		c-0.049,0.056-0.1,0.068-0.167,0.068c-0.9-0.001-1.801-0.001-2.749-0.001c0.509-0.507,0.986-0.984,1.464-1.463
		c0.05-0.048,0.104-0.042,0.163-0.042c0.69,0,1.38,0.002,2.07-0.002C17.931,15.207,17.966,15.221,17.906,15.337z M18.216,14.586
		c-0.02,0.059-0.041,0.098-0.119,0.098c-0.632-0.003-1.264-0.002-1.915-0.002c0.735-0.734,1.451-1.449,2.175-2.173
		c0.079,0.176,0.103,0.369,0.11,0.562C18.488,13.593,18.376,14.094,18.216,14.586z"/>
	<path fill-rule="evenodd" d="M8.928,13.807c0.454-0.489,0.667-1.066,0.614-1.732c-0.025-0.326-0.092-0.648-0.169-0.966
		c-0.063-0.252-0.235-0.415-0.476-0.499c-0.097-0.035-0.204-0.048-0.308-0.066c-0.357-0.058-0.71-0.154-1.078-0.112
		c-0.478,0.054-0.902,0.231-1.267,0.548c-0.026,0.022-0.042,0.104-0.118,0.027c-0.367-0.372-0.638-0.364-0.985,0.022
		c-0.708,0.787-1.012,1.71-0.91,2.762c0.018,0.179-0.024,0.299-0.154,0.427c-0.835,0.822-1.658,1.655-2.489,2.481
		c-0.236,0.234-0.479,0.46-0.587,0.787c0,0.141,0,0.281,0,0.422c0.122,0.518,0.623,0.99,1.16,1.09c0.059,0,0.117,0,0.176,0
		c0.202-0.063,0.418-0.097,0.576-0.252c0.752-0.746,1.502-1.496,2.251-2.246c0.027-0.027,0.047-0.067,0.06-0.105
		c0.038-0.112,0.006-0.208-0.084-0.282c-0.091-0.074-0.194-0.083-0.293-0.021c-0.049,0.03-0.089,0.075-0.131,0.116
		c-0.638,0.637-1.285,1.266-1.909,1.917c-0.394,0.411-0.655,0.438-1.059-0.007c-0.286-0.316-0.297-0.535,0.008-0.84
		c0.965-0.965,1.929-1.931,2.896-2.894c0.114-0.114,0.16-0.229,0.131-0.391c-0.082-0.45-0.063-0.899,0.053-1.341
		c0.141-0.536,0.409-1,0.833-1.405c0.03,0.113,0.06,0.2,0.078,0.289c0.088,0.425,0.072,0.849-0.023,1.271
		c-0.029,0.129-0.019,0.248,0.104,0.326c0.119,0.076,0.233,0.051,0.339-0.034c0.027-0.022,0.055-0.044,0.083-0.065
		c0.375-0.273,0.794-0.451,1.27-0.582c-0.15,0.489-0.295,0.943-0.606,1.32c-0.091,0.111-0.16,0.22-0.079,0.363
		c0.087,0.153,0.227,0.142,0.371,0.111c0.394-0.086,0.79-0.096,1.186-0.025c0.105,0.019,0.264,0.012,0.292,0.105
		c0.023,0.082-0.122,0.153-0.202,0.218c-0.737,0.608-1.586,0.789-2.517,0.654c-0.223-0.033-0.349,0.045-0.372,0.212
		c-0.022,0.162,0.075,0.275,0.284,0.307c1.159,0.173,2.196-0.087,3.075-0.884C9.349,14.472,9.339,14.147,8.928,13.807z
		 M8.365,13.625c-0.039,0.036-0.079,0.038-0.127,0.038c-0.193-0.002-0.386-0.001-0.57-0.001c-0.044-0.065,0.001-0.103,0.019-0.141
		C7.815,13.25,7.913,12.97,8,12.686c0.069-0.221,0.036-0.418-0.126-0.583c-0.167-0.171-0.371-0.206-0.598-0.135
		c-0.307,0.096-0.604,0.213-0.892,0.356c-0.086-0.007-0.053-0.075-0.055-0.119c-0.011-0.139,0.013-0.279-0.014-0.417
		c-0.009-0.07-0.005-0.129,0.051-0.191c0.468-0.518,1.036-0.742,1.731-0.608c0.178,0.034,0.356,0.069,0.535,0.098
		c0.144,0.022,0.229,0.089,0.253,0.243c0.065,0.431,0.199,0.855,0.099,1.301C8.893,13.036,8.663,13.35,8.365,13.625z"/>
	<path fill-rule="evenodd" fill="none" d="M6.315,11.788c0.058,0.122,0.023,0.251,0.035,0.377
		c0.006,0.053-0.03,0.118,0.035,0.159c-0.07,0.057-0.073,0.01-0.072-0.045C6.314,12.115,6.314,11.951,6.315,11.788z"/>
	<path fill-rule="evenodd" d="M18.969,8.412c-0.47-0.93-0.981-1.82-2.018-2.224c1.038-0.394,1.532-1.29,2.016-2.197
		c0-0.096,0-0.191,0-0.287c-0.075-0.244-0.258-0.329-0.493-0.34C18.104,3.347,17.736,3.361,17.37,3.4
		c-0.599,0.063-1.176,0.196-1.641,0.619c-0.005,0.003-0.02-0.005-0.035-0.01c0.049-0.283,0.066-0.566,0.009-0.852
		c-0.143-0.71-0.486-1.332-0.863-1.937c-0.067-0.108-0.176-0.168-0.302-0.191c-0.061,0-0.12,0.001-0.181,0.001
		c-0.131,0.031-0.237,0.102-0.306,0.218c-0.502,0.859-1.033,1.711-0.837,2.801c-0.202-0.169-0.393-0.316-0.617-0.403
		c-0.73-0.283-1.496-0.317-2.265-0.268C9.999,3.401,9.809,3.746,9.968,4.042c0.478,0.885,0.966,1.768,2.022,2.157
		c-0.499,0.146-0.858,0.444-1.169,0.814C10.499,7.399,10.23,7.824,9.995,8.27c-0.197,0.377,0.014,0.736,0.438,0.744
		c0.375,0.007,0.75,0.008,1.123-0.035c0.594-0.07,1.166-0.195,1.624-0.621c0.005-0.004,0.02,0.002,0.035,0.005
		c-0.039,0.255-0.07,0.508-0.025,0.767c0.131,0.754,0.484,1.41,0.893,2.04c0.164,0.256,0.529,0.255,0.728,0.022
		c0.065-0.075,0.117-0.161,0.165-0.248c0.449-0.804,0.908-1.605,0.713-2.621c0.267,0.231,0.536,0.399,0.848,0.493
		c0.665,0.2,1.349,0.221,2.034,0.19c0.2-0.009,0.347-0.132,0.399-0.338C18.969,8.583,18.969,8.497,18.969,8.412z M18.1,4.413
		c-0.206,0.604-0.944,1.205-1.675,1.355c0.003-0.051,0.016-0.089,0.006-0.119c-0.082-0.264,0.09-0.357,0.282-0.462
		c0.426-0.232,0.841-0.481,1.261-0.722C18.013,4.442,18.046,4.403,18.1,4.413z M15.823,4.669c0.357-0.419,0.816-0.65,1.361-0.714
		c0.221-0.025,0.44-0.045,0.664-0.068c-0.015,0.073-0.074,0.081-0.117,0.106c-0.51,0.296-1.021,0.59-1.531,0.885
		c-0.1,0.058-0.355,0.006-0.425-0.082C15.722,4.726,15.793,4.703,15.823,4.669z M15.205,3.704
		c-0.004,0.042-0.007,0.082-0.014,0.122c-0.056,0.306-0.105,0.341-0.416,0.31c-0.062-0.006-0.059-0.038-0.059-0.079
		c-0.001-0.645-0.001-1.291-0.001-1.936C14.995,2.619,15.257,3.116,15.205,3.704z M13.745,3.146
		c0.089-0.363,0.237-0.701,0.444-1.018c0,0.636-0.002,1.272,0.001,1.908c0,0.089-0.023,0.102-0.108,0.093
		c-0.313-0.032-0.311-0.029-0.367-0.341C13.675,3.57,13.694,3.358,13.745,3.146z M11.306,3.912
		c0.687,0.035,1.314,0.199,1.785,0.752c0.088,0.103,0.064,0.124-0.038,0.18c-0.159,0.088-0.285,0.08-0.443-0.017
		c-0.498-0.304-1.009-0.588-1.514-0.88C11.151,3.852,11.234,3.915,11.306,3.912z M11.323,5.142
		c-0.193-0.223-0.375-0.454-0.525-0.706c0.01-0.011,0.02-0.022,0.03-0.032c0.133,0.076,0.268,0.151,0.399,0.229
		c0.385,0.222,0.77,0.442,1.153,0.667c0.047,0.028,0.138,0.031,0.11,0.128c-0.026,0.083-0.005,0.167-0.014,0.25
		c-0.003,0.037,0.005,0.085-0.061,0.074C11.985,5.67,11.614,5.478,11.323,5.142z M10.769,7.983c0.396-0.6,0.794-1.174,1.557-1.339
		c0.108-0.023,0.127-0.011,0.177,0.097c0.103,0.228-0.024,0.292-0.185,0.382c-0.479,0.268-0.949,0.546-1.424,0.819
		C10.86,7.96,10.834,7.997,10.769,7.983z M13.153,7.648c-0.461,0.559-1.068,0.788-1.772,0.81c-0.087,0.001-0.18,0.056-0.253-0.037
		c0.6-0.348,1.201-0.693,1.798-1.046c0.107-0.063,0.175-0.027,0.239,0.051C13.228,7.502,13.225,7.562,13.153,7.648z M14.181,10.255
		c-0.217-0.37-0.389-0.75-0.465-1.168c-0.06-0.329,0.02-0.637,0.104-0.948c0.016-0.055,0.039-0.072,0.096-0.07
		c0.086,0.002,0.172-0.008,0.266-0.014C14.181,8.787,14.181,9.521,14.181,10.255z M15.131,9.364
		c-0.096,0.313-0.223,0.611-0.415,0.893c0-0.71,0.001-1.42-0.001-2.13c0-0.071,0.018-0.082,0.09-0.072
		c0.278,0.036,0.275,0.032,0.346,0.307C15.236,8.699,15.233,9.032,15.131,9.364z M15.201,7.328
		c-0.078,0.22-0.187,0.263-0.406,0.165c-0.227-0.101-0.45-0.102-0.678,0c-0.224,0.1-0.329,0.055-0.415-0.18
		c-0.085-0.229-0.241-0.382-0.465-0.469c-0.243-0.095-0.282-0.181-0.181-0.41c0.101-0.227,0.099-0.453,0-0.68
		c-0.098-0.225-0.061-0.322,0.162-0.405c0.238-0.089,0.402-0.249,0.49-0.491c0.079-0.222,0.185-0.261,0.407-0.164
		c0.228,0.101,0.451,0.099,0.679-0.001c0.221-0.097,0.328-0.054,0.406,0.166c0.089,0.25,0.261,0.408,0.507,0.496
		c0.145,0.052,0.199,0.122,0.198,0.235c0.003,0.068-0.034,0.123-0.061,0.181c-0.094,0.221-0.098,0.44,0.007,0.662
		c0.104,0.22,0.061,0.323-0.161,0.405C15.452,6.926,15.287,7.085,15.201,7.328z M17.546,8.458c-0.711-0.017-1.325-0.245-1.789-0.81
		c-0.062-0.076-0.088-0.136-0.021-0.212c0.063-0.07,0.123-0.135,0.235-0.068c0.597,0.353,1.198,0.7,1.798,1.049
		C17.711,8.521,17.621,8.452,17.546,8.458z M16.416,7.018c-0.06-0.034-0.064-0.064-0.046-0.125c0.087-0.292,0.082-0.284,0.378-0.2
		c0.498,0.142,0.824,0.492,1.116,0.888c0.085,0.114,0.186,0.221,0.244,0.416C17.516,7.653,16.967,7.333,16.416,7.018z"/>
	<path fill-rule="evenodd" fill="none" d="M11.128,8.421c0.076,0.069,0.173-0.002,0.253,0.037
		c-0.108,0.04-0.22,0.028-0.336,0.003C11.072,8.448,11.099,8.435,11.128,8.421z"/>
	<path fill-rule="evenodd" fill="none" d="M12.417,5.752c0.095-0.092-0.018-0.231,0.074-0.325
		c0.001,0.096,0.001,0.191,0.004,0.287C12.498,5.79,12.47,5.794,12.417,5.752z"/>
	<path fill-rule="evenodd" fill="none" d="M17.546,8.458c0.07-0.034,0.158,0.026,0.224-0.041
		c0.029,0.014,0.06,0.027,0.139,0.063C17.753,8.489,17.649,8.493,17.546,8.458z"/>
	<path fill-rule="evenodd" fill="none" d="M11.306,3.912c-0.066,0.035-0.149-0.029-0.21,0.036
		c-0.025-0.016-0.104-0.033-0.025-0.06C11.14,3.864,11.23,3.871,11.306,3.912z"/>
	<path fill-rule="evenodd" d="M13.911,6.342c0.18-0.146,0.088-0.324,0.012-0.518c-0.035-0.088,0.042-0.19,0.145-0.235
		c0.105-0.048,0.212-0.038,0.291,0.046c0.072,0.078,0.115,0.078,0.194,0.003c0.112-0.108,0.26-0.099,0.36,0
		c0.103,0.101,0.118,0.247,0.007,0.36c-0.087,0.089-0.06,0.134,0.008,0.209c0.099,0.113,0.091,0.237-0.011,0.349
		c-0.093,0.103-0.251,0.115-0.359,0.008c-0.085-0.082-0.131-0.071-0.207,0.005c-0.081,0.083-0.191,0.086-0.294,0.037
		C13.966,6.563,13.925,6.479,13.911,6.342z"/>
</svg>
