<svg width="20" height="20" viewBox="0 0 20 20" xmlns="http://www.w3.org/2000/svg">
	<path fill-rule="evenodd" d="M14.959,4.549c-0.002,0.331-0.123,0.536-0.315,0.706c-0.083,0.074-0.174,0.139-0.258,0.213
		c-0.179,0.16-0.178,0.33,0.002,0.493c0.084,0.073,0.174,0.14,0.258,0.212c0.42,0.368,0.423,0.912,0.004,1.284
		c-0.073,0.067-0.153,0.127-0.229,0.19c-0.094,0.076-0.157,0.163-0.17,0.292c-0.016,0.168-0.128,0.252-0.286,0.238
		c-0.143-0.012-0.236-0.117-0.235-0.276c0.003-0.25,0.118-0.448,0.3-0.611c0.1-0.089,0.209-0.17,0.305-0.265
		c0.13-0.128,0.135-0.27,0.013-0.403c-0.075-0.081-0.165-0.149-0.251-0.22c-0.494-0.406-0.497-0.964-0.006-1.372
		c0.077-0.063,0.156-0.124,0.227-0.194c0.157-0.155,0.157-0.305,0-0.456c-0.086-0.08-0.18-0.15-0.268-0.228
		c-0.436-0.385-0.431-0.931,0.009-1.305c0.076-0.065,0.154-0.126,0.229-0.191c0.082-0.071,0.137-0.15,0.148-0.268
		c0.016-0.168,0.132-0.262,0.28-0.25c0.15,0.013,0.244,0.122,0.241,0.29c-0.004,0.245-0.113,0.439-0.291,0.597
		c-0.103,0.088-0.21,0.168-0.306,0.264c-0.142,0.141-0.143,0.289-0.001,0.431c0.099,0.099,0.213,0.183,0.318,0.276
		C14.86,4.16,14.961,4.364,14.959,4.549z"/>
	<path fill-rule="evenodd" d="M16.97,2.48c0,0.176-0.089,0.355-0.246,0.501c-0.105,0.1-0.225,0.188-0.331,0.289
		c-0.161,0.154-0.16,0.316,0.003,0.47c0.09,0.084,0.188,0.157,0.281,0.239c0.394,0.35,0.403,0.871,0.025,1.235
		c-0.093,0.088-0.198,0.165-0.295,0.251c-0.179,0.163-0.181,0.33-0.002,0.492c0.072,0.066,0.152,0.127,0.229,0.191
		c0.458,0.388,0.46,0.94,0.007,1.332c-0.065,0.057-0.133,0.114-0.202,0.167c-0.099,0.074-0.155,0.167-0.174,0.292
		c-0.027,0.18-0.139,0.261-0.302,0.237c-0.146-0.021-0.227-0.138-0.216-0.31c0.015-0.235,0.125-0.424,0.298-0.577
		c0.083-0.073,0.173-0.14,0.256-0.213c0.194-0.173,0.193-0.342-0.001-0.519c-0.084-0.075-0.174-0.141-0.256-0.215
		c-0.405-0.361-0.405-0.896-0.002-1.257c0.069-0.063,0.145-0.119,0.216-0.18c0.254-0.217,0.254-0.376,0.005-0.587
		c-0.063-0.053-0.128-0.104-0.19-0.157c-0.435-0.37-0.442-0.914-0.02-1.294c0.072-0.067,0.151-0.129,0.229-0.192
		c0.093-0.076,0.154-0.166,0.171-0.292c0.022-0.172,0.138-0.258,0.286-0.242C16.89,2.158,16.973,2.265,16.97,2.48z"/>
	<path fill-rule="evenodd" d="M18.316,10.381c-0.661,0.014-1.324,0.001-1.985,0.007c-0.111,0.001-0.156-0.023-0.146-0.142
		c0.012-0.122,0.008-0.246,0.001-0.369c-0.014-0.298-0.242-0.531-0.539-0.544c-0.164-0.007-0.329-0.006-0.492,0
		c-0.306,0.012-0.537,0.248-0.548,0.554c-0.005,0.117-0.01,0.235,0.002,0.352c0.013,0.129-0.038,0.151-0.155,0.15
		c-0.699-0.006-1.396-0.005-2.092-0.002c-0.327,0.001-0.563,0.227-0.566,0.543c-0.006,0.586-0.006,1.172,0,1.757
		c0.003,0.31,0.236,0.538,0.549,0.545c0.157,0.004,0.316,0.008,0.474-0.002c0.116-0.007,0.15,0.028,0.135,0.145
		c-0.092,0.661-0.411,1.162-1.046,1.398c-0.653,0.242-1.273,0.147-1.802-0.326c-0.456-0.409-0.554-0.955-0.53-1.538
		c0.004-0.089,0.064-0.066,0.111-0.066c0.246-0.001,0.492,0,0.738-0.001c0.524-0.001,0.837-0.316,0.838-0.845
		c0.001-1.594,0.001-3.188,0-4.78c0-0.533-0.305-0.84-0.837-0.842C9.863,6.374,9.3,6.369,8.738,6.378
		C8.593,6.381,8.564,6.334,8.567,6.201c0.008-0.427,0.006-0.855,0.001-1.283C8.566,4.802,8.597,4.705,8.654,4.605
		c0.47-0.815,0.933-1.634,1.4-2.45c0.083-0.146,0.145-0.294,0.13-0.465C10.158,1.324,9.938,1.118,9.613,1C8.945,1,8.277,1,7.609,1
		C7.446,1.067,7.381,1.159,7.398,1.297c0.017,0.139,0.128,0.246,0.284,0.27c0.064,0.01,0.128,0.007,0.193,0.007
		c0.451,0,0.901,0,1.353,0c0.411,0,0.455,0.075,0.25,0.434C9.099,2.669,8.704,3.321,8.352,3.995C8.2,4.286,8.021,4.401,7.695,4.372
		C7.503,4.355,7.387,4.304,7.294,4.133c-0.322-0.584-0.658-1.16-0.99-1.74C6.202,2.216,6.095,2.042,6.002,1.858
		C5.916,1.688,5.976,1.59,6.167,1.576C6.25,1.57,6.331,1.577,6.413,1.572C6.576,1.563,6.694,1.474,6.729,1.34
		C6.767,1.196,6.717,1.101,6.555,1C6.356,1,6.156,1,5.957,1C5.734,1.022,5.561,1.121,5.445,1.318
		c-0.168,0.285-0.151,0.565,0.01,0.848C5.91,2.964,6.367,3.762,6.823,4.559c0.073,0.127,0.105,0.255,0.104,0.4
		C6.923,5.329,6.926,5.697,6.926,6.066c0,0.26-0.002,0.262-0.266,0.262c-1.609,0-3.218,0-4.827,0C1.349,6.329,1.109,6.517,1,6.977
		c0,1.758,0,3.516,0,5.273c0.1,0.408,0.338,0.61,0.761,0.646c0.077,0.007,0.152,0.005,0.229,0.005c0.158,0,0.316,0.002,0.474,0
		c0.119-0.002,0.174,0.049,0.169,0.168c-0.002,0.058,0,0.117,0,0.176c0,1.593-0.001,3.187,0,4.78c0,0.558,0.229,0.849,0.756,0.975
		c4.558,0,9.116,0,13.676,0c0.132-0.038,0.273-0.032,0.393-0.13c0.229-0.19,0.377-0.42,0.39-0.718
		c0.021-0.475,0.017-0.949,0.003-1.424c-0.005-0.211-0.166-0.369-0.336-0.36c-0.174,0.009-0.282,0.147-0.29,0.375
		c-0.003,0.064-0.002,0.128-0.002,0.193c0,0.352,0.004,0.703-0.001,1.055c-0.005,0.308-0.124,0.425-0.429,0.428
		c-0.363,0.003-0.726,0.002-1.09,0c-0.222-0.001-0.235-0.014-0.269-0.231c-0.078-0.498-0.438-0.82-0.94-0.821
		c-2.999-0.003-5.999-0.002-8.999-0.001c-0.112,0-0.221,0.014-0.326,0.059c-0.343,0.148-0.565,0.39-0.607,0.773
		c-0.013,0.114-0.029,0.225-0.188,0.222c-0.258-0.003-0.516,0.008-0.773-0.004c-0.2-0.01-0.31-0.124-0.33-0.322
		c-0.005-0.052-0.003-0.105-0.003-0.158c0-1.587,0-3.176,0-4.763c0-0.268,0.004-0.271,0.277-0.271c1.699,0,3.399,0,5.097,0
		c0.379,0,0.344-0.022,0.356,0.352c0.025,0.793,0.366,1.429,1.03,1.858c1.415,0.915,3.244,0.067,3.495-1.607
		c0.032-0.214,0.032-0.215,0.253-0.216c0.907,0,1.816,0,2.724,0c0.176,0,0.352,0.004,0.527-0.001
		c0.145-0.005,0.205,0.056,0.195,0.198c-0.003,0.046,0,0.093,0,0.141c0,0.55,0,1.101,0,1.652c0,0.07-0.003,0.141,0.012,0.21
		c0.03,0.134,0.149,0.241,0.283,0.248c0.147,0.008,0.245-0.065,0.301-0.198c0.047-0.111,0.038-0.23,0.038-0.347
		c0.001-0.568,0.003-1.136-0.001-1.705c-0.001-0.141,0.048-0.206,0.194-0.198c0.116,0.006,0.234,0.004,0.352,0
		c0.342-0.011,0.519-0.152,0.598-0.474c0-0.668,0-1.336,0-2.004C18.879,10.496,18.652,10.374,18.316,10.381z M10.273,6.897
		c0.438,0.012,0.461,0.025,0.461,0.471c0,1.522,0,3.045,0,4.567c0,0.319-0.058,0.378-0.377,0.378c-0.035,0-0.071-0.005-0.105,0
		c-0.127,0.021-0.153-0.036-0.152-0.155c0.005-0.854,0.003-1.709,0.003-2.564c0-0.837,0.003-1.674-0.004-2.512
		C10.098,6.946,10.117,6.893,10.273,6.897z M2.009,12.317c-0.458-0.003-0.482-0.022-0.482-0.485c0-1.523,0-3.047,0-4.569
		c0-0.302,0.057-0.36,0.355-0.36c0.277,0,0.277,0,0.277,0.269c0,0.808,0,1.617,0,2.425c0,0.855-0.003,1.71,0.003,2.565
		C2.164,12.282,2.135,12.318,2.009,12.317z M5.131,18.289c0.028-0.226,0.155-0.342,0.405-0.343c0.843-0.001,1.687,0,2.53,0
		c2.126,0,4.252,0,6.379,0c0.285,0,0.415,0.127,0.426,0.395c0.006,0.109-0.028,0.137-0.135,0.135
		c-0.452-0.007-0.902-0.003-1.353-0.003c-1.131,0-2.262,0-3.393,0c-1.563,0-3.127-0.003-4.691,0.004
		C5.144,18.477,5.114,18.427,5.131,18.289z M7.56,4.948c0.146-0.01,0.292-0.008,0.438-0.003c0.056,0.002,0.045,0.059,0.045,0.098
		c0.001,0.409,0.001,0.818,0,1.228c0,0.039,0.012,0.097-0.042,0.1C7.854,6.377,7.708,6.377,7.562,6.369
		C7.495,6.366,7.517,6.298,7.517,6.256C7.514,6.051,7.515,5.847,7.515,5.642c0-0.193-0.001-0.386,0.001-0.579
		C7.517,5.021,7.493,4.952,7.56,4.948z M9.393,12.317c-2.18-0.004-4.359-0.004-6.538,0c-0.141,0-0.171-0.039-0.171-0.173
		c0.005-1.693,0.006-3.386,0-5.079c0-0.146,0.049-0.166,0.176-0.165c1.09,0.004,2.18,0.002,3.27,0.002
		c1.095,0,2.19,0.002,3.286-0.003c0.131-0.001,0.165,0.029,0.165,0.162c-0.006,1.693-0.007,3.386,0,5.08
		C9.58,12.293,9.532,12.317,9.393,12.317z M15.447,9.858c0.213,0,0.213,0,0.213,0.34c0,0.187,0,0.187-0.271,0.187
		c-0.256,0-0.256,0-0.256-0.307C15.133,9.858,15.133,9.858,15.447,9.858z M18.294,12.703c-0.89-0.003-1.781,0.002-2.671,0.005
		c-0.082,0-0.165,0-0.246,0c0-0.001,0-0.001,0-0.002c-0.961,0-1.923-0.003-2.883,0.004c-0.151,0.001-0.181-0.043-0.178-0.184
		c0.01-0.487,0.009-0.974,0.001-1.459c-0.002-0.117,0.033-0.149,0.146-0.15c1.957-0.013,3.913-0.011,5.87,0.001
		c0.122,0,0.143,0.046,0.142,0.154c-0.006,0.48-0.009,0.961,0.001,1.441C18.479,12.655,18.444,12.704,18.294,12.703z"/>
	<path fill-rule="evenodd" d="M8.041,14.37c-0.007-0.398-0.278-0.668-0.68-0.671c-0.796-0.004-1.593-0.004-2.388,0
		C4.571,13.702,4.3,13.966,4.29,14.368c-0.009,0.374-0.01,0.75,0,1.124c0.01,0.401,0.285,0.658,0.688,0.661
		c0.393,0.002,0.785,0,1.176,0c0.404,0,0.808,0.003,1.212-0.001c0.391-0.003,0.665-0.267,0.672-0.657
		C8.048,15.12,8.047,14.745,8.041,14.37z M7.314,15.627c-0.386-0.006-0.773-0.002-1.16-0.002c-0.38,0-0.761-0.004-1.141,0.002
		c-0.145,0.002-0.201-0.058-0.2-0.198c0.003-0.333,0.004-0.667,0-1.001c-0.001-0.137,0.05-0.206,0.196-0.205
		c0.772,0.002,1.545,0.002,2.317,0c0.131,0,0.191,0.056,0.19,0.191c-0.004,0.339-0.005,0.678,0,1.019
		C7.518,15.579,7.455,15.629,7.314,15.627z"/>
</svg>
