<svg width="20" height="20" viewBox="0 0 20 20" xmlns="http://www.w3.org/2000/svg">
	<path fill-rule="evenodd" fill="none" d="M14.09,6.253c0.037,0.044,0.051,0.103,0.021,0.146
		c-0.013,0.018-0.055-0.027-0.066-0.061C14.085,6.323,14.074,6.281,14.09,6.253z"/>
	<path fill-rule="evenodd" d="M18.987,4.496C18.929,3.5,18.596,2.585,18.12,1.717c-0.078-0.142-0.191-0.197-0.359-0.151
		c-0.856,0.232-1.657,0.582-2.365,1.124c-0.637,0.487-1.111,1.091-1.298,1.889c-0.132,0.557-0.097,1.116-0.008,1.675
		c0.01,0.042,0.043,0.096-0.046,0.085c-0.097-0.097-0.196-0.192-0.29-0.29c-0.32-0.335-0.769-0.541-1.043-0.9
		c-0.279-0.367-0.472-0.805-0.743-1.187c-0.147-0.208-0.303-0.413-0.464-0.611c-0.101-0.123-0.25-0.13-0.364-0.032
		c-0.115,0.102-0.133,0.221-0.048,0.35c0.034,0.053,0.077,0.099,0.113,0.148c0.313,0.403,0.598,0.823,0.861,1.293
		c-0.793-0.156-1.558-0.308-2.322-0.453c-0.09-0.017-0.121-0.079-0.163-0.137C8.885,3.573,8.191,2.627,7.499,1.68
		C7.468,1.638,7.414,1.604,7.425,1.539c0.47-0.011,1.029,0.123,1.535,0.362c0.416,0.196,0.786,0.457,1.14,0.746
		c0.139,0.112,0.279,0.093,0.38-0.031c0.1-0.125,0.084-0.259-0.05-0.377c-0.075-0.066-0.155-0.127-0.233-0.189
		C9.124,1.218,7.925,0.837,6.569,1.065C4.905,1.346,3.523,2.194,2.262,3.27c-0.12,0.102-0.14,0.23-0.067,0.371
		C2.788,4.795,3.524,5.84,4.516,6.69c0.114,0.097,0.081,0.132-0.01,0.215c-1.565,1.439-2.277,3.221-2.002,5.331
		c0.298,2.293,1.571,3.898,3.669,4.854c0.194,0.088,0.329,0.049,0.399-0.102c0.075-0.16,0.013-0.293-0.185-0.38
		c-0.338-0.148-0.662-0.32-0.97-0.523c-0.083-0.055-0.115-0.109-0.101-0.212c0.075-0.561,0.002-1.115-0.282-1.595
		c-0.221-0.374-0.186-0.683,0.005-1.024c0.051-0.092,0.09-0.192,0.136-0.287c0.144-0.297,0.292-0.592,0.375-0.914
		c0.102-0.397-0.04-0.725-0.405-0.907c-0.149-0.075-0.308-0.141-0.47-0.178c-0.279-0.064-0.452-0.229-0.584-0.476
		C3.899,10.13,3.729,9.753,3.484,9.421c-0.066-0.09-0.064-0.154-0.02-0.25c0.35-0.753,0.84-1.397,1.468-1.941
		C5.03,7.145,5.098,7.129,5.214,7.207c0.513,0.342,1.076,0.57,1.684,0.688c0.116,0.022,0.241,0.009,0.36,0.072
		C6.871,8.285,6.555,8.64,6.393,9.11c-0.396,1.144,0.378,2.215,1.582,2.192c0.382-0.008,0.756-0.08,1.134-0.129
		c0.459-0.06,0.508-0.016,0.551,0.456c0.001,0.012,0.001,0.025,0.002,0.037c0.062,0.554,0.03,1.111,0.033,1.667
		c0.004,0.332,0.02,0.662,0.082,0.988c0.123,0.663,0.572,1.019,1.145,0.842c0.906-0.28,1.48-0.911,1.741-1.822
		c0.094-0.332-0.029-0.656-0.061-0.983c-0.043-0.438-0.089-0.878,0.223-1.251c0.311-0.37,0.719-0.602,1.144-0.838
		c0.143,0.649,0.166,1.282,0.085,1.919c-0.28,2.217-1.884,4.062-4.039,4.648c-0.671,0.183-1.352,0.233-2.041,0.175
		c-0.165-0.014-0.286,0.03-0.329,0.201c-0.045,0.182,0.073,0.31,0.307,0.327c0.601,0.044,1.196,0.017,1.791-0.097
		c2.594-0.499,4.646-2.736,4.856-5.375c0.188-2.342-0.704-4.21-2.597-5.603c-0.041-0.032-0.103-0.045-0.116-0.105
		c0.193-0.151,0.394-0.292,0.573-0.456c0.114-0.104,0.185-0.105,0.31-0.01c2.311,1.752,3.304,4.768,2.479,7.559
		c-1.284,4.357-6.339,6.355-10.258,4.057c-2.469-1.448-3.809-4.275-3.366-7.103c0.033-0.207-0.036-0.329-0.2-0.358
		c-0.182-0.033-0.282,0.052-0.318,0.27c-0.144,0.873-0.127,1.743,0.046,2.608c0.799,3.992,4.591,6.691,8.712,5.955
		c4.732-0.846,7.451-5.826,5.638-10.258c-0.049-0.12-0.046-0.158,0.088-0.202c0.788-0.254,1.526-0.609,2.171-1.142
		C18.631,6.554,19.053,5.63,18.987,4.496z M3.625,10.733c0.196,0.392,0.486,0.655,0.924,0.746c0.114,0.023,0.222,0.08,0.332,0.123
		c0.166,0.064,0.205,0.187,0.156,0.348c-0.086,0.281-0.216,0.543-0.342,0.807c-0.125,0.258-0.253,0.514-0.332,0.792
		c-0.073,0.259-0.059,0.5,0.089,0.735c0.245,0.389,0.352,0.821,0.362,1.301c-1.506-1.271-2.23-3.62-1.622-5.649
		C3.343,10.211,3.492,10.468,3.625,10.733z M5.451,1.909C5.832,1.767,6.22,1.657,6.62,1.584c0.083-0.016,0.147-0.014,0.208,0.07
		C7.507,2.587,8.19,3.517,8.903,4.491C8.286,4.371,7.713,4.25,7.137,4.153C6.916,4.117,6.775,4.019,6.647,3.837
		c-0.41-0.582-0.834-1.153-1.262-1.722C5.291,1.99,5.314,1.959,5.451,1.909z M4.553,2.322c0.241-0.129,0.242-0.127,0.4,0.088
		C5.282,2.859,5.61,3.307,5.938,3.754C5.979,3.808,6.017,3.863,6.07,3.94C5.041,3.738,4.039,3.544,3.004,3.342
		C3.507,2.938,4.016,2.608,4.553,2.322z M4.329,5.662C4.268,5.706,4.236,5.695,4.191,5.644C3.708,5.102,3.287,4.518,2.928,3.881
		c0.223,0.017,2.865,0.534,3.018,0.594C5.401,4.874,4.863,5.266,4.329,5.662z M5.927,7.018C5.452,6.773,5.028,6.462,4.634,6.09
		c0.661-0.485,1.315-0.964,1.969-1.444C6.653,4.608,6.701,4.6,6.759,4.611c0.673,0.131,1.346,0.263,2.02,0.395
		C8.794,5.01,8.808,5.023,8.832,5.04C8.209,5.498,7.591,5.952,6.973,6.405C6.707,6.601,6.437,6.792,6.174,6.992
		C6.09,7.057,6.026,7.069,5.927,7.018z M13.779,9.595c0.045,0.116,0.024,0.173-0.087,0.228c-0.236,0.115-0.451,0.264-0.673,0.405
		c-0.8,0.514-1.098,1.242-0.945,2.169c0.031,0.191,0.058,0.383,0.087,0.574c0.021,0.14-0.006,0.274-0.055,0.403
		c-0.212,0.557-0.585,0.969-1.126,1.217c-0.393,0.181-0.602,0.065-0.684-0.358c-0.094-0.476-0.071-0.958-0.075-1.438
		c-0.001-0.481,0.019-0.962-0.071-1.438c-0.025-0.129-0.062-0.255-0.122-0.372c-0.139-0.271-0.353-0.417-0.666-0.379
		c-0.31,0.038-0.618,0.087-0.927,0.127c-0.142,0.019-0.285,0.033-0.428,0.038c-0.908,0.039-1.448-0.777-1.068-1.61
		c0.161-0.35,0.425-0.614,0.728-0.84c0.17-0.126,0.347-0.243,0.518-0.37c0.078-0.058,0.168-0.044,0.251-0.057
		c1.007-0.167,1.92-0.57,2.778-1.106c0.123-0.076,0.208-0.083,0.331,0C12.594,7.483,13.339,8.416,13.779,9.595z M8.385,7.368
		C7.837,7.468,7.151,7.444,6.68,7.3c0.008-0.05,0.054-0.065,0.088-0.09C7.658,6.556,8.548,5.903,9.44,5.25
		C9.5,5.207,9.552,5.154,9.64,5.172c0.764,0.151,1.529,0.299,2.333,0.456C10.865,6.462,9.728,7.123,8.385,7.368z M15.491,3.294
		c0.548-0.483,1.186-0.807,1.915-1.068c-0.418,0.999-0.818,1.953-1.231,2.942c-0.248-0.602-0.479-1.167-0.716-1.73
		C15.433,3.373,15.441,3.337,15.491,3.294z M15.133,7.659c-0.65-1.251-0.876-2.918-0.092-3.852c0.272,0.657,0.54,1.302,0.804,1.946
		c0.02,0.05,0.049,0.094,0.02,0.159C15.619,6.489,15.379,7.069,15.133,7.659z M17.701,6.61c-0.574,0.585-1.281,0.95-2.077,1.243
		c0.227-0.544,0.451-1.047,0.644-1.562c0.093-0.249,0.238-0.389,0.485-0.481c0.558-0.209,1.105-0.449,1.683-0.686
		C18.358,5.724,18.101,6.203,17.701,6.61z M18.379,4.577c-0.547,0.222-1.091,0.449-1.673,0.69c0.401-0.96,0.788-1.885,1.186-2.837
		c0.304,0.661,0.505,1.311,0.563,2.002C18.462,4.501,18.455,4.546,18.379,4.577z"/>
</svg>
