<svg width="20" height="20" viewBox="0 0 20 20" xmlns="http://www.w3.org/2000/svg">
	<path fill-rule="evenodd" fill="none" d="M11.784,1.03c0.001-0.01,0.004-0.02,0.009-0.03c0.06,0,0.116,0,0.176,0
		C11.914,1.051,11.85,1.04,11.784,1.03z"/>
	<path fill-rule="evenodd" fill="none" d="M1.031,7.403C1.021,7.4,1.011,7.398,1,7.398C1,7.34,1,7.281,1,7.223
		C1.046,7.277,1.044,7.339,1.031,7.403z"/>
	<path fill-rule="evenodd" fill="none" d="M8.217,18.971c0,0.011-0.004,0.021-0.01,0.029c-0.058,0-0.118,0-0.176,0
		C8.087,18.948,8.151,18.96,8.217,18.971z"/>
	<path fill-rule="evenodd" d="M18.637,7.165c-1.938-1.931-3.871-3.864-5.801-5.8C12.639,1.166,12.43,1.019,12.145,1
		c-0.06,0-0.116,0-0.176,0c-0.057,0.037-0.119,0.01-0.18,0.018c-0.171-0.008-0.321,0.048-0.454,0.156
		c-0.117,0.096-0.236,0.191-0.344,0.299c-0.864,0.867-1.733,1.731-2.595,2.6C8.292,4.177,8.215,4.196,8.08,4.116
		C7.672,3.872,7.239,3.843,6.801,4.035c-0.124,0.054-0.227,0.053-0.35,0C5.993,3.837,5.546,3.872,5.126,4.145
		C4.782,4.37,4.558,4.685,4.5,5.098c-0.024,0.167-0.081,0.266-0.264,0.28C4.096,5.389,3.964,5.45,3.844,5.525
		C3.726,5.599,3.625,5.593,3.501,5.527C3.196,5.364,2.869,5.285,2.519,5.329C1.803,5.42,1.11,5.943,1,6.801
		c0,0.141,0,0.281,0,0.422c0.037,0.054,0.01,0.115,0.018,0.171C1.013,7.646,1.092,7.877,1.199,8.1
		C1.505,8.733,1.97,9.238,2.505,9.684c0.152,0.127,0.152,0.127,0.018,0.263C2.155,10.314,1.784,10.68,1.42,11.05
		C1.224,11.251,1.037,11.461,1,11.758c0,0.141,0,0.281,0,0.422c0.032,0.276,0.185,0.478,0.377,0.669
		c1.94,1.934,3.878,3.871,5.813,5.812C7.369,18.841,7.565,18.969,7.82,19c0.07,0,0.141,0,0.211,0
		c0.054-0.037,0.114-0.01,0.171-0.018c0.294,0.022,0.495-0.151,0.684-0.338c1.11-1.108,2.22-2.22,3.33-3.33
		c0.166-0.167,0.177-0.167,0.359-0.021c0.275,0.217,0.429,0.212,0.674-0.03c0.334-0.329,0.668-0.658,0.994-0.995
		c0.268-0.278,0.396-0.612,0.291-0.995c-0.05-0.183,0.008-0.29,0.131-0.413c1.312-1.305,2.62-2.614,3.927-3.924
		C18.788,8.741,18.965,8.533,19,8.242c0-0.128,0-0.258,0-0.387C18.981,7.57,18.833,7.361,18.637,7.165z M8.576,6.949
		C8.86,6.671,9.142,6.39,9.419,6.105c0.059-0.059,0.093-0.062,0.15-0.002c0.472,0.473,0.944,0.941,1.428,1.423
		c-0.316,0.313-0.625,0.615-0.931,0.921C10.006,8.51,9.972,8.499,9.914,8.441C9.47,7.992,9.023,7.545,8.574,7.102
		C8.511,7.041,8.518,7.007,8.576,6.949z M5.221,5.338c0.014-0.273,0.132-0.485,0.381-0.606c0.249-0.119,0.49-0.09,0.709,0.08
		c0.287,0.224,0.345,0.223,0.638-0.003c0.22-0.17,0.462-0.198,0.708-0.073c0.251,0.127,0.376,0.341,0.378,0.598
		C8.03,5.566,7.961,5.75,7.861,5.926C7.596,6.392,7.228,6.764,6.775,7.051c-0.181,0.114-0.402,0.01-0.438-0.199
		C6.23,6.231,5.9,5.776,5.325,5.511C5.237,5.47,5.216,5.422,5.221,5.338z M1.927,7.883C1.751,7.566,1.653,7.227,1.734,6.856
		C1.892,6.137,2.741,5.83,3.319,6.284C3.342,6.302,3.364,6.322,3.386,6.34c0.222,0.191,0.362,0.191,0.583-0.002
		c0.479-0.417,1.154-0.342,1.5,0.169c0.117,0.173,0.173,0.368,0.174,0.596c0.001,0.264-0.074,0.51-0.197,0.738
		C5.064,8.55,4.501,9.082,3.819,9.497C3.716,9.56,3.628,9.556,3.527,9.495C2.86,9.09,2.308,8.569,1.927,7.883z M11.581,14.885
		c-1.092,1.087-2.18,2.177-3.27,3.267c-0.198,0.197-0.382,0.198-0.579,0.001c-1.96-1.958-3.919-3.917-5.878-5.877
		c-0.203-0.203-0.2-0.386,0.003-0.592c0.464-0.465,0.929-0.927,1.39-1.393c0.068-0.068,0.125-0.108,0.226-0.055
		c0.144,0.076,0.291,0.051,0.439-0.012c0.554-0.238,1-0.623,1.417-1.046c0.099-0.1,0.187-0.21,0.28-0.315
		C5.639,8.829,5.663,8.78,5.722,8.825c0.195,0.144,0.432,0.201,0.677,0.308c-0.609,0.607-1.202,1.198-1.793,1.79
		c-0.336,0.335-0.672,0.67-1.007,1.006c-0.204,0.206-0.206,0.392-0.005,0.593c0.633,0.635,1.267,1.269,1.902,1.901
		c0.198,0.197,0.38,0.197,0.579,0.001c0.275-0.271,0.548-0.545,0.819-0.819c0.181-0.184,0.191-0.392,0.033-0.542
		c-0.153-0.145-0.351-0.13-0.529,0.044c-0.181,0.176-0.359,0.354-0.533,0.535c-0.058,0.061-0.094,0.066-0.154,0.005
		c-0.45-0.454-0.9-0.906-1.355-1.354c-0.077-0.076-0.02-0.105,0.024-0.148c0.343-0.344,0.688-0.688,1.031-1.032
		c0.489-0.488,0.976-0.977,1.468-1.47C6.946,9.7,6.955,9.777,6.978,9.845c0.205,0.583,0.592,0.987,1.181,1.183
		c0.408,0.135,0.68,0.394,0.812,0.804c0.036,0.11,0.074,0.226,0.137,0.32c0.077,0.113,0.063,0.177-0.035,0.273
		c-0.825,0.815-1.643,1.638-2.462,2.458c-0.042,0.042-0.086,0.082-0.119,0.13c-0.099,0.141-0.079,0.33,0.042,0.449
		c0.122,0.118,0.311,0.132,0.45,0.03c0.047-0.034,0.087-0.077,0.129-0.118c0.82-0.82,1.642-1.64,2.458-2.462
		c0.081-0.081,0.132-0.111,0.246-0.042c0.164,0.098,0.351,0.157,0.532,0.233c-0.011,0.069-0.072,0.1-0.113,0.143
		c-0.878,0.879-1.756,1.757-2.634,2.635c-0.067,0.066-0.141,0.128-0.164,0.223c-0.037,0.157,0,0.294,0.136,0.388
		c0.127,0.087,0.265,0.087,0.395,0.001c0.053-0.035,0.098-0.083,0.144-0.128c0.87-0.87,1.739-1.739,2.608-2.61
		c0.045-0.045,0.08-0.101,0.123-0.154c0.077,0.081,0.089,0.157,0.113,0.227c0.12,0.353,0.32,0.65,0.616,0.877
		C11.669,14.777,11.656,14.811,11.581,14.885z M13.708,13.75c-0.253,0.254-0.506,0.504-0.756,0.76
		c-0.055,0.056-0.096,0.069-0.163,0.022c-0.135-0.094-0.292-0.144-0.445-0.198c-0.349-0.122-0.594-0.353-0.707-0.703
		c-0.211-0.647-0.632-1.075-1.281-1.286c-0.356-0.116-0.595-0.36-0.713-0.718c-0.206-0.634-0.623-1.058-1.257-1.263
		c-0.366-0.12-0.613-0.362-0.731-0.724C7.447,9.004,7.033,8.585,6.397,8.376c-0.349-0.115-0.34-0.122-0.216-0.458
		c0.05-0.136,0.091-0.208,0.247-0.114C6.561,7.885,6.705,7.86,6.849,7.799C7.125,7.68,7.373,7.515,7.596,7.315
		C7.691,7.23,7.735,7.251,7.814,7.33c1.446,1.452,2.897,2.9,4.346,4.35c0.502,0.501,1.001,1.003,1.505,1.502
		c0.085,0.085,0.153,0.175,0.158,0.312C13.82,13.587,13.782,13.677,13.708,13.75z M11.558,9.933
		c0.288-0.283,0.575-0.568,0.857-0.856c0.058-0.06,0.088-0.04,0.135,0.007c0.448,0.452,0.901,0.903,1.352,1.353
		c0.035,0.036,0.08,0.063,0.018,0.123c-0.296,0.291-0.588,0.586-0.883,0.879c-0.016,0.016-0.034,0.031-0.048,0.042
		c-0.047,0-0.064-0.035-0.088-0.057c-0.448-0.446-0.893-0.894-1.343-1.338C11.496,10.024,11.5,9.99,11.558,9.933z M18.105,8.358
		c-1.338,1.338-2.678,2.674-4.012,4.016c-0.106,0.108-0.163,0.104-0.253-0.006c-0.108-0.13-0.323-0.243-0.327-0.369
		c-0.005-0.143,0.214-0.253,0.335-0.377c0.271-0.276,0.547-0.546,0.818-0.821c0.206-0.208,0.207-0.384,0-0.591
		c-0.633-0.635-1.266-1.269-1.9-1.901c-0.199-0.198-0.376-0.195-0.578,0.005c-0.37,0.367-0.74,0.734-1.105,1.107
		c-0.075,0.078-0.118,0.083-0.19,0c-0.095-0.111-0.199-0.214-0.31-0.311c-0.082-0.071-0.082-0.114-0.002-0.191
		c0.365-0.356,0.724-0.718,1.082-1.079c0.234-0.235,0.236-0.398,0.005-0.63c-0.623-0.625-1.25-1.251-1.876-1.875
		c-0.205-0.205-0.384-0.205-0.591,0C9.033,5.499,8.868,5.665,8.702,5.83C8.698,5.833,8.691,5.834,8.664,5.845
		c0.08-0.305,0.103-0.599,0.008-0.893C8.651,4.889,8.687,4.855,8.725,4.818c1-0.999,1.996-1.998,2.996-2.995
		c0.16-0.16,0.348-0.158,0.516-0.009c0.03,0.027,0.058,0.058,0.088,0.086c1.925,1.926,3.853,3.852,5.777,5.778
		C18.367,7.944,18.368,8.095,18.105,8.358z"/>
	<path fill-rule="evenodd" fill="none" d="M8.152,12.19C8.157,12.386,8,12.549,7.804,12.549c-0.19,0-0.343-0.151-0.348-0.341
		c-0.005-0.199,0.149-0.357,0.348-0.357C7.994,11.851,8.147,12,8.152,12.19z"/>
	<path fill-rule="evenodd" d="M17.192,7.767c-0.654-0.662-1.313-1.32-1.974-1.974c-0.162-0.161-0.352-0.156-0.515,0.005
		c-0.491,0.485-0.977,0.976-1.465,1.464c-0.073,0.073-0.119,0.158-0.114,0.264c-0.005,0.108,0.047,0.192,0.118,0.264
		c0.65,0.649,1.3,1.3,1.951,1.949c0.169,0.168,0.359,0.172,0.527,0.007c0.491-0.486,0.979-0.974,1.464-1.465
		C17.346,8.119,17.352,7.928,17.192,7.767z M16.381,8.099c-0.284,0.279-0.565,0.56-0.843,0.844c-0.059,0.06-0.091,0.061-0.15,0.002
		c-0.469-0.472-0.942-0.942-1.424-1.421c0.315-0.312,0.622-0.614,0.926-0.921c0.062-0.063,0.096-0.052,0.153,0.005
		c0.444,0.449,0.89,0.896,1.34,1.34C16.445,8.009,16.439,8.042,16.381,8.099z"/>
	<path fill-rule="evenodd" d="M14.188,4.761c-0.64-0.644-1.28-1.285-1.925-1.924c-0.188-0.188-0.376-0.187-0.566,0.002
		c-0.476,0.474-0.952,0.95-1.426,1.427c-0.182,0.183-0.182,0.369,0.001,0.553c0.645,0.647,1.29,1.292,1.936,1.937
		c0.072,0.073,0.155,0.125,0.264,0.121c0.113,0.009,0.201-0.044,0.279-0.121c0.479-0.479,0.962-0.958,1.439-1.44
		C14.371,5.13,14.37,4.944,14.188,4.761z M13.393,5.118c-0.28,0.281-0.564,0.561-0.841,0.845c-0.063,0.064-0.093,0.052-0.148-0.003
		c-0.443-0.449-0.89-0.896-1.34-1.339c-0.066-0.066-0.058-0.102,0.004-0.162c0.279-0.274,0.557-0.552,0.832-0.83
		c0.05-0.05,0.082-0.083,0.151-0.014c0.448,0.453,0.899,0.902,1.351,1.354c0.019,0.019,0.036,0.042,0.062,0.069
		C13.437,5.066,13.417,5.094,13.393,5.118z"/>
</svg>
