<svg width="20" height="20" viewBox="0 0 20 20" xmlns="http://www.w3.org/2000/svg">
	<path fill-rule="evenodd" d="M19.371,6.329c-0.338-0.791-0.65-1.591-0.992-2.379c-0.14-0.318-0.223-0.636-0.198-0.986
		c0.017-0.234,0.003-0.469,0.003-0.705c0-0.443,0-0.443-0.436-0.443c-5.165,0-10.327,0-15.489,0c-0.049,0-0.099,0-0.148,0
		C1.857,1.82,1.82,1.854,1.817,2.107C1.813,2.471,1.815,2.835,1.816,3.201C1.817,3.338,1.8,3.471,1.745,3.599
		c-0.18,0.414-0.349,0.833-0.511,1.255C0.988,5.491,0.668,6.102,0.5,6.771c0,0.235,0,0.47,0,0.705
		c0.059,0.644,0.372,1.146,0.884,1.519c0.191,0.139,0.249,0.285,0.249,0.509c-0.006,2.752-0.004,5.503-0.004,8.255
		c0,0.419,0.007,0.427,0.423,0.427c5.299,0,10.598,0,15.898,0c0.415,0,0.422-0.008,0.422-0.427c0.001-2.733,0.001-5.466,0.001-8.2
		c0-0.074,0.002-0.148,0-0.223c-0.002-0.115,0.045-0.198,0.142-0.261c0.165-0.111,0.316-0.236,0.449-0.387
		c0.307-0.349,0.5-0.745,0.537-1.212c0-0.223,0-0.445,0-0.668C19.469,6.645,19.437,6.483,19.371,6.329z M17.662,4.38
		c0.296,0.742,0.601,1.48,0.915,2.251c-0.809,0-1.593,0.001-2.376,0c-0.172,0-0.389,0.053-0.504-0.03
		c-0.119-0.086-0.077-0.318-0.102-0.489c-0.096-0.604-0.184-1.208-0.277-1.828c0.349,0,0.687,0,1.025,0
		c0.381,0,0.767,0,1.148-0.001C17.57,4.283,17.625,4.288,17.662,4.38z M2.647,3.286c0.016-0.167,0.007-0.334,0.002-0.501
		C2.647,2.706,2.667,2.667,2.751,2.678c0.037,0.005,0.074,0.001,0.111,0.001c4.748,0,9.499,0.001,14.248-0.004
		c0.171,0,0.242,0.032,0.223,0.218c-0.02,0.184,0.063,0.437-0.029,0.539c-0.106,0.117-0.36,0.035-0.551,0.036
		c-2.257,0.002-4.515,0.001-6.771,0.001c-2.38,0-4.761-0.002-7.142,0.003C2.691,3.471,2.631,3.445,2.647,3.286z M12.397,7.429
		c0.394,0,0.79,0,1.186,0c0.407,0,0.815,0,1.223,0c0.188,0,0.29,0.167,0.189,0.329c-0.511,0.819-1.259,1.03-1.989,0.721
		c-0.359-0.152-0.586-0.447-0.785-0.762C12.107,7.536,12.187,7.429,12.397,7.429z M12.145,6.5c-0.029-0.685-0.064-1.37-0.105-2.055
		c-0.006-0.126,0.019-0.167,0.154-0.165c0.73,0.007,1.458,0.006,2.188,0.001c0.106,0,0.144,0.023,0.159,0.136
		c0.099,0.696,0.205,1.392,0.315,2.087c0.019,0.121-0.031,0.13-0.128,0.128c-0.407-0.004-0.815-0.002-1.224-0.002
		c-0.401,0-0.803-0.002-1.205,0.002C12.197,6.635,12.147,6.626,12.145,6.5z M8.783,7.429c0.81,0,1.618,0,2.429,0
		c0.185,0,0.265,0.137,0.178,0.31C11.143,8.245,10.553,8.616,10,8.612C9.351,8.614,8.935,8.243,8.611,7.735
		C8.508,7.573,8.599,7.429,8.783,7.429z M8.64,6.501c0.04-0.684,0.074-1.369,0.102-2.055C8.747,4.323,8.775,4.279,8.909,4.28
		c0.728,0.007,1.458,0.007,2.187,0c0.122-0.001,0.158,0.035,0.16,0.153c0.027,0.691,0.058,1.382,0.098,2.073
		c0.007,0.124-0.047,0.126-0.137,0.126C10.81,6.63,10.401,6.631,9.994,6.631c-0.408,0-0.814-0.002-1.223,0.002
		C8.67,6.635,8.633,6.615,8.64,6.501z M7.714,6.632C7.306,6.63,6.899,6.631,6.491,6.631S5.676,6.63,5.268,6.632
		c-0.082,0-0.139,0.004-0.121-0.115c0.109-0.694,0.213-1.39,0.311-2.086c0.016-0.112,0.046-0.151,0.166-0.15
		c0.729,0.007,1.458,0.007,2.186,0C7.926,4.28,7.968,4.303,7.96,4.43C7.918,5.126,7.881,5.824,7.852,6.521
		C7.848,6.635,7.794,6.632,7.714,6.632z M7.766,7.741c-0.707,1.204-2,1.047-2.565,0.276C5.107,7.888,4.955,7.79,4.989,7.588
		c0.02-0.121,0.058-0.165,0.184-0.163C5.587,7.434,6,7.429,6.415,7.429c0.388,0,0.777,0,1.166,0
		C7.807,7.429,7.882,7.544,7.766,7.741z M1.481,6.491c0.279-0.691,0.56-1.38,0.842-2.07c0.026-0.063,0.031-0.14,0.14-0.14
		c0.734,0.006,1.469,0.003,2.215,0.003C4.567,5.042,4.46,5.786,4.355,6.53C4.344,6.605,4.312,6.633,4.233,6.633
		C3.307,6.631,2.381,6.631,1.456,6.631C1.427,6.572,1.465,6.533,1.481,6.491z M1.359,7.579C1.324,7.46,1.341,7.423,1.473,7.426
		c0.433,0.007,0.866,0.003,1.299,0.003c0.433,0,0.866,0.002,1.299-0.002c0.107-0.001,0.167,0.009,0.12,0.139
		c-0.189,0.516-0.54,0.859-1.073,1C2.379,8.763,1.567,8.301,1.359,7.579z M15.757,17.323c-0.934-0.009-1.867-0.007-2.799-0.001
		c-0.134,0-0.19-0.018-0.188-0.175c0.009-0.808,0.008-1.619,0-2.429c-0.001-0.145,0.043-0.179,0.176-0.167
		c0.104,0.011,0.209,0.007,0.313-0.021c0.176-0.046,0.301-0.197,0.303-0.372c0.001-0.176-0.123-0.331-0.297-0.378
		c-0.128-0.035-0.258-0.025-0.387-0.022c-0.082,0.002-0.104-0.025-0.104-0.105c0.003-0.853,0.003-1.706-0.001-2.559
		c0-0.103,0.049-0.104,0.125-0.104c0.97,0.001,1.939,0.005,2.91-0.003c0.13-0.001,0.133,0.054,0.133,0.152
		c-0.004,0.556-0.002,1.112-0.002,1.668c0,0.451,0,0.902,0,1.353c0,0.99-0.003,1.978,0.004,2.966
		C15.942,17.272,15.92,17.325,15.757,17.323z M17.526,17.146c0,0.137-0.028,0.189-0.172,0.176c-0.142-0.014-0.285-0.013-0.426,0
		c-0.156,0.013-0.212-0.024-0.208-0.198c0.013-0.581,0.004-1.163,0.004-1.744c0-1.664-0.002-3.327,0.005-4.989
		c0.001-0.168-0.044-0.203-0.204-0.202c-1.453,0.007-2.906,0.007-4.36,0c-0.153-0.001-0.193,0.037-0.193,0.192
		c0.003,2.245,0.003,4.49,0.006,6.735c0.001,0.149-0.019,0.206-0.193,0.206c-3.036-0.007-6.072-0.006-9.108-0.001
		c-0.159,0-0.206-0.031-0.204-0.2c0.005-2.509,0.005-5.021,0-7.532c0-0.166,0.037-0.2,0.203-0.194C3.396,9.421,4,9.156,4.476,8.611
		c0.029-0.032,0.058-0.064,0.095-0.106c0.249,0.304,0.538,0.549,0.896,0.706c0.911,0.4,1.952,0.168,2.617-0.583
		C8.141,8.563,8.17,8.472,8.281,8.6c0.932,1.083,2.528,1.072,3.456-0.014c0.02-0.023,0.041-0.046,0.074-0.08
		c0.466,0.575,1.064,0.896,1.809,0.896c0.737,0,1.334-0.313,1.807-0.896c0.17,0.198,0.343,0.377,0.554,0.515
		c0.41,0.268,0.856,0.404,1.35,0.378c0.146-0.009,0.198,0.015,0.198,0.178C17.522,12.1,17.522,14.623,17.526,17.146z M17.675,8.539
		c-0.579,0.179-1.102,0.044-1.518-0.409c-0.153-0.168-0.335-0.332-0.357-0.588c-0.005-0.071-0.014-0.115,0.083-0.115
		c0.926,0.002,1.853,0.001,2.793,0.001C18.539,7.995,18.209,8.375,17.675,8.539z"/>
	<path fill-rule="evenodd" d="M11.191,10.371c0-0.149-0.041-0.181-0.184-0.181c-1.256,0.007-2.511,0.003-3.766,0.003
		c-1.262,0-2.523,0.003-3.784-0.003c-0.139,0-0.188,0.025-0.188,0.179c0.006,1.731,0.006,3.464,0,5.194
		c0,0.153,0.046,0.181,0.187,0.181c2.517-0.005,5.033-0.005,7.55,0c0.141,0,0.186-0.029,0.185-0.18
		C11.186,13.834,11.186,12.102,11.191,10.371z M10.401,14.765c0.001,0.147-0.038,0.184-0.184,0.183
		c-1.001-0.006-2.002-0.003-3.003-0.003c-0.996,0-1.989-0.003-2.984,0.003c-0.139,0.001-0.171-0.033-0.171-0.171
		c0.007-1.205,0.006-2.41,0-3.614c0-0.134,0.025-0.175,0.168-0.175c1.996,0.006,3.992,0.005,5.987,0.001
		c0.141,0,0.188,0.028,0.188,0.18C10.396,12.368,10.396,13.565,10.401,14.765z"/>
	<path fill-rule="evenodd" d="M6.838,14.149c-0.007-0.11,0.045-0.208,0.125-0.289c0.777-0.778,1.554-1.557,2.334-2.333
		c0.18-0.179,0.423-0.181,0.579-0.025c0.158,0.158,0.16,0.398-0.02,0.579c-0.774,0.782-1.554,1.559-2.333,2.334
		c-0.13,0.129-0.29,0.17-0.458,0.096C6.921,14.446,6.838,14.326,6.838,14.149z"/>
	<path fill-rule="evenodd" d="M8.816,14.546c-0.153-0.011-0.271-0.067-0.344-0.197c-0.074-0.135-0.087-0.281,0.01-0.398
		c0.278-0.33,0.58-0.641,0.916-0.912c0.148-0.119,0.36-0.078,0.485,0.055c0.127,0.135,0.156,0.345,0.034,0.49
		c-0.272,0.32-0.577,0.609-0.887,0.891C8.967,14.531,8.884,14.531,8.816,14.546z"/>
</svg>
