<svg width="20" height="20" viewBox="0 0 20 20" xmlns="http://www.w3.org/2000/svg">
	<path fill-rule="evenodd" d="M0.5,8.136c0.105-0.099,0.229-0.122,0.372-0.121C1.496,8.021,2.12,8.017,2.744,8.018
		c0.238,0,0.364,0.106,0.361,0.298C3.103,8.505,2.975,8.61,2.736,8.61c-0.63,0.002-1.261-0.001-1.891,0.002
		C0.705,8.614,0.592,8.573,0.5,8.47C0.5,8.358,0.5,8.247,0.5,8.136z"/>
	<path fill-rule="evenodd" fill="none" d="M19.5,13.294l-0.016,0l-0.016,0c-0.07-0.06-0.064-0.144-0.064-0.223
		c-0.004-0.408-0.004-0.816,0-1.224c0-0.08-0.006-0.164,0.065-0.223c0.01,0,0.021,0,0.03,0C19.5,12.181,19.5,12.737,19.5,13.294z"
		/>
	<path fill-rule="evenodd" d="M5.599,10.177c-0.822,0-1.645,0-2.467,0c-0.049,0-0.099,0.002-0.148-0.001
		c-0.188-0.013-0.304-0.135-0.299-0.308C2.69,9.703,2.808,9.589,2.988,9.584C3.186,9.579,3.385,9.57,3.582,9.586
		C3.745,9.601,3.771,9.54,3.768,9.392C3.758,8.916,3.763,8.44,3.764,7.964c0-0.235,0.107-0.373,0.289-0.376
		C4.24,7.583,4.357,7.729,4.357,7.971c0.001,0.489,0.005,0.977-0.003,1.465C4.353,9.562,4.392,9.585,4.509,9.585
		c1.2-0.004,2.399-0.002,3.598-0.002c0.05,0,0.1-0.005,0.148,0.001c0.162,0.021,0.258,0.112,0.271,0.277
		c0.012,0.158-0.095,0.287-0.256,0.31c-0.055,0.008-0.111,0.005-0.167,0.005C7.269,10.177,6.434,10.177,5.599,10.177z"/>
	<path fill-rule="evenodd" d="M19.193,10.673c-0.51-0.909-1.02-1.819-1.521-2.731c-0.176-0.319-0.432-0.473-0.797-0.469
		c-0.644,0.006-1.286-0.004-1.93,0.005c-0.145,0.002-0.17-0.041-0.169-0.175c0.008-0.581,0.003-1.162,0.003-1.744
		c0-0.521-0.181-0.702-0.7-0.702c-3.21,0-6.42,0-9.629,0c-0.043,0-0.086-0.001-0.13,0C3.979,4.871,3.771,5.083,3.764,5.421
		c-0.002,0.105,0.004,0.21-0.001,0.315c-0.01,0.208,0.089,0.479-0.038,0.605C3.607,6.46,3.337,6.37,3.135,6.374
		C2.918,6.379,2.702,6.371,2.485,6.379c-0.181,0.007-0.298,0.127-0.3,0.289C2.184,6.828,2.3,6.948,2.479,6.967
		C2.516,6.97,2.553,6.969,2.59,6.969c1.138,0,2.275,0,3.413,0c0.061,0,0.125-0.001,0.183-0.018c0.142-0.04,0.217-0.141,0.213-0.288
		C6.395,6.517,6.316,6.419,6.171,6.388C6.105,6.374,6.036,6.375,5.968,6.375C5.479,6.375,4.991,6.372,4.502,6.377
		c-0.11,0.001-0.154-0.022-0.148-0.142c0.01-0.203,0.015-0.409,0-0.612C4.342,5.469,4.404,5.448,4.54,5.449
		c3.147,0.003,6.295,0.004,9.443-0.002c0.181,0,0.207,0.057,0.207,0.217c-0.009,1.589-0.011,3.178-0.014,4.768
		c-0.001,0.872-0.002,1.744,0.002,2.616c0.001,0.117-0.012,0.173-0.155,0.173c-1.348-0.007-2.696-0.005-4.045-0.002
		c-0.099,0-0.145-0.018-0.176-0.128c-0.206-0.731-0.834-1.208-1.569-1.206c-0.737,0.001-1.362,0.479-1.567,1.208
		c-0.028,0.098-0.064,0.127-0.161,0.126C5.836,13.215,5.168,13.214,4.5,13.22c-0.112,0.001-0.147-0.025-0.146-0.142
		c0.007-0.47,0.008-0.94,0-1.41C4.352,11.537,4.4,11.516,4.513,11.52c0.248,0.006,0.495,0.006,0.742-0.002
		c0.158-0.004,0.251-0.103,0.267-0.256c0.016-0.162-0.06-0.274-0.222-0.316c-0.053-0.014-0.11-0.016-0.165-0.016
		c-1.193-0.001-2.387-0.001-3.581,0c-0.061,0-0.125,0.005-0.182,0.023c-0.14,0.045-0.213,0.151-0.201,0.296
		c0.012,0.152,0.101,0.249,0.258,0.269c0.055,0.007,0.111,0.005,0.167,0.005c0.661,0,1.323,0.003,1.985-0.003
		c0.14-0.001,0.189,0.026,0.187,0.18c-0.01,0.575-0.005,1.15-0.004,1.725c0,0.289,0.099,0.387,0.391,0.387
		c0.773,0.001,1.546,0.003,2.319-0.002c0.118,0,0.164,0.029,0.198,0.151c0.195,0.698,0.839,1.182,1.551,1.183
		c0.72,0.002,1.358-0.467,1.563-1.166c0.037-0.132,0.089-0.169,0.222-0.168c1.676,0.005,3.352,0.006,5.028,0.001
		c0.133,0,0.184,0.037,0.222,0.168c0.196,0.67,0.765,1.111,1.471,1.162c0.642,0.046,1.32-0.335,1.549-0.961
		c0.12-0.33,0.279-0.397,0.591-0.374c0.361,0.027,0.541-0.148,0.6-0.51c0-0.557,0.001-1.113,0.001-1.67
		C19.453,11.285,19.36,10.97,19.193,10.673z M8.247,14.546c-0.672-0.004-1.068-0.561-1.042-1.082
		c0.027-0.534,0.472-0.986,1.024-0.986c0.574,0,1.029,0.456,1.029,1.034C9.26,14.081,8.81,14.549,8.247,14.546z M16.814,14.548
		c-0.583-0.002-1.027-0.46-1.027-1.058c0-0.555,0.455-1.009,1.013-1.013c0.585-0.004,1.034,0.449,1.034,1.045
		C17.835,14.087,17.374,14.551,16.814,14.548z M18.709,13.217c-0.013-0.002-0.025-0.002-0.037,0
		c-0.186,0.032-0.269-0.035-0.329-0.228c-0.208-0.675-0.852-1.114-1.564-1.104c-0.702,0.01-1.315,0.48-1.529,1.164
		c-0.018,0.057,0.011,0.156-0.084,0.165c-0.116,0.011-0.237,0.016-0.351-0.004c-0.057-0.011-0.027-0.099-0.027-0.151
		c-0.002-0.803-0.002-1.607-0.002-2.41c0-0.804,0.004-1.607-0.003-2.41c-0.001-0.135,0.026-0.177,0.17-0.175
		c0.637,0.009,1.272,0.008,1.909,0.001c0.143-0.002,0.227,0.048,0.295,0.171c0.507,0.917,1.018,1.831,1.528,2.746
		c0.126,0.226,0.189,0.465,0.187,0.725c-0.005,0.451-0.008,0.902,0.002,1.353C18.876,13.194,18.835,13.239,18.709,13.217z"/>
</svg>
