<svg width="20" height="20" viewBox="0 0 20 20" xmlns="http://www.w3.org/2000/svg">
	<path fill-rule="evenodd" d="M10.371,2.964c0,0.296,0.002,0.592-0.001,0.888c-0.001,0.255-0.145,0.421-0.362,0.426
		C9.785,4.284,9.63,4.111,9.629,3.85c-0.001-0.592-0.001-1.185,0-1.777c0.001-0.255,0.145-0.42,0.363-0.425
		c0.226-0.005,0.377,0.164,0.379,0.428C10.373,2.373,10.371,2.668,10.371,2.964z"/>
	<path fill-rule="evenodd" d="M7.89,4.7C7.882,4.873,7.794,4.992,7.631,5.043C7.457,5.098,7.313,5.038,7.213,4.889
		C7.08,4.689,6.955,4.483,6.826,4.28c-0.19-0.302-0.383-0.604-0.571-0.907C6.114,3.146,6.15,2.925,6.342,2.807
		C6.527,2.692,6.741,2.754,6.878,2.97c0.314,0.494,0.624,0.991,0.937,1.486C7.861,4.531,7.897,4.608,7.89,4.7z"/>
	<path fill-rule="evenodd" d="M12.11,4.675c-0.006-0.082,0.036-0.156,0.083-0.23c0.308-0.49,0.615-0.981,0.926-1.47
		c0.142-0.223,0.363-0.285,0.55-0.161c0.181,0.12,0.214,0.338,0.078,0.555c-0.31,0.497-0.621,0.993-0.936,1.486
		c-0.112,0.176-0.273,0.243-0.438,0.192C12.213,4.998,12.107,4.854,12.11,4.675z"/>
	<path fill-rule="evenodd" fill="none" d="M17.587,7.61c0.209-0.002,0.378,0.166,0.374,0.372
		c-0.003,0.199-0.166,0.363-0.364,0.367c-0.206,0.003-0.374-0.166-0.372-0.375C17.227,7.77,17.384,7.612,17.587,7.61z"/>
	<path fill-rule="evenodd" d="M19.436,10.5c-0.244-0.429-0.481-0.861-0.726-1.29c-0.051-0.088-0.141-0.136-0.246-0.147
		c-0.148-0.017-0.271,0.032-0.354,0.154c-0.089,0.129-0.087,0.27-0.013,0.403c0.201,0.361,0.406,0.72,0.612,1.078
		c0.073,0.128,0.067,0.234-0.072,0.312c-0.313,0.173-0.626,0.347-0.939,0.519c-0.124,0.068-0.225,0.041-0.295-0.086
		c-0.097-0.172-0.193-0.344-0.291-0.516c-0.835-1.477-1.67-2.953-2.505-4.43c-0.12-0.211-0.104-0.264,0.104-0.381
		c0.28-0.156,0.562-0.312,0.843-0.465c0.188-0.103,0.247-0.084,0.356,0.105c0.17,0.3,0.338,0.602,0.511,0.901
		c0.129,0.224,0.333,0.296,0.525,0.193c0.201-0.108,0.249-0.325,0.118-0.56c-0.177-0.318-0.354-0.636-0.537-0.95
		c-0.28-0.481-0.8-0.625-1.292-0.361c-0.305,0.164-0.606,0.333-0.907,0.5c-0.46,0.254-0.627,0.646-0.479,1.151
		c0.026,0.088,0.009,0.117-0.077,0.139c-0.216,0.055-0.429,0.117-0.641,0.182c-0.166,0.051-0.32,0.041-0.486-0.022
		c-0.42-0.161-0.847-0.303-1.271-0.453c-0.353-0.125-0.712-0.196-1.09-0.159C9.676,6.377,9.066,6.42,8.457,6.48
		C8.094,6.517,7.694,6.53,7.414,6.759c-0.33,0.27-0.621,0.189-0.947,0.076c-0.076-0.026-0.153-0.051-0.23-0.068
		c-0.09-0.02-0.113-0.05-0.082-0.15C6.3,6.152,6.134,5.745,5.707,5.501C5.412,5.333,5.115,5.17,4.817,5.007
		c-0.561-0.308-1.064-0.165-1.38,0.394c-0.641,1.132-1.288,2.263-1.92,3.4c-0.344,0.618-0.73,1.213-1.017,1.863
		c0,0.124,0,0.247,0,0.371c0.12,0.371,0.388,0.594,0.73,0.753c0.207,0.096,0.407,0.208,0.599,0.332
		c0.585,0.38,1.216,0.141,1.445-0.366c0.036-0.08,0.074-0.095,0.153-0.052c0.187,0.101,0.356,0.221,0.504,0.374
		c0.063,0.065,0.081,0.112,0.021,0.203c-0.501,0.769-0.146,1.688,0.743,1.927c0.088,0.024,0.124,0.046,0.125,0.152
		c0.01,0.611,0.372,1.062,0.972,1.213c0.107,0.027,0.125,0.071,0.126,0.173c0.004,0.581,0.385,1.058,0.949,1.192
		c0.104,0.025,0.143,0.055,0.146,0.177c0.011,0.499,0.245,0.878,0.692,1.099c0.455,0.224,0.899,0.174,1.309-0.126
		c0.184-0.135,0.36-0.282,0.537-0.426c0.144-0.116,0.287-0.331,0.428-0.329c0.153,0.002,0.305,0.204,0.456,0.318
		c0.698,0.528,1.664,0.238,1.948-0.592c0.037-0.108,0.07-0.141,0.188-0.116c0.791,0.167,1.5-0.398,1.508-1.206
		c0.002-0.113,0.04-0.141,0.137-0.166c0.585-0.147,0.949-0.601,0.964-1.202c0.002-0.092,0.013-0.133,0.115-0.16
		c0.904-0.244,1.252-1.144,0.747-1.936c-0.053-0.084-0.038-0.128,0.02-0.189c0.134-0.139,0.287-0.251,0.453-0.349
		c0.106-0.063,0.164-0.073,0.238,0.058c0.289,0.516,0.809,0.658,1.327,0.377c0.249-0.135,0.49-0.287,0.745-0.41
		c0.335-0.161,0.578-0.393,0.675-0.76c0-0.111,0-0.223,0-0.334C19.438,10.625,19.466,10.553,19.436,10.5z M2.62,11.404
		c-0.047,0.083-0.092,0.164-0.206,0.158c-0.059,0.004-0.106-0.027-0.155-0.054c-0.286-0.158-0.572-0.315-0.857-0.476
		c-0.178-0.1-0.2-0.169-0.102-0.342c0.931-1.648,1.863-3.296,2.796-4.944C4.197,5.568,4.261,5.55,4.44,5.648
		c0.292,0.159,0.584,0.32,0.874,0.484C5.49,6.231,5.507,6.295,5.405,6.476C4.477,8.119,3.548,9.761,2.62,11.404z M4.977,13.491
		c-0.232-0.002-0.402-0.122-0.478-0.327c-0.073-0.199-0.027-0.407,0.146-0.553c0.294-0.245,0.596-0.481,0.894-0.72
		c0.164-0.131,0.325-0.266,0.493-0.392c0.24-0.181,0.536-0.153,0.714,0.06c0.18,0.215,0.153,0.531-0.082,0.724
		c-0.454,0.372-0.915,0.734-1.374,1.1C5.197,13.457,5.089,13.5,4.977,13.491z M6.074,14.862c-0.223-0.004-0.405-0.129-0.478-0.316
		c-0.08-0.207-0.025-0.429,0.163-0.583c0.358-0.294,0.723-0.581,1.085-0.87c0.29-0.231,0.578-0.465,0.87-0.693
		c0.262-0.204,0.556-0.185,0.742,0.042c0.187,0.227,0.142,0.541-0.117,0.749c-0.635,0.512-1.275,1.019-1.912,1.528
		C6.318,14.807,6.202,14.872,6.074,14.862z M7.484,16.116c-0.235,0.185-0.537,0.148-0.712-0.066
		c-0.182-0.223-0.151-0.528,0.088-0.723c0.45-0.367,0.905-0.727,1.359-1.087c0.169-0.135,0.357-0.167,0.554-0.07
		c0.182,0.09,0.272,0.244,0.279,0.429c-0.001,0.182-0.065,0.318-0.193,0.42C8.402,15.385,7.947,15.755,7.484,16.116z M9.433,16.776
		c-0.29,0.295-0.623,0.541-0.961,0.776c-0.058,0.04-0.136,0.059-0.214,0.05c-0.206-0.011-0.364-0.1-0.455-0.291
		c-0.087-0.183-0.064-0.413,0.085-0.548c0.287-0.261,0.586-0.51,0.91-0.724c0.2-0.133,0.461-0.073,0.619,0.108
		C9.568,16.325,9.595,16.61,9.433,16.776z M15.489,13.2c-0.095,0.209-0.309,0.32-0.548,0.287c-0.108-0.016-0.195-0.073-0.277-0.14
		c-0.295-0.235-0.589-0.471-0.885-0.705c-0.213-0.169-0.432-0.167-0.574,0.005c-0.149,0.181-0.109,0.395,0.113,0.575
		c0.312,0.253,0.631,0.499,0.938,0.756c0.19,0.16,0.231,0.393,0.13,0.604c-0.098,0.201-0.312,0.31-0.538,0.275
		c-0.122-0.018-0.216-0.088-0.308-0.162c-0.313-0.25-0.626-0.503-0.941-0.751c-0.217-0.172-0.428-0.167-0.573,0.007
		c-0.151,0.181-0.11,0.393,0.114,0.574c0.317,0.256,0.637,0.509,0.955,0.765c0.273,0.22,0.326,0.521,0.133,0.759
		c-0.189,0.234-0.494,0.244-0.771,0.023c-0.333-0.266-0.666-0.534-1-0.798c-0.134-0.105-0.283-0.124-0.432-0.036
		c-0.143,0.084-0.195,0.218-0.172,0.38c0.016,0.111,0.084,0.189,0.168,0.256c0.16,0.127,0.322,0.251,0.477,0.384
		c0.241,0.206,0.279,0.497,0.102,0.722c-0.178,0.226-0.488,0.25-0.742,0.057c-0.079-0.06-0.151-0.129-0.233-0.184
		c-0.223-0.148-0.362-0.316-0.378-0.618c-0.02-0.354-0.248-0.628-0.553-0.812c-0.11-0.066-0.109-0.104-0.053-0.208
		c0.322-0.593,0.139-1.295-0.436-1.65c-0.116-0.072-0.096-0.114-0.045-0.21c0.447-0.837-0.148-1.836-1.092-1.837
		c-0.44,0-0.44,0-0.698-0.36c-0.41-0.574-1.199-0.693-1.771-0.261c-0.305,0.231-0.602,0.474-0.898,0.717
		c-0.077,0.064-0.121,0.09-0.201-0.006c-0.187-0.226-0.419-0.401-0.681-0.534c-0.084-0.042-0.123-0.069-0.063-0.174
		c0.648-1.136,1.291-2.275,1.931-3.415C5.729,7.41,5.764,7.398,5.846,7.423c0.288,0.091,0.58,0.169,0.87,0.253
		c0.058,0.017,0.112,0.026,0.126,0.109c0.159,0.957,0.934,1.521,2.011,1.496c0.285-0.006,0.564-0.062,0.844-0.11
		c0.599-0.102,1.14,0.036,1.637,0.372c0.912,0.616,1.785,1.283,2.646,1.967c0.455,0.361,0.91,0.722,1.36,1.089
		C15.535,12.757,15.584,12.99,15.489,13.2z M16.184,11.073c-0.262,0.133-0.496,0.305-0.683,0.532
		c-0.077,0.094-0.119,0.076-0.201,0.01c-1.028-0.83-2.066-1.648-3.146-2.411c-0.359-0.253-0.722-0.498-1.138-0.649
		C10.438,8.346,9.852,8.375,9.261,8.49C8.937,8.554,8.61,8.569,8.288,8.471c-0.319-0.097-0.55-0.295-0.666-0.616
		C7.517,7.564,7.559,7.468,7.844,7.361c0.216-0.082,0.442-0.118,0.669-0.14C9.14,7.16,9.768,7.107,10.396,7.052
		c0.232-0.023,0.453,0.029,0.671,0.106c0.453,0.16,0.909,0.313,1.358,0.481c0.284,0.106,0.564,0.123,0.853,0.041
		c0.291-0.083,0.583-0.159,0.871-0.25c0.091-0.029,0.128-0.008,0.172,0.069c0.638,1.134,1.276,2.268,1.922,3.397
		C16.3,10.999,16.269,11.029,16.184,11.073z"/>
</svg>
