<svg width="20" height="20" viewBox="0 0 20 20" xmlns="http://www.w3.org/2000/svg">
	<path fill-rule="evenodd" fill="none" d="M10.847,1c0.001,0.011,0.002,0.022,0.003,0.033c-0.066,0.054-0.129,0.057-0.191-0.005
		c-0.003-0.013,0-0.022,0.013-0.027C10.729,1,10.787,1,10.847,1z"/>
	<path fill-rule="evenodd" d="M10.658,1.027c0.064,0.002,0.127,0.003,0.191,0.005c0.916,0.473,1.17,1.8,0.507,2.641
		c-0.16,0.203-0.16,0.203-0.002,0.407c0.624,0.808,0.459,1.964-0.368,2.564c-0.185,0.133-0.351,0.135-0.448,0.004
		c-0.1-0.136-0.054-0.288,0.133-0.426c0.62-0.464,0.716-1.308,0.215-1.885c-0.074-0.084-0.162-0.151-0.251-0.218
		c-0.191-0.145-0.204-0.349-0.009-0.478c0.769-0.505,0.766-1.63,0.013-2.138C10.413,1.354,10.432,1.155,10.658,1.027z"/>
	<path fill-rule="evenodd" d="M13.589,5.276c-0.017,0.523-0.265,1.022-0.771,1.386c-0.166,0.119-0.325,0.115-0.42-0.008
		c-0.102-0.131-0.06-0.29,0.109-0.418c0.637-0.48,0.739-1.317,0.234-1.895c-0.074-0.085-0.162-0.152-0.251-0.219
		c-0.152-0.114-0.189-0.268-0.1-0.393c0.092-0.128,0.244-0.141,0.403-0.036C13.286,4.02,13.586,4.582,13.589,5.276z"/>
	<path fill-rule="evenodd" d="M9.724,5.294C9.706,5.791,9.47,6.278,8.987,6.638C8.793,6.783,8.624,6.783,8.528,6.644
		C8.433,6.505,8.481,6.36,8.67,6.218c0.519-0.39,0.676-1.061,0.381-1.628C8.954,4.405,8.815,4.256,8.647,4.133
		C8.475,4.009,8.435,3.847,8.536,3.718C8.633,3.594,8.787,3.59,8.958,3.71C9.441,4.048,9.727,4.599,9.724,5.294z"/>
	<path fill-rule="evenodd" d="M17.746,16.069c-0.768,0-1.534,0-2.303,0c-0.058,0-0.118,0-0.175,0.011
		c-0.124,0.024-0.194,0.106-0.203,0.229c-0.012,0.133,0.055,0.227,0.181,0.265c0.067,0.02,0.141,0.021,0.21,0.021
		c0.668,0.001,1.336,0,2.004,0.002c0.053,0,0.136-0.042,0.142,0.071c0.008,0.107-0.079,0.078-0.13,0.099
		c-0.021,0.009-0.046,0.011-0.068,0.015c-0.851,0.163-1.7,0.331-2.551,0.482c-0.415,0.075-0.82,0.205-1.244,0.206
		c-2.461,0.005-4.923,0.003-7.383,0.001c-0.11,0-0.222-0.012-0.331-0.032c-0.781-0.146-1.563-0.296-2.343-0.445
		c-0.408-0.078-0.815-0.158-1.224-0.235c-0.053-0.01-0.1-0.012-0.098-0.089c0.002-0.084,0.055-0.074,0.106-0.074
		c0.041,0,0.083,0,0.123,0c3.902,0,7.804,0,11.707,0c0.076,0,0.15-0.008,0.227-0.015c0.068-0.006,0.119-0.044,0.159-0.099
		c0.061-0.082,0.071-0.17,0.026-0.264c-0.053-0.107-0.146-0.149-0.259-0.149c-0.434,0-0.866,0-1.301,0c-0.107,0-0.215,0-0.367,0
		c0.068-0.053,0.095-0.076,0.122-0.095c0.681-0.462,1.224-1.051,1.612-1.777c0.053-0.098,0.104-0.097,0.193-0.064
		c0.474,0.172,0.96,0.203,1.452,0.11c1.5-0.283,2.48-1.719,2.227-3.252c-0.237-1.443-1.658-2.476-3.125-2.269
		C15.032,8.736,15.003,8.72,15,8.614c-0.018-0.402-0.246-0.632-0.638-0.642c-0.387-0.009-0.773-0.006-1.16,0
		c-0.206,0.002-0.323,0.111-0.315,0.275c0.005,0.155,0.121,0.248,0.319,0.25c0.31,0.003,0.619,0.002,0.932,0.001
		c0.395-0.001,0.323-0.011,0.341,0.34c0.009,0.165-0.043,0.199-0.199,0.199C11.4,9.032,8.524,9.033,5.647,9.033
		c-0.29,0-0.29,0-0.289-0.293c0-0.241,0-0.242,0.244-0.242c2.133,0,4.265,0,6.398,0c0.07,0,0.142,0.002,0.211-0.008
		c0.135-0.021,0.205-0.11,0.214-0.241c0.008-0.123-0.054-0.216-0.175-0.253c-0.064-0.02-0.138-0.024-0.207-0.024
		C9.881,7.97,7.719,7.974,5.557,7.966C5.11,7.965,4.816,8.232,4.826,8.704c0.019,0.938,0.006,1.875,0.005,2.813
		c0,0.417,0.009,0.833,0.106,1.24c0.037,0.152-0.003,0.182-0.156,0.156c-0.454-0.077-0.854,0.078-1.221,0.328
		c-0.123,0.084-0.147,0.215-0.073,0.342c0.074,0.128,0.194,0.166,0.332,0.104c0.075-0.033,0.143-0.081,0.217-0.117
		c0.216-0.106,0.438-0.183,0.703-0.129c-0.041,0.063-0.069,0.112-0.102,0.158c-0.269,0.404-0.54,0.808-0.809,1.212
		c-0.121,0.183-0.103,0.334,0.044,0.427c0.133,0.084,0.279,0.035,0.397-0.14c0.219-0.325,0.435-0.652,0.654-0.978
		c0.083-0.125,0.167-0.249,0.261-0.389c0.091,0.139,0.134,0.269,0.145,0.409c0.05,0.615-0.192,1.116-0.609,1.547
		c-0.26,0.268-0.555,0.446-0.95,0.381c-0.063-0.009-0.129,0-0.193,0c-0.273,0-0.43-0.105-0.528-0.363
		c-0.054-0.143-0.081-0.292-0.078-0.446c0.005-0.343,0.133-0.648,0.282-0.948c0.073-0.149,0.018-0.295-0.113-0.358
		c-0.124-0.06-0.271-0.018-0.346,0.119c-0.332,0.602-0.487,1.228-0.204,1.896c0.045,0.106,0,0.103-0.077,0.102
		c-0.17-0.002-0.341-0.004-0.51,0c-0.207,0.007-0.297,0.1-0.301,0.306c-0.003,0.169-0.001,0.34,0,0.51
		c0.001,0.23,0.07,0.309,0.302,0.353c1.195,0.226,2.39,0.454,3.586,0.675c0.148,0.027,0.226,0.069,0.203,0.239
		c-0.019,0.144,0.003,0.292-0.005,0.439c-0.01,0.167,0.033,0.306,0.17,0.409c2.637,0,5.274,0,7.911,0
		c0.135-0.095,0.183-0.225,0.175-0.39c-0.012-0.175,0.005-0.352-0.006-0.527c-0.006-0.105,0.031-0.134,0.132-0.152
		c0.65-0.12,1.298-0.247,1.947-0.37c0.574-0.109,1.149-0.216,1.724-0.325c0.22-0.042,0.285-0.121,0.287-0.347
		c0.001-0.146,0-0.293,0-0.439C18.129,16.142,18.056,16.069,17.746,16.069z M14.965,12.351c0.069-0.553,0.031-1.109,0.035-1.664
		c0-0.125,0.035-0.183,0.154-0.226c0.697-0.246,1.452,0.305,1.432,1.053c-0.021,0.77-0.809,1.284-1.506,0.981
		C15.018,12.468,14.952,12.451,14.965,12.351z M14.705,13.483c0.063-0.145,0.058-0.336,0.154-0.44
		c0.111-0.121,0.275,0.038,0.422,0.051c1.081,0.094,1.897-0.688,1.822-1.758c-0.063-0.904-0.955-1.59-1.872-1.438
		c-0.229,0.037-0.229,0.037-0.229-0.201c0-0.029,0-0.059,0-0.088c0-0.37,0-0.37,0.381-0.383c1.381-0.046,2.442,1.021,2.387,2.401
		c-0.059,1.457-1.603,2.506-2.979,2.024C14.699,13.62,14.658,13.592,14.705,13.483z M5.533,9.557
		c1.465,0.007,2.93,0.004,4.394,0.004c1.459,0,2.918,0.002,4.376-0.003c0.135,0,0.178,0.028,0.176,0.17
		c-0.01,0.75,0.021,1.501-0.018,2.249c-0.085,1.633-0.856,2.87-2.247,3.724c-0.096,0.059-0.191,0.114-0.29,0.164
		c-0.275,0.136-0.555,0.217-0.873,0.209c-0.832-0.019-1.663-0.006-2.495-0.006c-0.053,0-0.107,0.004-0.158-0.004
		c-0.235-0.038-0.26-0.084-0.161-0.294c0.32-0.688-0.036-1.475-0.791-1.764c-0.462-0.177-0.932-0.213-1.414-0.116
		c-0.103,0.021-0.15,0.001-0.199-0.098c-0.325-0.664-0.475-1.365-0.474-2.102c0-0.65,0.005-1.301-0.004-1.951
		C5.354,9.597,5.384,9.556,5.533,9.557z M5.472,15.595c0.192-0.312,0.325-0.646,0.378-1.01c0.007-0.049-0.004-0.104,0.068-0.124
		c0.586-0.162,1.145-0.153,1.651,0.236c0.049,0.038,0.097,0.082,0.118,0.162c-0.398,0.08-0.792,0.159-1.187,0.238
		c-0.154,0.031-0.311,0.057-0.463,0.096c-0.174,0.045-0.253,0.168-0.219,0.322c0.031,0.139,0.155,0.218,0.327,0.185
		c0.523-0.098,1.045-0.205,1.566-0.308c0.028-0.005,0.056-0.007,0.097-0.012c-0.065,0.303-0.256,0.5-0.483,0.669
		c-0.02,0.016-0.055,0.018-0.083,0.018c-0.701,0.001-1.402,0.001-2.13,0.001C5.239,15.894,5.372,15.757,5.472,15.595z
		 M13.516,18.303c0.021,0.134-0.027,0.174-0.168,0.174c-1.143-0.007-2.283-0.004-3.425-0.004c-1.141,0-2.283-0.003-3.425,0.004
		c-0.143,0-0.189-0.03-0.184-0.18C6.328,18.001,6.318,18,6.611,18c2.236,0,4.472,0.002,6.708-0.004
		c0.163,0,0.222,0.043,0.196,0.201C13.509,18.231,13.51,18.269,13.516,18.303z"/>
</svg>
