<svg width="20" height="20" viewBox="0 0 20 20" xmlns="http://www.w3.org/2000/svg">
	<path fill-rule="evenodd" d="M8.348,1c0.294,0.178,0.33,0.339,0.14,0.642C8.265,1.996,8.287,2.389,8.554,2.736
		C8.71,2.94,8.873,3.139,8.974,3.379C9.317,4.201,9.08,4.97,8.497,5.586C8.385,5.706,8.188,5.713,8.062,5.623
		c-0.14-0.1-0.192-0.278-0.111-0.435C7.995,5.1,8.06,5.021,8.121,4.944C8.54,4.406,8.542,3.841,8.107,3.311
		C7.787,2.92,7.591,2.494,7.644,1.976c0.032-0.312,0.149-0.587,0.338-0.832C8.028,1.083,8.107,1.048,8.172,1C8.23,1,8.29,1,8.348,1
		z"/>
	<path fill-rule="evenodd" d="M10.219,1.8c0.251,0.007,0.406,0.255,0.303,0.486c-0.02,0.042-0.044,0.081-0.069,0.121
		c-0.242,0.388-0.229,0.759,0.052,1.122c0.198,0.255,0.393,0.509,0.487,0.825c0.199,0.669,0.06,1.27-0.367,1.81
		c-0.093,0.116-0.161,0.257-0.333,0.295c-0.142,0.032-0.253-0.003-0.345-0.108C9.851,6.24,9.824,6.111,9.897,5.979
		c0.047-0.087,0.11-0.166,0.17-0.243c0.42-0.535,0.421-1.102-0.009-1.633C9.822,3.811,9.637,3.5,9.593,3.119
		c-0.05-0.435,0.068-0.822,0.325-1.17C9.991,1.85,10.09,1.792,10.219,1.8z"/>
	<path fill-rule="evenodd" d="M7.185,4.924C7.186,5.496,6.931,5.96,6.558,6.368C6.44,6.497,6.246,6.507,6.11,6.411
		c-0.148-0.104-0.192-0.287-0.103-0.45C6.053,5.88,6.113,5.807,6.171,5.733c0.419-0.54,0.42-1.097-0.012-1.632
		c-0.251-0.311-0.444-0.645-0.47-1.053C5.662,2.632,5.781,2.261,6.031,1.934c0.115-0.15,0.323-0.179,0.473-0.081
		c0.158,0.104,0.205,0.3,0.092,0.478c-0.163,0.256-0.26,0.521-0.18,0.829c0.052,0.2,0.177,0.353,0.301,0.509
		C7.03,4.064,7.188,4.487,7.185,4.924z"/>
	<path fill-rule="evenodd" d="M14.076,10.864c-0.105,1.405-0.633,2.622-1.598,3.649c-0.176,0.187-0.379,0.216-0.539,0.073
		c-0.155-0.139-0.155-0.354,0.021-0.543c0.374-0.406,0.691-0.849,0.929-1.352c0.295-0.628,0.453-1.286,0.48-1.977
		c0.002-0.042,0.002-0.083,0.006-0.123c0.016-0.229,0.16-0.382,0.356-0.378c0.204,0.002,0.345,0.169,0.345,0.405
		C14.076,10.7,14.076,10.782,14.076,10.864z"/>
	<path fill-rule="evenodd" fill="none" d="M11.012,15.559c-0.192-0.001-0.341-0.153-0.342-0.347c0-0.189,0.17-0.357,0.359-0.354
		c0.187,0.004,0.343,0.165,0.343,0.351C11.371,15.404,11.209,15.562,11.012,15.559z"/>
	<path fill-rule="evenodd" fill="none" d="M6.018,7.86C5.831,7.852,5.676,7.685,5.685,7.503C5.694,7.318,5.86,7.162,6.042,7.166
		C6.234,7.17,6.392,7.342,6.381,7.536C6.37,7.726,6.209,7.869,6.018,7.86z"/>
	<path fill-rule="evenodd" d="M18.518,8.257c-0.866,0.006-1.733-0.001-2.602,0.005c-0.121,0.001-0.161-0.028-0.153-0.152
		c0.012-0.151,0.003-0.304,0.003-0.457c0-0.374-0.117-0.492-0.493-0.492c-0.756,0-1.512,0-2.268,0c-1.693,0-3.386,0-5.079,0
		c-0.286,0-0.454,0.133-0.455,0.353C7.47,7.735,7.634,7.862,7.923,7.865c0.042,0,0.083,0,0.123,0c2.285,0,4.569,0.001,6.854-0.003
		c0.13,0,0.167,0.028,0.166,0.163c-0.008,0.843-0.004,1.687-0.004,2.531c0,0.434-0.039,0.866-0.129,1.291
		c-0.401,1.899-1.421,3.371-3.062,4.412c-0.077,0.049-0.153,0.073-0.246,0.073c-2.162-0.002-4.323-0.002-6.484,0
		c-0.092,0-0.168-0.021-0.245-0.071c-2.082-1.354-3.146-3.274-3.191-5.754C1.691,9.726,1.703,8.946,1.703,8.167
		c0-0.303,0-0.303,0.3-0.303c0.668,0,1.336,0.002,2.003-0.001c0.227-0.001,0.362-0.107,0.396-0.294
		c0.042-0.232-0.137-0.406-0.429-0.407c-0.844-0.003-1.687,0-2.531-0.002C1.233,7.16,1.083,7.238,1,7.434c0,1.113,0,2.227,0,3.34
		c0.031,0.015,0.034,0.042,0.031,0.072l0,0C1.034,10.875,1.034,10.901,1,10.914c0,0.083,0,0.164,0,0.246
		c0.008,0.009,0.016,0.019,0.016,0.03c0.003,0.579,0.128,1.134,0.308,1.682c0.418,1.274,1.139,2.349,2.132,3.246
		c0.052,0.047,0.121,0.079,0.16,0.158c-0.075,0.007-0.133,0.004-0.191,0.004c-0.654,0-1.31-0.001-1.964,0.001
		C1.191,16.283,1.086,16.354,1,16.574c0,0.141,0,0.281,0,0.422c0.008,0.009,0.015,0.019,0.016,0.03
		c0.04,0.601,0.333,1.07,0.776,1.452c0.346,0.3,0.75,0.483,1.212,0.521c3.855,0,7.71,0,11.566,0
		c0.151-0.038,0.311-0.023,0.464-0.074c0.893-0.293,1.547-1.126,1.62-2.063c0.028-0.347-0.146-0.593-0.538-0.587
		c-0.921,0.014-1.839,0.004-2.76,0.004c-0.062,0-0.128,0.016-0.185-0.014c-0.006-0.014-0.005-0.026,0.004-0.034
		c0.537-0.461,1.01-0.978,1.401-1.568c0.062-0.095,0.15-0.117,0.257-0.116c0.281,0.001,0.563,0.004,0.844,0
		c1.083-0.017,1.956-0.473,2.631-1.304c0.4-0.491,0.632-1.061,0.691-1.697c0-1.007,0-2.016,0-3.023
		C18.906,8.313,18.735,8.256,18.518,8.257z M15.853,17.037c-0.129,0.629-0.655,1.131-1.291,1.231
		c-0.108,0.018-0.221,0.027-0.332,0.027c-3.62,0.001-7.239,0.003-10.859,0c-0.687-0.001-1.195-0.314-1.51-0.931
		c-0.016-0.031-0.034-0.062-0.045-0.095c-0.023-0.072-0.043-0.145-0.069-0.233C6.459,17.037,11.155,17.037,15.853,17.037z
		 M15.559,12.283c0.146-0.592,0.213-1.195,0.204-1.804c-0.002-0.104,0.042-0.113,0.123-0.111c0.152,0.004,0.305,0.001,0.456,0.001
		c0.122,0,0.247,0.013,0.367-0.003c0.165-0.022,0.193,0.048,0.185,0.192c-0.018,0.263,0.017,0.526-0.028,0.788
		c-0.099,0.586-0.614,1.032-1.206,1.052C15.561,12.401,15.535,12.376,15.559,12.283z M18.289,11.239
		c-0.04,1.383-1.178,2.51-2.56,2.561c-0.228,0.008-0.455,0.001-0.701,0.001c0.089-0.217,0.177-0.413,0.251-0.615
		c0.038-0.103,0.112-0.085,0.185-0.082c0.419,0.012,0.816-0.062,1.174-0.289c0.61-0.386,0.93-0.942,0.953-1.661
		c0.012-0.351,0.004-0.703,0.003-1.054c-0.002-0.298-0.129-0.43-0.427-0.433c-0.422-0.005-0.844-0.004-1.266,0.001
		c-0.101,0.001-0.146-0.016-0.139-0.131c0.012-0.152,0.009-0.305,0.001-0.457c-0.004-0.089,0.02-0.12,0.115-0.12
		c0.768,0.004,1.534,0.003,2.303,0c0.089,0,0.118,0.021,0.117,0.116C18.293,9.797,18.311,10.519,18.289,11.239z"/>
</svg>
