<svg width="20" height="20" viewBox="0 0 20 20" xmlns="http://www.w3.org/2000/svg">
	<path fill-rule="evenodd" fill="none" d="M1.034,10.318C1.021,10.399,1.069,10.489,1,10.563c0-0.083,0-0.164,0-0.246
		C1.012,10.3,1.023,10.301,1.034,10.318z"/>
	<path fill-rule="evenodd" fill="none" d="M7.117,1c-0.07,0.056-0.141,0.05-0.211,0C6.977,1,7.047,1,7.117,1z"/>
	<path fill-rule="evenodd" fill="none" d="M1,9.438c0.066,0.061,0.022,0.14,0.033,0.21C1.022,9.664,1.012,9.665,1,9.648
		C1,9.578,1,9.508,1,9.438z"/>
	<path fill-rule="evenodd" fill="none" d="M1,9.648c0.012,0,0.022,0,0.033-0.001C1.025,9.719,1.063,9.797,1,9.859
		C1,9.789,1,9.719,1,9.648z"/>
	<path fill-rule="evenodd" fill="none" d="M1.034,10.318C1.022,10.317,1.012,10.316,1,10.316c0-0.07,0-0.141,0-0.211
		C1.063,10.168,1.025,10.247,1.034,10.318z"/>
	<path fill-rule="evenodd" fill="none" d="M6.941,19C7,18.948,7.059,18.947,7.117,19C7.059,19,7,19,6.941,19z"/>
	<path fill-rule="evenodd" fill="none" d="M6.625,1C6.578,1.047,6.532,1.056,6.484,1C6.532,1,6.578,1,6.625,1z"/>
	<path fill-rule="evenodd" fill="none" d="M1.029,10.81c0,0.035,0,0.07,0.001,0.105C1.02,10.93,1.009,10.929,1,10.914
		c0-0.035,0-0.07,0-0.105C1.011,10.792,1.021,10.793,1.029,10.81z"/>
	<path fill-rule="evenodd" fill="none" d="M7.328,1c-0.023,0.053-0.047,0.045-0.07,0C7.281,1,7.305,1,7.328,1z"/>
	<path fill-rule="evenodd" fill="none" d="M1,9.016c0.043,0.009,0.034,0.04,0.03,0.069C1.021,9.102,1.01,9.102,1,9.086
		C1,9.063,1,9.039,1,9.016z"/>
	<path fill-rule="evenodd" fill="none" d="M1,9.086c0.01-0.001,0.02-0.001,0.03-0.001c0,0.023,0,0.047,0,0.07
		C1.021,9.172,1.01,9.172,1,9.156C1,9.133,1,9.109,1,9.086z"/>
	<path fill-rule="evenodd" fill="none" d="M1,9.156c0.01-0.001,0.02-0.001,0.03-0.001c0,0.023,0,0.047,0,0.07
		C1.021,9.242,1.011,9.243,1,9.227C1,9.204,1,9.179,1,9.156z"/>
	<path fill-rule="evenodd" fill="none" d="M1,9.227c0.01,0,0.02-0.001,0.03-0.001C1.035,9.256,1.036,9.284,1,9.297
		C1,9.274,1,9.25,1,9.227z"/>
	<path fill-rule="evenodd" fill="none" d="M1.029,10.81c-0.01,0-0.02,0-0.029-0.001c0-0.023,0-0.047,0-0.07
		C1.038,10.751,1.036,10.779,1.029,10.81z"/>
	<path fill-rule="evenodd" fill="none" d="M1,10.914c0.01,0.001,0.02,0.001,0.03,0.001c0,0.023,0,0.047,0,0.07
		C1.02,11,1.009,11,1,10.984C1,10.961,1,10.937,1,10.914z"/>
	<path fill-rule="evenodd" fill="none" d="M1,10.984c0.01,0,0.02,0,0.03,0.001c0.004,0.03,0.015,0.061-0.03,0.069
		C1,11.032,1,11.007,1,10.984z"/>
	<path fill-rule="evenodd" fill="none" d="M19,14.641c-0.047-0.023-0.036-0.047,0-0.07C19,14.593,19,14.618,19,14.641z"/>
	<path fill-rule="evenodd" fill="none" d="M6.414,19c0.01-0.039,0.04-0.032,0.067-0.029c0.014,0.006,0.018,0.012,0.015,0.018
		C6.492,18.996,6.489,19,6.484,19C6.461,19,6.437,19,6.414,19z"/>
	<path fill-rule="evenodd" fill="none" d="M6.484,19c0-0.01-0.001-0.02-0.003-0.029C6.513,18.965,6.54,18.968,6.555,19
		C6.532,19,6.507,19,6.484,19z"/>
	<path fill-rule="evenodd" fill="none" d="M7.328,19c0.013-0.034,0.041-0.036,0.072-0.03c0.011,0.008,0.013,0.014,0.01,0.021
		C7.406,18.997,7.402,19,7.398,19C7.375,19,7.351,19,7.328,19z"/>
	<path fill-rule="evenodd" fill="none" d="M7.398,19c0-0.01,0-0.021,0.001-0.03c0.029-0.004,0.06-0.011,0.069,0.03
		C7.446,19,7.421,19,7.398,19z"/>
	<path fill-rule="evenodd" d="M12.602,8.158c-0.034-0.456-0.097-0.908-0.177-1.357c-0.215-1.193-0.558-2.342-1.209-3.378
		c-0.785-1.249-1.875-2.067-3.349-2.334C7.71,1.06,7.546,1.072,7.398,1c-0.023,0-0.047,0-0.07,0c-0.023,0.022-0.047,0.022-0.07,0
		C7.21,1,7.165,1,7.117,1c-0.07,0.029-0.141,0.029-0.211,0C6.813,1,6.718,1,6.625,1C6.578,1.028,6.532,1.028,6.484,1
		c-0.07,0-0.141,0-0.211,0c-0.148,0.035-0.302,0.017-0.45,0.043C4.891,1.215,4.069,1.612,3.376,2.266
		C2.736,2.871,2.267,3.593,1.921,4.398C1.433,5.54,1.176,6.738,1.056,7.969C1.028,8.259,1.042,8.551,1,8.84
		c0,0.058,0,0.118,0,0.176c0.023,0.022,0.017,0.051,0.018,0.078c0,0.021,0,0.042,0,0.063c0,0.021,0,0.042,0,0.063
		C1.017,9.246,1.023,9.275,1,9.297C1,9.344,1,9.39,1,9.438c0.039,0.067,0.009,0.141,0.018,0.211C1.009,9.719,1.039,9.792,1,9.859
		c0,0.083,0,0.164,0,0.246c0.039,0.068,0.009,0.144,0.018,0.215C1.009,10.4,1.039,10.484,1,10.563c0,0.058,0,0.118,0,0.176
		c0.024,0.023,0.016,0.054,0.018,0.082c0,0.029,0,0.058,0,0.088c0,0.021,0,0.043,0,0.065C1.016,11.001,1.024,11.032,1,11.055
		c0,0.058,0,0.118,0,0.176c0.012,0.013,0.018,0.029,0.018,0.048c0.003,0.563,0.058,1.12,0.147,1.675
		c0.206,1.281,0.546,2.518,1.234,3.634c0.638,1.037,1.509,1.791,2.674,2.187C5.442,18.899,5.82,18.96,6.203,19
		c0.07,0,0.141,0,0.211,0c0.02-0.022,0.046-0.018,0.07-0.018c0.024,0.001,0.051-0.004,0.07,0.018c0.128,0,0.258,0,0.387,0
		C7,18.971,7.059,18.971,7.117,19c0.07,0,0.141,0,0.211,0c0.02-0.022,0.046-0.018,0.07-0.018c0.024,0.001,0.051-0.004,0.07,0.018
		c0.035,0,0.07,0,0.105,0c0.014-0.048,0.056-0.032,0.087-0.034c0.304-0.02,0.604-0.069,0.9-0.145
		c0.375-0.096,0.733-0.238,1.06-0.45c0.177-0.116,0.234-0.312,0.156-0.49c-0.073-0.163-0.256-0.257-0.437-0.214
		c-0.066,0.016-0.129,0.053-0.19,0.086c-0.289,0.159-0.585,0.295-0.91,0.356c-0.24,0.045-0.327-0.025-0.352-0.257
		c-0.039-0.351-0.114-0.692-0.226-1.026c-0.188-0.56-0.507-1.05-0.806-1.552c-0.721-1.209-0.808-2.493-0.442-3.825
		c0.156-0.57,0.483-1.061,0.782-1.563c0.824-1.387,0.914-2.86,0.514-4.387C7.561,4.924,7.239,4.423,6.936,3.917
		C6.608,3.371,6.364,2.798,6.263,2.162c-0.047-0.301,0.05-0.367,0.324-0.38c1.254-0.06,2.373,0.272,3.285,1.173
		c0.705,0.694,1.129,1.554,1.431,2.481c0.291,0.901,0.447,1.827,0.529,2.768c0.023,0.289,0.181,0.464,0.409,0.453
		C12.485,8.646,12.625,8.458,12.602,8.158z M6.972,5.724c0.37,1.381,0.235,2.698-0.526,3.933c-0.334,0.542-0.669,1.088-0.817,1.718
		c-0.343,1.458-0.258,2.867,0.511,4.192c0.282,0.484,0.594,0.953,0.78,1.487c0.102,0.294,0.176,0.595,0.204,0.904
		c0.019,0.203-0.038,0.264-0.244,0.265c-1.907,0.023-3.207-0.916-4.054-2.565c-0.475-0.926-0.72-1.922-0.872-2.945
		c-0.132-0.888-0.184-1.782-0.183-2.68c0.009-1.527,0.138-3.04,0.602-4.506C2.694,4.511,3.16,3.577,3.958,2.841
		c0.352-0.325,0.749-0.579,1.195-0.754C5.38,1.998,5.471,2.048,5.504,2.281c0.099,0.693,0.347,1.332,0.708,1.928
		C6.506,4.694,6.823,5.17,6.972,5.724z"/>
	<path fill-rule="evenodd" d="M19,13.832c-0.038-0.011-0.029-0.043-0.033-0.071c-0.31-2.563-2.572-4.372-5.15-4.118
		c-2.278,0.225-4.089,2.128-4.198,4.416c-0.109,2.269,1.386,4.272,3.59,4.807c0.207,0.051,0.416,0.09,0.624,0.135
		c0.306,0,0.608,0,0.914,0c0.223-0.04,0.451-0.027,0.674-0.085c1.396-0.367,2.435-1.187,3.108-2.461
		c0.27-0.511,0.43-1.059,0.472-1.637c0-0.058,0-0.118,0-0.176c-0.022-0.023-0.022-0.047,0-0.07C19,14.324,19,14.078,19,13.832z
		 M14.356,18.227c-2.203,0.004-3.966-1.73-3.97-3.905c-0.005-2.168,1.749-3.935,3.905-3.935c2.179,0,3.932,1.748,3.936,3.924
		C18.231,16.447,16.477,18.222,14.356,18.227z"/>
	<path fill-rule="evenodd" d="M16.407,13.445c0.005,0.121-0.048,0.216-0.129,0.298c-0.75,0.75-1.498,1.501-2.25,2.248
		c-0.194,0.193-0.402,0.186-0.602-0.01c-0.361-0.359-0.723-0.72-1.08-1.081c-0.183-0.184-0.193-0.417-0.035-0.576
		c0.158-0.159,0.394-0.149,0.578,0.031c0.221,0.217,0.438,0.439,0.658,0.658c0.145,0.143,0.224,0.143,0.369,0
		c0.593-0.592,1.187-1.184,1.776-1.777c0.128-0.128,0.265-0.215,0.453-0.146C16.314,13.149,16.396,13.271,16.407,13.445z"/>
</svg>
