<svg width="20" height="20" viewBox="0 0 20 20" xmlns="http://www.w3.org/2000/svg">
	<path fill-rule="evenodd" d="M18.5,18.31c-1.097-1.864-2.195-3.727-3.289-5.591c-0.034-0.057-0.09-0.106-0.084-0.191
		c0.074,0.008,0.144,0.016,0.213,0.024c0.936,0.113,1.863,0.272,2.79,0.443c0.259,0.048,0.444-0.07,0.483-0.284
		c0.039-0.22-0.089-0.4-0.343-0.447c-0.633-0.116-1.266-0.233-1.901-0.328c-1.21-0.182-2.429-0.3-3.652-0.366
		c-1.484-0.081-2.971-0.092-4.456-0.026c-1.036,0.045-2.069,0.128-3.099,0.247c-1.157,0.133-2.305,0.321-3.445,0.564
		c-0.248,0.053-0.373,0.233-0.33,0.455c0.041,0.209,0.244,0.325,0.492,0.277c0.127-0.024,0.252-0.052,0.378-0.078
		c0.857-0.177,1.721-0.316,2.607-0.428c-0.04,0.071-0.07,0.128-0.103,0.183c-1.087,1.848-2.175,3.697-3.263,5.546
		C1.308,18.634,1.338,18.785,1.632,19c0.07,0,0.141,0,0.211,0c0.138-0.063,0.225-0.174,0.301-0.303
		c1.183-2.016,2.369-4.029,3.552-6.046c0.072-0.124,0.146-0.191,0.306-0.203c0.618-0.05,1.236-0.103,1.856-0.139
		c0.128-0.007,0.16,0.016,0.132,0.146c-0.334,1.487-0.666,2.976-0.997,4.465c-0.111,0.502-0.224,1.004-0.334,1.505
		C6.591,18.745,6.633,18.838,6.906,19c0.07,0,0.141,0,0.211,0c0.178-0.105,0.246-0.269,0.289-0.466
		c0.449-2.042,0.907-4.082,1.358-6.125c0.023-0.107,0.063-0.145,0.168-0.146c0.714-0.02,1.428-0.013,2.144-0.012
		c0.093,0,0.111,0.038,0.126,0.121c0.182,1.114,0.37,2.226,0.556,3.338c0.16,0.957,0.325,1.914,0.479,2.872
		c0.03,0.196,0.114,0.336,0.295,0.418c0.059,0,0.116,0,0.176,0c0.271-0.144,0.318-0.258,0.266-0.57
		c-0.267-1.587-0.53-3.173-0.794-4.76c-0.077-0.456-0.151-0.912-0.23-1.376c0.229-0.024,0.45,0.006,0.67,0.022
		c0.467,0.032,0.935,0.07,1.401,0.096c0.116,0.006,0.173,0.052,0.229,0.146c1.205,2.052,2.412,4.101,3.617,6.153
		c0.072,0.125,0.159,0.226,0.291,0.289c0.07,0,0.141,0,0.211,0C18.662,18.783,18.692,18.634,18.5,18.31z"/>
	<path fill-rule="evenodd" fill="none" d="M10.07,1c0.213,0.075,0.308,0.229,0.308,0.453c-0.001,0.45,0.003,0.899-0.001,1.35
		C10.373,3.131,10.138,3.32,9.87,3.22C9.692,3.154,9.624,3.01,9.622,2.836c-0.004-0.473-0.002-0.946,0-1.419
		c0-0.211,0.11-0.348,0.308-0.417C9.976,1,10.023,1,10.07,1z"/>
	<path fill-rule="evenodd" d="M7.688,3.849C7.604,3.846,7.496,3.783,7.427,3.663C7.179,3.239,6.93,2.815,6.691,2.387
		c-0.118-0.21-0.057-0.43,0.126-0.533C6.998,1.753,7.209,1.808,7.331,2.01c0.252,0.421,0.501,0.845,0.734,1.276
		C8.212,3.558,8.034,3.853,7.688,3.849z"/>
	<path fill-rule="evenodd" d="M12.26,3.851c-0.3-0.018-0.456-0.288-0.335-0.544c0.07-0.153,0.162-0.297,0.246-0.443
		c0.164-0.284,0.326-0.568,0.492-0.85c0.085-0.141,0.21-0.226,0.379-0.203c0.149,0.02,0.254,0.107,0.309,0.252
		c0.046,0.121,0.013,0.232-0.047,0.335c-0.236,0.416-0.478,0.831-0.718,1.245C12.506,3.782,12.388,3.856,12.26,3.851z"/>
	<path fill-rule="evenodd" d="M4.438,4.401C4.435,4.107,4.695,3.931,4.952,4.039c0.139,0.059,0.267,0.145,0.399,0.22
		c0.303,0.174,0.607,0.35,0.91,0.526c0.144,0.084,0.228,0.209,0.21,0.376c-0.018,0.155-0.105,0.27-0.262,0.32
		C6.102,5.517,6.001,5.497,5.906,5.443c-0.42-0.241-0.842-0.481-1.261-0.726C4.52,4.643,4.43,4.538,4.438,4.401z"/>
	<path fill-rule="evenodd" d="M15.562,4.391c0.003,0.15-0.086,0.254-0.213,0.329c-0.414,0.241-0.828,0.481-1.246,0.715
		c-0.204,0.114-0.418,0.062-0.521-0.114c-0.108-0.182-0.065-0.4,0.132-0.519c0.429-0.259,0.863-0.514,1.306-0.75
		C15.285,3.911,15.565,4.094,15.562,4.391z"/>
	<path fill-rule="evenodd" d="M13.891,9.258c0.086-0.006,0.161,0.025,0.231,0.066c0.404,0.232,0.812,0.464,1.213,0.702
		c0.229,0.134,0.292,0.354,0.175,0.549c-0.11,0.183-0.33,0.222-0.557,0.093c-0.4-0.229-0.8-0.458-1.198-0.693
		c-0.254-0.151-0.304-0.408-0.127-0.6C13.699,9.297,13.785,9.256,13.891,9.258z"/>
	<path fill-rule="evenodd" d="M4.812,10.745c-0.168-0.002-0.295-0.074-0.352-0.236c-0.054-0.156-0.029-0.302,0.105-0.411
		c0.063-0.051,0.134-0.093,0.205-0.134c0.363-0.212,0.726-0.424,1.092-0.631C6.095,9.2,6.315,9.249,6.425,9.446
		c0.106,0.19,0.038,0.398-0.186,0.53c-0.402,0.237-0.809,0.468-1.213,0.702C4.959,10.716,4.891,10.747,4.812,10.745z"/>
	<path fill-rule="evenodd" d="M15.242,7.75c-0.228,0-0.456,0.002-0.684-0.001c-0.265-0.003-0.437-0.158-0.433-0.38
		c0.005-0.219,0.169-0.363,0.428-0.365C15.017,7,15.477,7,15.938,7.003c0.271,0.002,0.434,0.149,0.43,0.378
		c-0.004,0.225-0.172,0.366-0.442,0.368C15.698,7.751,15.47,7.75,15.242,7.75z"/>
	<path fill-rule="evenodd" d="M4.744,7.002c0.24,0,0.479-0.004,0.718,0.001c0.247,0.005,0.405,0.152,0.41,0.365
		c0.004,0.217-0.165,0.377-0.415,0.379c-0.473,0.005-0.946,0.005-1.42,0C3.793,7.746,3.633,7.595,3.631,7.381
		C3.627,7.157,3.784,7.009,4.042,7.004C4.275,6.999,4.51,7.002,4.744,7.002z"/>
	<path fill-rule="evenodd" d="M10.023,4C8.159,4.001,6.675,5.468,6.626,7.298c-0.05,1.858,1.425,3.391,3.313,3.446
		c1.831,0.054,3.38-1.433,3.433-3.292C13.424,5.585,11.935,4.05,10.023,4z M9.996,10c-1.441-0.002-2.628-1.19-2.624-2.627
		c0.004-1.446,1.186-2.621,2.63-2.618c1.446,0.003,2.628,1.185,2.625,2.624C12.622,8.82,11.437,10.001,9.996,10z"/>
</svg>
