<svg width="20" height="20" viewBox="0 0 20 20" xmlns="http://www.w3.org/2000/svg">
	<path fill-rule="evenodd" fill="none" d="M18.967,6.55C18.978,6.551,18.989,6.552,19,6.554c0,1.898,0,3.796,0,5.694
		c-0.011,0.001-0.023,0.003-0.033,0.004C18.967,10.352,18.967,8.451,18.967,6.55z"/>
	<path fill-rule="evenodd" fill="none" d="M1.002,18.295c0.087,0.153,0.142,0.322,0.275,0.452
		c0.125,0.119,0.286,0.167,0.428,0.251c-0.211,0-0.422-0.003-0.633,0.002C1.011,19.001,0.999,18.989,1,18.927
		C1.005,18.717,1.002,18.505,1.002,18.295z"/>
	<path fill-rule="evenodd" fill="none" d="M1.002,16.361c0.047,0.032,0.035,0.083,0.035,0.128c0,0.536,0,1.072,0,1.608
		c0,0.044,0.012,0.094-0.035,0.127C1.002,17.604,1.002,16.981,1.002,16.361z"/>
	<path fill-rule="evenodd" fill="none" d="M12.286,1c-0.081,0.056-0.165,0.056-0.246,0C12.121,1,12.205,1,12.286,1z"/>
	<path fill-rule="evenodd" d="M18.98,12.062c0.002-1.821,0.001-3.64,0.001-5.46c0.025-0.21-0.088-0.342-0.255-0.443
		c-0.133-0.081-0.28-0.111-0.436-0.11c-0.461,0.001-0.924,0-1.387,0c-0.244,0-0.248-0.002-0.246-0.244
		c0.005-0.618-0.057-1.226-0.271-1.812c-0.531-1.442-1.537-2.385-2.997-2.857C13.099,1.042,12.796,1.038,12.497,1
		c-0.07,0-0.141,0-0.211,0c-0.081,0.029-0.165,0.029-0.246,0c-0.13,0-0.257,0-0.387,0c-0.012,0.037-0.045,0.029-0.072,0.032
		C10.597,1.15,9.74,1.546,9.021,2.226C8.193,3.01,7.733,3.978,7.623,5.112C7.616,5.179,7.631,5.249,7.54,5.284
		C7.321,5.368,7.185,5.539,7.07,5.737c-1.614,2.792-3.234,5.581-4.844,8.375c-0.417,0.722-0.874,1.419-1.225,2.179
		c0,0.022,0,0.047,0,0.07c0.033,0.054,0.018,0.114,0.018,0.171c0.001,0.476,0.002,0.956,0,1.433c0,0.086,0.021,0.175-0.017,0.259
		c0,0.022,0,0.047,0,0.07c0.08,0.389,0.314,0.623,0.703,0.703c4.113,0,8.226,0,12.339,0c0.587-0.224,0.755-0.456,0.756-1.038
		c0-0.469-0.002-0.937,0-1.406c0.001-0.214-0.044-0.413-0.152-0.602c-1.982-3.417-3.96-6.836-5.939-10.255
		c-0.068-0.118-0.136-0.252-0.26-0.3C8.179,5.293,8.215,5.099,8.256,4.891c0.005-0.022,0.012-0.045,0.017-0.068
		c0.292-1.611,1.517-2.824,3.168-3.142c1.499-0.289,3.104,0.43,3.95,1.753c0.504,0.788,0.646,1.656,0.611,2.569
		C16,6.119,15.932,6.1,15.864,6.1c-0.532,0-1.065-0.001-1.6,0.001c-0.42,0.001-0.667,0.244-0.667,0.664
		c-0.002,1.757-0.002,3.514,0,5.271c0,0.419,0.246,0.665,0.666,0.666c0.51,0.002,1.019,0,1.528,0c0.851,0,1.7,0.002,2.548,0
		c0.335,0,0.549-0.158,0.627-0.449C18.995,12.191,18.98,12.125,18.98,12.062z M14.118,16.237c0.056,0.094,0.08,0.19,0.08,0.299
		c-0.002,0.498,0.001,0.996-0.002,1.492c-0.001,0.268-0.106,0.369-0.374,0.369c-1.975,0-3.948,0-5.922,0c-1.956,0-3.912,0-5.868,0
		c-0.339,0-0.43-0.089-0.43-0.423c0-0.475,0.001-0.949-0.001-1.423c-0.001-0.115,0.028-0.215,0.084-0.316
		c1.974-3.406,3.947-6.813,5.92-10.221c0.17-0.292,0.424-0.293,0.593,0C10.172,9.422,12.144,12.83,14.118,16.237z M18.251,12.106
		c-1.3-0.004-2.601-0.004-3.9,0c-0.123,0-0.156-0.032-0.156-0.155c0.005-1.698,0.004-3.396,0.001-5.094
		c-0.001-0.115,0.018-0.164,0.15-0.162c0.503,0.008,1.007,0.007,1.511,0c0.114-0.001,0.149,0.029,0.146,0.146
		C15.997,7.175,16,7.509,16.002,7.843c0.001,0.225,0.114,0.359,0.296,0.359c0.179,0,0.302-0.137,0.302-0.357
		c0.004-0.333,0.006-0.667,0-1.001c-0.002-0.112,0.023-0.15,0.143-0.148c0.504,0.007,1.007,0.007,1.51,0
		c0.132-0.002,0.151,0.045,0.15,0.16c-0.005,0.854-0.003,1.709-0.003,2.564c0,0.843-0.003,1.686,0.003,2.529
		C18.403,12.069,18.376,12.107,18.251,12.106z"/>
	<path fill-rule="evenodd" d="M7.89,16.894c-1.745,0-3.49,0-5.234,0c-0.059,0-0.118,0.004-0.175-0.001
		c-0.151-0.014-0.269-0.124-0.275-0.271C2.2,16.472,2.269,16.36,2.417,16.317c0.065-0.02,0.138-0.021,0.208-0.021
		c3.52,0,7.038,0,10.557,0c0.272,0,0.41,0.097,0.413,0.296c0.003,0.159-0.102,0.282-0.26,0.3c-0.057,0.006-0.116,0.002-0.176,0.002
		C11.403,16.894,9.646,16.894,7.89,16.894z"/>
	<path fill-rule="evenodd" d="M7.006,9.648C7.014,9.2,7.378,8.825,7.828,8.804c0.289-0.013,0.331-0.051,0.379-0.343
		c0.027-0.162,0.163-0.269,0.324-0.254c0.155,0.014,0.265,0.141,0.271,0.312C8.819,8.968,8.439,9.374,7.976,9.4
		C7.686,9.416,7.65,9.447,7.602,9.724c-0.032,0.176-0.168,0.289-0.33,0.273C7.102,9.979,7.003,9.851,7.006,9.648z"/>
	<path fill-rule="evenodd" d="M7.604,11.77c-0.003,0.188-0.128,0.326-0.296,0.332c-0.16,0.004-0.279-0.115-0.303-0.3
		c-0.028-0.223-0.097-0.287-0.33-0.299c-0.501-0.029-0.863-0.385-0.871-0.856c-0.002-0.202,0.1-0.33,0.273-0.342
		c0.178-0.012,0.296,0.094,0.325,0.294c0.035,0.236,0.098,0.292,0.342,0.305C7.235,10.929,7.611,11.309,7.604,11.77z"/>
	<path fill-rule="evenodd" d="M8.205,12.34C8.214,11.908,8.569,11.536,9,11.506c0.326-0.021,0.344-0.037,0.406-0.353
		C9.436,11,9.564,10.9,9.721,10.908c0.161,0.009,0.271,0.126,0.279,0.299c0.024,0.457-0.349,0.856-0.831,0.894
		c-0.294,0.022-0.317,0.043-0.369,0.328c-0.029,0.165-0.167,0.281-0.318,0.27C8.308,12.685,8.201,12.547,8.205,12.34z"/>
	<path fill-rule="evenodd" d="M7.288,15.697c-0.159,0-0.263-0.069-0.305-0.207c-0.044-0.144,0.005-0.266,0.133-0.348
		c0.251-0.166,0.266-0.202,0.166-0.482c-0.152-0.432,0.042-0.903,0.452-1.088c0.186-0.084,0.358-0.037,0.435,0.12
		C8.247,13.85,8.19,14,8.015,14.102c-0.194,0.114-0.226,0.204-0.144,0.419c0.174,0.461-0.005,0.918-0.447,1.134
		C7.377,15.679,7.33,15.701,7.288,15.697z"/>
	<path fill-rule="evenodd" d="M11.428,14.861c0.004-0.124,0.03-0.243,0.076-0.357c0.079-0.189,0.039-0.292-0.134-0.396
		c-0.183-0.108-0.242-0.266-0.162-0.422c0.082-0.158,0.263-0.199,0.455-0.103c0.391,0.196,0.573,0.653,0.428,1.072
		c-0.1,0.288-0.088,0.326,0.159,0.485c0.141,0.091,0.188,0.254,0.114,0.396c-0.073,0.144-0.231,0.198-0.388,0.134
		C11.655,15.54,11.428,15.205,11.428,14.861z"/>
	<path fill-rule="evenodd" d="M10.599,13.357c-0.009,0.412-0.331,0.774-0.74,0.829c-0.052,0.006-0.104,0.009-0.157,0.013
		c-0.202,0.017-0.275,0.089-0.299,0.292c-0.024,0.196-0.143,0.311-0.318,0.302c-0.173-0.009-0.281-0.137-0.281-0.334
		c0-0.448,0.342-0.809,0.81-0.856c0.326-0.034,0.33-0.037,0.392-0.348c0.031-0.161,0.171-0.266,0.33-0.248
		C10.506,13.026,10.604,13.155,10.599,13.357z"/>
	<path fill-rule="evenodd" d="M5.201,15.365c-0.001,0.188-0.106,0.316-0.271,0.33c-0.17,0.013-0.292-0.089-0.324-0.274
		c-0.046-0.267-0.098-0.313-0.362-0.323c-0.458-0.018-0.833-0.395-0.842-0.849c-0.005-0.193,0.107-0.334,0.274-0.347
		C3.853,13.887,3.974,13.996,4,14.194c0.03,0.23,0.104,0.297,0.342,0.306C4.825,14.518,5.203,14.898,5.201,15.365z"/>
	<path fill-rule="evenodd" d="M5.205,13.849c0.01-0.463,0.366-0.816,0.854-0.85c0.258-0.018,0.312-0.067,0.349-0.318
		c0.026-0.178,0.158-0.292,0.321-0.278c0.165,0.018,0.274,0.147,0.275,0.329c0.003,0.421-0.334,0.805-0.752,0.856
		c-0.042,0.004-0.082,0.006-0.123,0.009c-0.231,0.016-0.29,0.071-0.326,0.303c-0.032,0.199-0.149,0.304-0.326,0.292
		C5.303,14.178,5.2,14.048,5.205,13.849z"/>
</svg>
