<svg width="20" height="20" viewBox="0 0 20 20" xmlns="http://www.w3.org/2000/svg">
	<path fill-rule="evenodd" d="M4.903,7.639c0.011-0.179,0.115-0.364,0.282-0.515c0.1-0.09,0.208-0.17,0.305-0.264
		c0.152-0.146,0.154-0.292,0.004-0.442c-0.091-0.09-0.197-0.167-0.292-0.253C4.79,5.794,4.792,5.269,5.206,4.897
		c0.056-0.051,0.118-0.096,0.176-0.146c0.298-0.252,0.298-0.397,0-0.644C5.301,4.041,5.218,3.975,5.144,3.9
		C4.81,3.56,4.812,3.079,5.149,2.741C5.24,2.65,5.344,2.572,5.442,2.489c0.091-0.079,0.156-0.166,0.167-0.296
		C5.621,2.04,5.742,1.946,5.882,1.958c0.142,0.011,0.246,0.119,0.246,0.271c0,0.242-0.1,0.442-0.28,0.602
		C5.749,2.92,5.64,3,5.542,3.093C5.386,3.243,5.385,3.4,5.54,3.55c0.096,0.094,0.206,0.173,0.305,0.264
		c0.379,0.351,0.383,0.864,0.009,1.221C5.764,5.12,5.664,5.193,5.572,5.274C5.372,5.45,5.372,5.617,5.57,5.79
		c0.088,0.077,0.183,0.146,0.269,0.226C6.221,6.366,6.23,6.876,5.859,7.237C5.768,7.327,5.663,7.404,5.566,7.489
		c-0.077,0.066-0.13,0.142-0.142,0.25c-0.02,0.185-0.126,0.272-0.289,0.259C4.98,7.985,4.896,7.875,4.903,7.639z"/>
	<path fill-rule="evenodd" d="M4.104,2.307C4.101,2.496,4.001,2.675,3.839,2.823C3.748,2.905,3.65,2.98,3.559,3.063
		C3.361,3.243,3.36,3.403,3.554,3.58c0.087,0.079,0.182,0.149,0.268,0.228C4.21,4.164,4.212,4.682,3.829,5.043
		C3.73,5.135,3.62,5.214,3.522,5.306C3.369,5.45,3.37,5.617,3.524,5.761C3.623,5.853,3.732,5.932,3.83,6.024
		c0.382,0.364,0.378,0.877-0.009,1.237c-0.073,0.067-0.15,0.132-0.229,0.191c-0.108,0.082-0.173,0.18-0.192,0.319
		C3.375,7.939,3.261,8.018,3.104,7.998C2.962,7.979,2.88,7.873,2.884,7.708C2.89,7.457,3.008,7.262,3.191,7.101
		c0.092-0.082,0.192-0.154,0.281-0.239c0.146-0.14,0.148-0.302,0.005-0.444C3.391,6.331,3.29,6.258,3.198,6.176
		C2.765,5.792,2.767,5.262,3.202,4.885c0.08-0.069,0.166-0.132,0.243-0.204c0.185-0.169,0.184-0.343-0.001-0.507
		c-0.075-0.066-0.154-0.126-0.23-0.19c-0.443-0.378-0.45-0.921-0.014-1.306c0.07-0.062,0.143-0.12,0.216-0.179
		c0.094-0.076,0.157-0.165,0.174-0.292C3.614,2.033,3.725,1.944,3.87,1.958C4.025,1.973,4.113,2.09,4.104,2.307z"/>
	<path fill-rule="evenodd" d="M18.438,11.415c-0.105-0.031-0.133-0.099-0.149-0.19c-0.041-0.253-0.122-0.486-0.307-0.675
		c-0.116-0.119-0.253-0.209-0.385-0.306c-0.513-0.373-1.042-0.351-1.522,0.066c-0.06,0.053-0.121,0.09-0.204,0.072
		c-0.337-0.07-0.662-0.001-0.986,0.081c-0.103,0.026-0.182,0.014-0.253-0.063c-0.138-0.144-0.307-0.235-0.498-0.281
		c-0.103-0.024-0.173-0.079-0.234-0.167c-0.288-0.421-0.801-0.59-1.284-0.432c-0.11,0.037-0.221,0.074-0.328,0.122
		c-0.097,0.043-0.162,0.019-0.227-0.063c-0.184-0.23-0.428-0.355-0.716-0.405c-0.282-0.048-0.547,0.031-0.81,0.105
		C10.05,9.416,9.782,9.751,9.71,10.242c-0.015,0.091-0.036,0.125-0.132,0.097c-0.19-0.055-0.382-0.044-0.572,0.012
		c-0.048,0.014-0.092,0.038-0.137,0.056c0.02-0.014,0.044-0.022,0.065-0.034c0.637-0.375,1.141-0.877,1.449-1.556
		c0.136-0.299,0.314-0.564,0.567-0.772c0.972-0.801,1.938-1.608,2.909-2.408c0.29-0.238,0.578-0.478,0.863-0.72
		c0.152-0.126,0.171-0.292,0.06-0.434c-0.104-0.132-0.265-0.153-0.425-0.053c-0.044,0.027-0.084,0.063-0.125,0.097
		c-1.008,0.837-2.011,1.684-3.031,2.507c-0.617,0.499-1.177,1.02-1.51,1.769C9.485,9.266,9.072,9.577,8.64,9.84
		C8.532,9.907,8.443,9.9,8.334,9.828c-0.264-0.18-0.557-0.301-0.872-0.356C7.242,9.433,7.227,9.423,7.333,9.22
		C7.466,8.963,7.64,8.734,7.851,8.537c0.396-0.367,0.824-0.669,1.371-0.78c0.401-0.081,0.755-0.28,1.073-0.539
		c0.698-0.57,1.391-1.149,2.086-1.725c1.359-1.13,2.726-2.255,4.084-3.385c0.194-0.161,0.382-0.331,0.587-0.477
		c0.106-0.074,0.211-0.071,0.298,0.03c0.081,0.096,0.062,0.194-0.013,0.286c-0.023,0.027-0.049,0.052-0.076,0.074
		c-0.382,0.31-0.754,0.632-1.136,0.942c-0.269,0.217-0.533,0.44-0.798,0.661c-0.143,0.12-0.169,0.311-0.071,0.439
		c0.092,0.119,0.28,0.141,0.431,0.051c0.041-0.024,0.078-0.053,0.113-0.084c0.243-0.211,0.502-0.406,0.745-0.617
		c0.402-0.348,0.834-0.663,1.221-1.03c0.252-0.239,0.317-0.533,0.211-0.853C17.879,1.233,17.676,1.035,17.348,1
		c-0.116,0-0.235,0-0.352,0c-0.126,0.081-0.262,0.14-0.379,0.238c-2.214,1.837-4.429,3.67-6.643,5.506
		C9.71,6.963,9.416,7.13,9.079,7.202c-0.56,0.12-1.035,0.396-1.456,0.771C7.193,8.354,6.822,8.789,6.68,9.359
		c-0.063,0.25-0.108,0.49-0.297,0.681c-0.04,0.039-0.051,0.105-0.126,0.1c-0.083-0.006-0.056-0.081-0.07-0.122
		C6.023,9.559,5.699,9.297,5.22,9.241C5.064,9.223,4.904,9.242,4.746,9.25c-0.482,0.025-0.81,0.273-0.995,0.71
		c-0.034,0.08-0.053,0.109-0.146,0.086c-0.591-0.148-1.601,0.56-1.565,1.253C2.044,11.409,2,11.428,1.907,11.423
		c-0.242-0.012-0.463,0.041-0.65,0.208C1.13,11.744,1.075,11.896,1,12.039c0,0.118,0,0.234,0,0.352
		c0.104,0.435,0.314,0.614,0.769,0.647c0.107,0.008,0.187,0.05,0.255,0.133c0.114,0.142,0.219,0.29,0.333,0.431
		c0.44,0.546,0.996,0.855,1.714,0.845c0.585-0.008,1.171-0.002,1.757,0c0.055,0,0.116-0.021,0.165,0.021
		c0.001,0.043-0.026,0.068-0.049,0.093c-0.395,0.434-0.473,0.982-0.547,1.529c-0.024,0.17,0.089,0.311,0.239,0.342
		c0.152,0.033,0.309-0.064,0.367-0.23c0.02-0.055,0.029-0.114,0.038-0.171c0.026-0.15,0.046-0.301,0.081-0.45
		c0.144-0.617,0.615-1.032,1.238-1.104c0.204-0.024,0.408-0.032,0.613-0.032c1.359,0,2.718,0,4.076,0
		c0.193,0,0.387,0.007,0.579,0.03c0.637,0.074,1.126,0.485,1.249,1.108c0.176,0.884,0.315,1.776,0.466,2.666
		c0.024,0.138-0.029,0.177-0.158,0.175c-0.245-0.005-0.491-0.001-0.737-0.001c-0.259,0-0.263-0.004-0.305-0.253
		c-0.081-0.492-0.164-0.982-0.257-1.471c-0.129-0.684-0.807-1.107-1.347-1.095c-1.03,0.023-2.062,0.007-3.092,0.007
		c-0.124,0-0.245,0.004-0.365,0.045c-0.525,0.177-0.864,0.526-0.972,1.077c-0.095,0.488-0.175,0.98-0.257,1.472
		c-0.035,0.208-0.047,0.218-0.26,0.219c-0.258,0.001-0.516,0.002-0.773-0.001c-0.166-0.002-0.182-0.021-0.156-0.188
		c0.04-0.26,0.093-0.519,0.125-0.78c0.025-0.205-0.075-0.35-0.249-0.384c-0.171-0.034-0.312,0.071-0.36,0.278
		c-0.058,0.251-0.088,0.507-0.137,0.761c-0.036,0.189-0.081,0.378-0.083,0.572C4.958,18.883,4.993,18.931,5.184,19
		c3.222,0,6.444,0,9.668,0c0.146-0.059,0.196-0.172,0.188-0.323c-0.004-0.07-0.01-0.14-0.021-0.209
		c-0.169-0.97-0.335-1.94-0.503-2.91c-0.06-0.349-0.195-0.661-0.411-0.94c-0.037-0.047-0.101-0.083-0.09-0.16
		c0.063-0.028,0.128-0.015,0.192-0.016c0.599,0,1.195,0,1.793,0c0.544,0,1.001-0.206,1.395-0.571
		c0.223-0.204,0.382-0.459,0.57-0.69c0.071-0.087,0.147-0.138,0.266-0.145c0.448-0.026,0.666-0.212,0.77-0.646
		c0-0.105,0-0.211,0-0.316C18.96,11.728,18.767,11.51,18.438,11.415z M7.475,18.474c-0.081,0-0.081-0.037-0.07-0.097
		c0.094-0.53,0.178-1.061,0.28-1.588c0.067-0.343,0.375-0.595,0.725-0.606c0.263-0.009,0.526-0.002,0.821-0.002
		c-0.265,0.336-0.457,0.688-0.543,1.091c-0.089,0.417-0.057,0.812,0.216,1.201C8.409,18.473,7.942,18.471,7.475,18.474z
		 M9.998,18.438c-0.601-0.002-0.935-0.44-0.799-1.061c0.104-0.469,0.39-0.829,0.727-1.156c0.054-0.052,0.099-0.049,0.15,0.002
		c0.366,0.364,0.678,0.76,0.744,1.296C10.888,18.055,10.545,18.439,9.998,18.438z M11.112,18.466
		c0.408-0.709,0.31-1.377-0.341-2.289c0.329,0.008,0.644-0.035,0.951,0.023c0.305,0.059,0.52,0.263,0.584,0.566
		c0.116,0.56,0.201,1.126,0.302,1.699C12.107,18.466,11.617,18.466,11.112,18.466z M16.558,10.649
		c0.058-0.029,0.115-0.053,0.176-0.077c0.305-0.124,1.009,0.379,0.993,0.723c-0.002,0.084-0.013,0.132-0.111,0.127
		c-0.135-0.005-0.269-0.001-0.402-0.001c-0.006,0-0.013,0-0.018,0c-0.282,0.032-0.539,0.032-0.562-0.356
		c-0.005-0.073-0.066-0.152-0.121-0.209C16.42,10.756,16.462,10.699,16.558,10.649z M14.755,11.299
		c0.175-0.371,0.527-0.346,0.847-0.372c0.243-0.018,0.426,0.11,0.541,0.324c0.078,0.146,0.061,0.169-0.114,0.169
		c-0.187,0-0.376,0-0.563,0c-0.211,0-0.422-0.004-0.633,0.002C14.721,11.427,14.718,11.381,14.755,11.299z M14.104,10.714
		c0.201,0.104,0.238,0.202,0.154,0.409c-0.003,0.006-0.003,0.012-0.006,0.016c-0.048,0.087-0.017,0.228-0.098,0.267
		c-0.086,0.041-0.206,0.009-0.311,0.009c0,0.002,0,0.004,0,0.006c-0.021,0-0.046,0-0.069,0c-0.29,0-0.365-0.051-0.475-0.313
		c-0.022-0.058,0.003-0.101,0.025-0.146C13.46,10.684,13.825,10.568,14.104,10.714z M13.377,10.213
		c-0.207,0.117-0.387,0.259-0.5,0.468c-0.021,0.038-0.047,0.044-0.083,0.018c-0.193-0.14-0.414-0.197-0.654-0.209
		C12.348,10.071,13.026,9.916,13.377,10.213z M11.998,11.051c0.375-0.115,0.585,0.163,0.83,0.364c-0.394,0-0.789,0-1.202,0
		C11.692,11.22,11.815,11.108,11.998,11.051z M10.263,10.369c0.009-0.052,0.01-0.105,0.026-0.155
		c0.106-0.347,0.407-0.395,0.703-0.458c0.247-0.053,0.463-0.011,0.633,0.191c0.071,0.088,0.126,0.177,0.036,0.292
		c-0.038,0.048-0.058,0.115-0.073,0.177c-0.016,0.063-0.03,0.093-0.103,0.055c-0.352-0.177-0.701-0.151-1.044,0.017
		C10.298,10.558,10.251,10.518,10.263,10.369z M10.167,11.296c0.166-0.296,0.771-0.494,1.09-0.343
		c-0.046,0.096-0.112,0.181-0.124,0.273c-0.026,0.188-0.134,0.208-0.291,0.198c-0.197-0.013-0.396-0.005-0.594-0.002
		C10.144,11.425,10.105,11.406,10.167,11.296z M8.651,11.411c-0.4,0-0.799,0-1.254,0c0.194-0.132,0.336-0.254,0.499-0.335
		C8.193,10.926,8.553,11.094,8.651,11.411z M6.969,10.157c0.094-0.073,0.201-0.126,0.321-0.121
		c0.288,0.014,0.542,0.125,0.766,0.301c0.042,0.033,0.087,0.08,0.088,0.151c-0.23,0.015-0.449,0.066-0.639,0.201
		c-0.054,0.039-0.076,0.025-0.105-0.025c-0.101-0.177-0.243-0.313-0.421-0.409C6.913,10.222,6.919,10.195,6.969,10.157z
		 M5.983,10.896c0.083-0.105,0.183-0.196,0.32-0.229c0.208-0.049,0.394,0.002,0.55,0.146c0.172,0.16,0.151,0.481-0.057,0.587
		c-0.095,0.048-0.229,0.02-0.344,0.027c-0.313-0.007-0.319-0.005-0.412-0.28C6.014,11.068,5.903,10.998,5.983,10.896z
		 M4.211,10.278c0.012-0.228,0.228-0.459,0.458-0.489c0.162-0.021,0.328-0.031,0.491-0.023c0.302,0.015,0.548,0.277,0.546,0.561
		C5.704,10.49,5.575,10.57,5.42,10.52c-0.337-0.111-0.685-0.158-1.036-0.083C4.23,10.47,4.205,10.387,4.211,10.278z M4.13,11.282
		c0.096-0.208,0.259-0.339,0.485-0.352c0.195-0.01,0.397,0.009,0.588,0.068c0.064,0.02,0.126,0.061,0.179,0.105
		c0.091,0.076,0.193,0.181,0.162,0.29c-0.021,0.071-0.167,0.023-0.257,0.026c-0.152,0.007-0.303,0.002-0.455,0.002
		c-0.205,0-0.409-0.007-0.613,0.003C4.084,11.43,4.087,11.375,4.13,11.282z M3.585,10.583c0.063,0.031,0.126,0.059,0.186,0.096
		s0.084,0.077,0.021,0.149c-0.122,0.139-0.19,0.309-0.216,0.491c-0.012,0.082-0.041,0.108-0.12,0.104
		c-0.129-0.006-0.258-0.002-0.387-0.002c-0.129,0-0.258-0.003-0.386,0.001c-0.091,0.004-0.114-0.027-0.123-0.12
		C2.534,10.955,3.27,10.424,3.585,10.583z M16.13,13.868c-0.109,0.013-0.222,0.014-0.333,0.014c-3.866,0-7.731-0.003-11.597,0.005
		c-0.688,0.001-1.187-0.286-1.553-0.876c4.91,0,9.798,0,14.707,0C17.058,13.479,16.683,13.8,16.13,13.868z M18.276,12.462
		c-0.074,0.015-0.15,0.013-0.227,0.013c-2.683,0-5.367,0-8.05,0c-2.684,0-5.366,0-8.049,0c-0.07,0-0.142,0.002-0.21-0.01
		c-0.133-0.023-0.206-0.112-0.21-0.243c-0.005-0.131,0.063-0.224,0.193-0.258c0.061-0.015,0.127-0.016,0.191-0.016
		c5.39,0,10.78,0,16.169,0c0.069,0,0.143,0.001,0.208,0.021c0.122,0.035,0.18,0.131,0.176,0.253
		C18.464,12.345,18.402,12.437,18.276,12.462z"/>
	<path fill-rule="evenodd" fill="none" d="M9.024,10.957c0.233-0.139,0.44-0.065,0.647,0.027
		c0.014,0.006,0.039,0.023,0.037,0.029c-0.046,0.131-0.066,0.283-0.149,0.383C9.497,11.47,9.35,11.423,9.24,11.413
		c-0.042-0.003-0.042-0.048-0.049-0.082C9.161,11.199,9.099,11.081,9.024,10.957z"/>
	<path fill-rule="evenodd" fill="none" d="M8.91,10.352c0.025,0.013,0.049,0.025,0.075,0.038
		c-0.079,0.037-0.159,0.073-0.277,0.127C8.765,10.395,8.843,10.381,8.91,10.352z"/>
</svg>
